<?xml version="1.0" encoding="UTF-8"?>
<svg version="1.1" xmlns="http://www.w3.org/2000/svg" width="256" height="256">
<path d="M0 0 C1.32396412 -0.00935994 1.32396412 -0.00935994 2.67467499 -0.01890898 C5.63820449 -0.03488939 8.60091723 -0.02221496 11.56445312 -0.00964355 C13.68660971 -0.01506242 15.80876253 -0.02218375 17.9309082 -0.03088379 C23.69944448 -0.04914793 29.46769519 -0.04203675 35.23623657 -0.02936745 C41.26687401 -0.01925584 47.29748663 -0.02862801 53.328125 -0.03491211 C63.45642497 -0.04219387 73.58460835 -0.03258689 83.71289062 -0.0135498 C95.43046156 0.00821986 107.14775411 0.00116887 118.8653183 -0.02085543 C128.9172072 -0.03899431 138.96901219 -0.04157513 149.02091217 -0.03110075 C155.02822942 -0.02485753 161.03541572 -0.024053 167.04272461 -0.0372467 C172.68986066 -0.04878253 178.33663703 -0.04082075 183.98373413 -0.01766968 C186.05902509 -0.01237048 188.1343462 -0.01391694 190.20962524 -0.02272034 C193.03729732 -0.0336115 195.86380863 -0.01999008 198.69140625 0 C199.51747124 -0.00892289 200.34353622 -0.01784577 201.19463348 -0.02703905 C204.65407625 0.02057263 206.92659237 0.23434061 209.85485077 2.14589691 C211.79056133 5.21274738 211.84879093 7.18724854 211.8536377 10.80847168 C211.86491699 12.10396942 211.87619629 13.39946716 211.88781738 14.73422241 C211.88004033 16.16790995 211.87184767 17.60159528 211.86328125 19.03527832 C211.86870196 20.5466072 211.87582433 22.0579308 211.88452148 23.56924438 C211.90276415 27.67258269 211.8956836 31.77551892 211.88300514 35.87886429 C211.87288228 40.17181741 211.88226883 44.46473597 211.8885498 48.75769043 C211.89582831 55.96714462 211.88623324 63.17643494 211.8671875 70.38586426 C211.8454183 78.72251614 211.85246953 87.05877673 211.87449312 95.39541912 C211.8926414 102.55137578 211.89520827 109.7072146 211.88473845 116.86318684 C211.87850033 121.1378909 211.87767652 125.41241101 211.8908844 129.68710327 C211.90243404 133.70587365 211.89443387 137.72413926 211.87130737 141.74285507 C211.86601547 143.21827226 211.86754235 144.69373189 211.87635803 146.16913223 C211.88727615 148.18187194 211.87116128 150.19470442 211.8536377 152.20739746 C211.85212959 153.33416397 211.85062149 154.46093048 211.84906769 155.62184143 C211.22665722 159.19049664 210.23568071 160.37458103 207.34570312 162.50793457 C205.41671371 163.00012589 205.41671371 163.00012589 203.37200928 162.98895264 C202.59240845 162.99445129 201.81280762 162.99994995 201.00958252 163.00561523 C199.74075226 162.98404358 199.74075226 162.98404358 198.44628906 162.96203613 C197.54837646 162.96262024 196.65046387 162.96320435 195.7253418 162.96380615 C192.75985953 162.96102125 189.79538461 162.92990991 186.83007812 162.89855957 C184.77313791 162.89109863 182.71619059 162.88540501 180.65924072 162.88140869 C175.24707391 162.86614085 169.83533691 162.82684883 164.42333984 162.78259277 C158.90012425 162.74166506 153.37683917 162.723403 147.85351562 162.70324707 C137.01735896 162.66035581 126.18163404 162.58999626 115.34570312 162.50793457 C115.34570312 169.10793457 115.34570312 175.70793457 115.34570312 182.50793457 C117.57449219 182.4383252 119.80328125 182.36871582 122.09960938 182.29699707 C124.2773731 182.25009821 126.45507891 182.21372831 128.63305664 182.17834473 C130.13754785 182.14831625 131.64186609 182.10747851 133.14575195 182.05529785 C147.24716404 181.5785514 147.24716404 181.5785514 151.84179688 185.23059082 C153.65568756 187.24357795 154.31263293 188.39200917 155.06445312 191.02746582 C154.99226562 191.78414551 154.92007813 192.5408252 154.84570312 193.32043457 C154.79414063 194.09000488 154.74257812 194.8595752 154.68945312 195.65246582 C154.34570312 197.50793457 154.34570312 197.50793457 153.34570312 198.50793457 C151.94158996 198.60340387 150.53270504 198.62981986 149.12535095 198.62818909 C148.21524765 198.62956375 147.30514435 198.63093842 146.36746216 198.63235474 C145.36117767 198.62875946 144.35489319 198.62516418 143.31811523 198.62145996 C142.26458359 198.62160599 141.21105194 198.62175201 140.12559509 198.62190247 C136.62472512 198.62120283 133.12390761 198.61340805 129.62304688 198.60559082 C127.20308969 198.60372682 124.78313213 198.60230283 122.36317444 198.6013031 C115.97955288 198.59747649 109.59595391 198.58764498 103.21234131 198.57659912 C96.70406398 198.56638808 90.19578302 198.56180614 83.6875 198.5567627 C70.90689138 198.54602284 58.12629845 198.52913569 45.34570312 198.50793457 C45.27733948 196.74091051 45.22843591 194.97312584 45.18783569 193.20524597 C45.15853155 192.2209344 45.12922741 191.23662283 45.09903526 190.22248363 C45.36813779 187.26104384 45.70533358 186.32181244 47.87158203 184.35095215 C51.91909225 182.20375224 54.36887525 181.92839801 58.93164062 182.01965332 C59.98431625 182.03026543 59.98431625 182.03026543 61.05825806 182.04109192 C63.28019904 182.0688836 65.49953577 182.13158023 67.72070312 182.19543457 C69.23498941 182.22053771 70.74931556 182.24334735 72.26367188 182.26379395 C75.95947056 182.3143936 79.64970429 182.4122384 83.34570312 182.50793457 C83.34570312 175.90793457 83.34570312 169.30793457 83.34570312 162.50793457 C80.57969727 162.52888184 77.81369141 162.5498291 74.96386719 162.57141113 C65.83164727 162.63764853 56.69941681 162.68185696 47.56702042 162.71518326 C42.02925169 162.73607043 36.4917288 162.764409 30.95410156 162.80969238 C25.61136199 162.85310937 20.26885908 162.87706316 14.92595673 162.88744354 C12.88614933 162.89484234 10.84635508 162.90929025 8.80664825 162.9308548 C5.9525184 162.95983344 3.09937016 162.96389287 0.24511719 162.96203613 C-0.60076965 162.97641724 -1.44665649 162.99079834 -2.31817627 163.00561523 C-3.0977771 163.00011658 -3.87737793 162.99461792 -4.68060303 162.98895264 C-5.35535549 162.99263981 -6.03010796 162.99632698 -6.72530746 163.00012589 C-9.67484497 162.24753661 -10.83734663 160.91613548 -12.65429688 158.50793457 C-13.15766144 155.62184143 -13.15766144 155.62184143 -13.16223145 152.20739746 C-13.17915039 150.26415085 -13.17915039 150.26415085 -13.19641113 148.28164673 C-13.18863408 146.84795919 -13.18044142 145.41427386 -13.171875 143.98059082 C-13.17729571 142.46926194 -13.18441808 140.95793834 -13.19311523 139.44662476 C-13.2113579 135.34328646 -13.20427735 131.24035022 -13.19159889 127.13700485 C-13.18147603 122.84405173 -13.19086258 118.55113317 -13.19714355 114.25817871 C-13.20442206 107.04872452 -13.19482699 99.8394342 -13.17578125 92.63000488 C-13.15401205 84.29335301 -13.16106328 75.95709241 -13.18308687 67.62045002 C-13.20123515 60.46449336 -13.20380202 53.30865454 -13.1933322 46.1526823 C-13.18709408 41.87797824 -13.18627027 37.60345813 -13.19947815 33.32876587 C-13.21102779 29.30999549 -13.20302762 25.29172988 -13.17990112 21.27301407 C-13.17460922 19.79759688 -13.1761361 18.32213725 -13.18495178 16.84673691 C-13.1958699 14.8339972 -13.17975503 12.82116472 -13.16223145 10.80847168 C-13.16072334 9.68170517 -13.15921524 8.55493866 -13.15766144 7.39402771 C-12.65429688 4.50793457 -12.65429688 4.50793457 -11.16344452 2.14589691 C-7.55619226 -0.20890408 -4.16764049 -0.0450175 0 0 Z " fill="#22A7D2" transform="translate(28.654296875,29.4920654296875)"/>
<path d="M0 0 C1.32396412 -0.00935994 1.32396412 -0.00935994 2.67467499 -0.01890898 C5.63820449 -0.03488939 8.60091723 -0.02221496 11.56445312 -0.00964355 C13.68660971 -0.01506242 15.80876253 -0.02218375 17.9309082 -0.03088379 C23.69944448 -0.04914793 29.46769519 -0.04203675 35.23623657 -0.02936745 C41.26687401 -0.01925584 47.29748663 -0.02862801 53.328125 -0.03491211 C63.45642497 -0.04219387 73.58460835 -0.03258689 83.71289062 -0.0135498 C95.43046156 0.00821986 107.14775411 0.00116887 118.8653183 -0.02085543 C128.9172072 -0.03899431 138.96901219 -0.04157513 149.02091217 -0.03110075 C155.02822942 -0.02485753 161.03541572 -0.024053 167.04272461 -0.0372467 C172.68986066 -0.04878253 178.33663703 -0.04082075 183.98373413 -0.01766968 C186.05902509 -0.01237048 188.1343462 -0.01391694 190.20962524 -0.02272034 C193.03729732 -0.0336115 195.86380863 -0.01999008 198.69140625 0 C199.51747124 -0.00892289 200.34353622 -0.01784577 201.19463348 -0.02703905 C204.65407625 0.02057263 206.92659237 0.23434061 209.85485077 2.14589691 C211.79056133 5.21274738 211.84879093 7.18724854 211.8536377 10.80847168 C211.86491699 12.10396942 211.87619629 13.39946716 211.88781738 14.73422241 C211.88004033 16.16790995 211.87184767 17.60159528 211.86328125 19.03527832 C211.86870196 20.5466072 211.87582433 22.0579308 211.88452148 23.56924438 C211.90276415 27.67258269 211.8956836 31.77551892 211.88300514 35.87886429 C211.87288228 40.17181741 211.88226883 44.46473597 211.8885498 48.75769043 C211.89582831 55.96714462 211.88623324 63.17643494 211.8671875 70.38586426 C211.8454183 78.72251614 211.85246953 87.05877673 211.87449312 95.39541912 C211.8926414 102.55137578 211.89520827 109.7072146 211.88473845 116.86318684 C211.87850033 121.1378909 211.87767652 125.41241101 211.8908844 129.68710327 C211.90243404 133.70587365 211.89443387 137.72413926 211.87130737 141.74285507 C211.86601547 143.21827226 211.86754235 144.69373189 211.87635803 146.16913223 C211.88727615 148.18187194 211.87116128 150.19470442 211.8536377 152.20739746 C211.85212959 153.33416397 211.85062149 154.46093048 211.84906769 155.62184143 C211.22665722 159.19049664 210.23568071 160.37458103 207.34570312 162.50793457 C205.41671371 163.00012589 205.41671371 163.00012589 203.37200928 162.98895264 C202.59240845 162.99445129 201.81280762 162.99994995 201.00958252 163.00561523 C199.74075226 162.98404358 199.74075226 162.98404358 198.44628906 162.96203613 C197.54837646 162.96262024 196.65046387 162.96320435 195.7253418 162.96380615 C192.75985953 162.96102125 189.79538461 162.92990991 186.83007812 162.89855957 C184.77313791 162.89109863 182.71619059 162.88540501 180.65924072 162.88140869 C175.24707391 162.86614085 169.83533691 162.82684883 164.42333984 162.78259277 C158.90012425 162.74166506 153.37683917 162.723403 147.85351562 162.70324707 C137.01735896 162.66035581 126.18163404 162.58999626 115.34570312 162.50793457 C115.34570312 169.10793457 115.34570312 175.70793457 115.34570312 182.50793457 C117.57449219 182.4383252 119.80328125 182.36871582 122.09960938 182.29699707 C124.2773731 182.25009821 126.45507891 182.21372831 128.63305664 182.17834473 C130.13754785 182.14831625 131.64186609 182.10747851 133.14575195 182.05529785 C147.24716404 181.5785514 147.24716404 181.5785514 151.84179688 185.23059082 C153.65568756 187.24357795 154.31263293 188.39200917 155.06445312 191.02746582 C154.99226562 191.78414551 154.92007813 192.5408252 154.84570312 193.32043457 C154.79414063 194.09000488 154.74257812 194.8595752 154.68945312 195.65246582 C154.34570312 197.50793457 154.34570312 197.50793457 153.34570312 198.50793457 C151.94158996 198.60340387 150.53270504 198.62981986 149.12535095 198.62818909 C148.21524765 198.62956375 147.30514435 198.63093842 146.36746216 198.63235474 C145.36117767 198.62875946 144.35489319 198.62516418 143.31811523 198.62145996 C142.26458359 198.62160599 141.21105194 198.62175201 140.12559509 198.62190247 C136.62472512 198.62120283 133.12390761 198.61340805 129.62304688 198.60559082 C127.20308969 198.60372682 124.78313213 198.60230283 122.36317444 198.6013031 C115.97955288 198.59747649 109.59595391 198.58764498 103.21234131 198.57659912 C96.70406398 198.56638808 90.19578302 198.56180614 83.6875 198.5567627 C70.90689138 198.54602284 58.12629845 198.52913569 45.34570312 198.50793457 C45.27733948 196.74091051 45.22843591 194.97312584 45.18783569 193.20524597 C45.15853155 192.2209344 45.12922741 191.23662283 45.09903526 190.22248363 C45.36813779 187.26104384 45.70533358 186.32181244 47.87158203 184.35095215 C51.91909225 182.20375224 54.36887525 181.92839801 58.93164062 182.01965332 C59.98431625 182.03026543 59.98431625 182.03026543 61.05825806 182.04109192 C63.28019904 182.0688836 65.49953577 182.13158023 67.72070312 182.19543457 C69.23498941 182.22053771 70.74931556 182.24334735 72.26367188 182.26379395 C75.95947056 182.3143936 79.64970429 182.4122384 83.34570312 182.50793457 C83.34570312 175.90793457 83.34570312 169.30793457 83.34570312 162.50793457 C80.57969727 162.52888184 77.81369141 162.5498291 74.96386719 162.57141113 C65.83164727 162.63764853 56.69941681 162.68185696 47.56702042 162.71518326 C42.02925169 162.73607043 36.4917288 162.764409 30.95410156 162.80969238 C25.61136199 162.85310937 20.26885908 162.87706316 14.92595673 162.88744354 C12.88614933 162.89484234 10.84635508 162.90929025 8.80664825 162.9308548 C5.9525184 162.95983344 3.09937016 162.96389287 0.24511719 162.96203613 C-0.60076965 162.97641724 -1.44665649 162.99079834 -2.31817627 163.00561523 C-3.0977771 163.00011658 -3.87737793 162.99461792 -4.68060303 162.98895264 C-5.35535549 162.99263981 -6.03010796 162.99632698 -6.72530746 163.00012589 C-9.67484497 162.24753661 -10.83734663 160.91613548 -12.65429688 158.50793457 C-13.15766144 155.62184143 -13.15766144 155.62184143 -13.16223145 152.20739746 C-13.17915039 150.26415085 -13.17915039 150.26415085 -13.19641113 148.28164673 C-13.18863408 146.84795919 -13.18044142 145.41427386 -13.171875 143.98059082 C-13.17729571 142.46926194 -13.18441808 140.95793834 -13.19311523 139.44662476 C-13.2113579 135.34328646 -13.20427735 131.24035022 -13.19159889 127.13700485 C-13.18147603 122.84405173 -13.19086258 118.55113317 -13.19714355 114.25817871 C-13.20442206 107.04872452 -13.19482699 99.8394342 -13.17578125 92.63000488 C-13.15401205 84.29335301 -13.16106328 75.95709241 -13.18308687 67.62045002 C-13.20123515 60.46449336 -13.20380202 53.30865454 -13.1933322 46.1526823 C-13.18709408 41.87797824 -13.18627027 37.60345813 -13.19947815 33.32876587 C-13.21102779 29.30999549 -13.20302762 25.29172988 -13.17990112 21.27301407 C-13.17460922 19.79759688 -13.1761361 18.32213725 -13.18495178 16.84673691 C-13.1958699 14.8339972 -13.17975503 12.82116472 -13.16223145 10.80847168 C-13.16072334 9.68170517 -13.15921524 8.55493866 -13.15766144 7.39402771 C-12.65429688 4.50793457 -12.65429688 4.50793457 -11.16344452 2.14589691 C-7.55619226 -0.20890408 -4.16764049 -0.0450175 0 0 Z M-8.65429688 8.50793457 C-8.95956416 11.17875775 -8.95956416 11.17875775 -8.90826416 14.3536377 C-8.91390381 15.5987915 -8.91954346 16.84394531 -8.925354 18.12683105 C-8.92146505 19.5142828 -8.91736869 20.90173398 -8.91308594 22.28918457 C-8.91579476 23.74434586 -8.91935507 25.19950578 -8.92370605 26.65466309 C-8.93284535 30.6132644 -8.9292795 34.57176179 -8.92294788 38.53036499 C-8.91789584 42.66677131 -8.92257711 46.80316854 -8.92572021 50.9395752 C-8.92936219 57.88685713 -8.92455472 64.83409658 -8.91503906 71.78137207 C-8.90415406 79.82140761 -8.90767947 87.86134173 -8.91869187 95.90137482 C-8.92775818 102.79566569 -8.92905325 109.68992598 -8.92381454 116.58422089 C-8.92069121 120.70570031 -8.92029539 124.82713201 -8.92688751 128.9486084 C-8.93265083 132.82275151 -8.92868281 136.69676344 -8.917099 140.57089233 C-8.91444696 141.99555239 -8.91522674 143.42022342 -8.91962433 144.84487915 C-8.92505957 146.78399266 -8.91704689 148.72313021 -8.90826416 150.66223145 C-8.90751011 151.74919312 -8.90675606 152.83615479 -8.90597916 153.95605469 C-8.91022958 156.67486191 -8.91022958 156.67486191 -6.65429688 158.50793457 C-3.86334002 158.70792108 -1.17126256 158.7815371 1.62109375 158.76863098 C2.92010998 158.7743693 2.92010998 158.7743693 4.24536896 158.78022355 C7.16429105 158.79059084 10.0830178 158.78655438 13.00195312 158.78259277 C15.08764835 158.78693716 17.17334197 158.79211938 19.2590332 158.79808044 C24.93657182 158.81151033 30.61404404 158.81204475 36.29159546 158.80951715 C41.02357778 158.80845025 45.75554652 158.81332349 50.48752594 158.81812257 C61.6459911 158.8292313 72.8044226 158.82964732 83.96289062 158.8236084 C95.49295986 158.81756456 107.02290719 158.82988694 118.55295563 158.85117847 C128.43660514 158.8687619 138.32021573 158.87480104 148.20388031 158.87154073 C154.11389986 158.8697227 160.02383243 158.87241561 165.93383789 158.88625526 C171.4889461 158.89877631 177.04386343 158.89694408 182.59896851 158.88384438 C184.64285342 158.8814666 186.68675154 158.88425586 188.73062134 158.8924675 C191.51074399 158.90283554 194.29021426 158.89491515 197.0703125 158.88215637 C197.88800362 158.88953066 198.70569473 158.89690494 199.54816437 158.90450269 C202.01715919 158.91616299 202.01715919 158.91616299 205.34570312 158.50793457 C207.6662218 155.02715656 207.59679812 153.68873716 207.59967041 149.5799408 C207.60531006 148.34182648 207.61094971 147.10371216 207.61676025 145.82807922 C207.61287156 144.45370425 207.60877522 143.07932985 207.60449219 141.70495605 C207.60720182 140.25949934 207.6107626 138.81404401 207.6151123 137.36859131 C207.62424106 133.44103963 207.62069028 129.51359285 207.61435413 125.5860393 C207.60929763 121.48033534 207.61398452 117.37464047 207.61712646 113.26893616 C207.62076672 106.3747089 207.61596503 99.48052447 207.60644531 92.58630371 C207.59555633 84.6081631 207.5990893 76.63012468 207.61009812 68.65198654 C207.61916417 61.80863043 207.62045976 54.96530514 207.61522079 48.12194496 C207.61209787 44.03177945 207.6117006 39.94166201 207.61829376 35.85149956 C207.62405686 32.00771152 207.62008949 28.16405569 207.60850525 24.32028198 C207.60585327 22.906909 207.60663288 21.49352495 207.61103058 20.08015633 C207.61646595 18.15642307 207.60845302 16.23266559 207.59967041 14.3089447 C207.59891636 13.23065619 207.59816231 12.15236769 207.59738541 11.04140377 C207.5991437 8.33888102 207.5991437 8.33888102 205.34570312 6.50793457 C202.55461077 6.31013366 199.86263015 6.23873199 197.0703125 6.25396729 C195.77129627 6.24928731 195.77129627 6.24928731 194.44603729 6.2445128 C191.52710786 6.23649804 188.60838432 6.24286992 185.68945312 6.24914551 C183.60375852 6.24643719 181.51806487 6.24287716 179.43237305 6.23852539 C173.7548286 6.2293802 168.07735656 6.2329544 162.39981079 6.23928356 C156.46966348 6.24433256 150.53952254 6.23965519 144.609375 6.23651123 C134.64907717 6.23286836 124.68880896 6.23767908 114.72851562 6.24719238 C103.19846981 6.25807753 91.66849472 6.25455218 80.13845062 6.24353957 C70.25480289 6.23447581 60.37117649 6.23317695 50.48752594 6.23841691 C44.57752828 6.24154164 38.66756391 6.24193222 32.75756836 6.23534393 C27.20249099 6.22958433 21.64750518 6.23354188 16.09243774 6.24513245 C14.04855502 6.24778647 12.00466464 6.24700138 9.96078491 6.24260712 C7.18078235 6.2371794 4.40107713 6.24395183 1.62109375 6.25396729 C0.80340263 6.24950584 -0.01428848 6.2450444 -0.85675812 6.24044776 C-5.22271688 6.09947396 -5.22271688 6.09947396 -8.65429688 8.50793457 Z " fill="#505559" transform="translate(28.654296875,29.4920654296875)"/>
<path d="M0 0 C10.56 0 21.12 0 32 0 C32 6.6 32 13.2 32 20 C34.22878906 19.93039063 36.45757812 19.86078125 38.75390625 19.7890625 C40.93166998 19.74216364 43.10937578 19.70579374 45.28735352 19.67041016 C46.79184472 19.64038168 48.29616297 19.59954394 49.80004883 19.54736328 C63.90146092 19.07061683 63.90146092 19.07061683 68.49609375 22.72265625 C70.30998443 24.73564338 70.96692981 25.8840746 71.71875 28.51953125 C71.6465625 29.27621094 71.574375 30.03289062 71.5 30.8125 C71.42265625 31.96685547 71.42265625 31.96685547 71.34375 33.14453125 C71 35 71 35 70 36 C68.59588683 36.0954693 67.18700191 36.12188529 65.77964783 36.12025452 C64.86954453 36.12162918 63.95944122 36.12300385 63.02175903 36.12442017 C62.01547455 36.12082489 61.00919006 36.11722961 59.97241211 36.11352539 C58.91888046 36.11367142 57.86534882 36.11381744 56.77989197 36.1139679 C53.279022 36.11326826 49.77820448 36.10547348 46.27734375 36.09765625 C43.85738657 36.09579225 41.43742901 36.09436826 39.01747131 36.09336853 C32.63384976 36.08954192 26.25025079 36.07971041 19.86663818 36.06866455 C13.35836086 36.05845351 6.8500799 36.05387157 0.34179688 36.04882812 C-12.43881175 36.03808827 -25.21940467 36.02120112 -38 36 C-38.06836364 34.23297594 -38.11726721 32.46519127 -38.15786743 30.6973114 C-38.18717157 29.71299983 -38.21647572 28.72868826 -38.24666786 27.71454906 C-37.97756533 24.75310927 -37.64036955 23.81387787 -35.47412109 21.84301758 C-31.42661088 19.69581767 -28.97682788 19.42046344 -24.4140625 19.51171875 C-23.71227875 19.51879349 -23.010495 19.52586823 -22.28744507 19.53315735 C-20.06550409 19.56094903 -17.84616735 19.62364566 -15.625 19.6875 C-14.11071372 19.71260314 -12.59638757 19.73541278 -11.08203125 19.75585938 C-7.38623256 19.80645903 -3.69599884 19.90430383 0 20 C0 13.4 0 6.8 0 0 Z " fill="#8F98A0" transform="translate(112,192)"/>
<path d="M0 0 C0.33 0 0.66 0 1 0 C1.02689216 1.47906892 1.04634621 2.95827483 1.0625 4.4375 C1.07410156 5.26121094 1.08570313 6.08492187 1.09765625 6.93359375 C1 9 1 9 0 10 C-1.40411317 10.0954693 -2.81299809 10.12188529 -4.22035217 10.12025452 C-5.13045547 10.12162918 -6.04055878 10.12300385 -6.97824097 10.12442017 C-7.98452545 10.12082489 -8.99080994 10.11722961 -10.02758789 10.11352539 C-11.08111954 10.11367142 -12.13465118 10.11381744 -13.22010803 10.1139679 C-16.720978 10.11326826 -20.22179552 10.10547348 -23.72265625 10.09765625 C-26.14261343 10.09579225 -28.56257099 10.09436826 -30.98252869 10.09336853 C-37.36615024 10.08954192 -43.74974921 10.07971041 -50.13336182 10.06866455 C-56.64163914 10.05845351 -63.1499201 10.05387157 -69.65820312 10.04882812 C-82.43881175 10.03808827 -95.21940467 10.02120112 -108 10 C-108 7.36 -108 4.72 -108 2 C-72.36 2 -36.72 2 0 2 C0 1.34 0 0.68 0 0 Z " fill="#44484C" transform="translate(182,218)"/>
<path d="M0 0 C0.7031987 0.00565979 1.4063974 0.01131958 2.13090515 0.01715088 C4.36272123 0.03942731 6.59289336 0.08960127 8.82421875 0.140625 C10.34307566 0.16070157 11.86195791 0.17895032 13.38085938 0.1953125 C17.0916742 0.23926143 20.80153585 0.30822579 24.51171875 0.390625 C24.51171875 1.710625 24.51171875 3.030625 24.51171875 4.390625 C35.07171875 4.390625 45.63171875 4.390625 56.51171875 4.390625 C56.51171875 3.070625 56.51171875 1.750625 56.51171875 0.390625 C60.95905174 0.26647252 65.40545135 0.17603043 69.85400391 0.1159668 C71.36525049 0.09091405 72.87637699 0.05686123 74.38720703 0.01342773 C76.56703376 -0.0476419 78.74525137 -0.07567416 80.92578125 -0.09765625 C82.8895874 -0.13693237 82.8895874 -0.13693237 84.89306641 -0.17700195 C89.64292071 0.56806695 91.22780804 1.9362658 94.51171875 5.390625 C94.51171875 6.380625 94.51171875 7.370625 94.51171875 8.390625 C58.87171875 8.390625 23.23171875 8.390625 -13.48828125 8.390625 C-11.61045674 0.87932694 -7.23073758 -0.11523088 0 0 Z " fill="#C0C9D2" transform="translate(87.48828125,211.609375)"/>
<path d="M0 0 C1.32396412 -0.00935994 1.32396412 -0.00935994 2.67467499 -0.01890898 C5.63820449 -0.03488939 8.60091723 -0.02221496 11.56445312 -0.00964355 C13.68660971 -0.01506242 15.80876253 -0.02218375 17.9309082 -0.03088379 C23.69944448 -0.04914793 29.46769519 -0.04203675 35.23623657 -0.02936745 C41.26687401 -0.01925584 47.29748663 -0.02862801 53.328125 -0.03491211 C63.45642497 -0.04219387 73.58460835 -0.03258689 83.71289062 -0.0135498 C95.43046156 0.00821986 107.14775411 0.00116887 118.8653183 -0.02085543 C128.9172072 -0.03899431 138.96901219 -0.04157513 149.02091217 -0.03110075 C155.02822942 -0.02485753 161.03541572 -0.024053 167.04272461 -0.0372467 C172.68986066 -0.04878253 178.33663703 -0.04082075 183.98373413 -0.01766968 C186.05902509 -0.01237048 188.1343462 -0.01391694 190.20962524 -0.02272034 C193.03729732 -0.0336115 195.86380863 -0.01999008 198.69140625 0 C199.51747124 -0.00892289 200.34353622 -0.01784577 201.19463348 -0.02703905 C204.92787848 0.02434092 206.92205125 0.16917462 209.88659668 2.53968048 C210.60885437 3.51396626 210.60885437 3.51396626 211.34570312 4.50793457 C211.01570312 5.49793457 210.68570313 6.48793457 210.34570312 7.50793457 C210.01570312 6.51793457 209.68570313 5.52793457 209.34570312 4.50793457 C205.51525008 3.23111689 201.9164476 3.37005833 197.92555237 3.38095093 C197.0560147 3.37939094 196.18647704 3.37783095 195.29058975 3.37622368 C192.36566584 3.37222278 189.44079348 3.37539985 186.51586914 3.37854004 C184.42342091 3.37718559 182.33097293 3.37540541 180.23852539 3.37322998 C174.54646131 3.36866061 168.8544153 3.37044326 163.16235089 3.37360907 C157.21312742 3.37613555 151.26390553 3.37379429 145.31468201 3.3722229 C135.32168296 3.37040191 125.32869129 3.37280553 115.33569336 3.37756348 C103.77444255 3.38300447 92.21320938 3.38124433 80.651959 3.37573707 C70.73599298 3.37120217 60.82003227 3.37055729 50.90406555 3.37317574 C44.97726047 3.37473662 39.05046368 3.37493745 33.12365913 3.37163925 C27.5513514 3.36875514 21.97906644 3.37074625 16.40676117 3.37653351 C14.35887884 3.37785826 12.3109946 3.3774718 10.26311302 3.37527084 C7.47299511 3.37254816 4.68295072 3.3759543 1.89283752 3.38095093 C0.67022613 3.37760485 0.67022613 3.37760485 -0.57708448 3.37419116 C-5.71346322 3.33414487 -5.71346322 3.33414487 -10.65429688 4.50793457 C-10.98429687 5.49793457 -11.31429688 6.48793457 -11.65429688 7.50793457 C-11.98429687 6.51793457 -12.31429688 5.52793457 -12.65429688 4.50793457 C-9.16209043 -0.20285925 -5.45170629 -0.05888757 0 0 Z " fill="#C3CCD4" transform="translate(28.654296875,29.4920654296875)"/>
<path d="M0 0 C0.33 0 0.66 0 1 0 C1 2.97 1 5.94 1 9 C0.01 9.33 -0.98 9.66 -2 10 C-2 7.36 -2 4.72 -2 2 C-1.34 2 -0.68 2 0 2 C0 1.34 0 0.68 0 0 Z " fill="#333538" transform="translate(182,218)"/>
</svg>
