<?xml version="1.0" encoding="UTF-8"?>
<svg version="1.1" xmlns="http://www.w3.org/2000/svg" width="256" height="256">
<path d="M0 0 C0.84326363 -0.00507454 1.68652727 -0.01014909 2.55534434 -0.0153774 C3.48703543 -0.01587516 4.41872652 -0.01637292 5.37865067 -0.01688576 C6.36434579 -0.02126801 7.35004092 -0.02565027 8.36560559 -0.03016531 C11.689719 -0.04358834 15.01380589 -0.04974002 18.33794022 -0.0558567 C20.71270748 -0.06375488 23.08747353 -0.07202365 25.46223831 -0.08063698 C32.60423791 -0.10462209 39.74624283 -0.11978948 46.88826931 -0.13269705 C48.90513426 -0.13640839 50.92199853 -0.14038167 52.9388628 -0.14444971 C65.46033353 -0.16968589 77.98180534 -0.19174144 90.5032959 -0.20417786 C93.40423207 -0.20710761 96.3051682 -0.21006926 99.20610428 -0.21308327 C99.92712819 -0.21382932 100.6481521 -0.21457537 101.39102522 -0.21534403 C113.07193243 -0.22799842 124.75268745 -0.26122198 136.43352351 -0.3028851 C148.4230484 -0.34529906 160.41249536 -0.36887226 172.40209508 -0.37409842 C179.13503305 -0.3775132 185.86773321 -0.38927584 192.60059738 -0.42220116 C198.93386862 -0.45220285 205.2667248 -0.45862156 211.60005188 -0.4468174 C213.92608179 -0.44659601 216.25213052 -0.45495483 218.57809448 -0.47247124 C221.75121176 -0.49506885 224.92281203 -0.48691057 228.09593582 -0.47098732 C229.01870402 -0.48486941 229.94147222 -0.49875149 230.89220309 -0.51305425 C235.23206924 -0.45931043 238.0999062 -0.22995791 241.54721832 2.5500145 C245.32558621 6.54938786 245.12189032 8.65330136 245.14516068 14.09471703 C245.14954293 14.8190648 245.15392518 15.54341258 245.15844023 16.28971028 C245.17184959 18.72937412 245.17801187 21.16900182 245.18413162 23.60869408 C245.19203092 25.35292793 245.20029976 27.09716013 245.2089119 28.84139061 C245.23515241 34.58054095 245.25044177 40.31969865 245.26469803 46.05888939 C245.27005691 48.03310463 245.27543442 50.00731982 245.28083038 51.98153496 C245.30246227 60.19280299 245.32119954 68.40406903 245.33245277 76.61535835 C245.34869512 88.39048481 245.3818763 100.16528144 245.43885362 111.94028354 C245.47753326 120.21550847 245.49708314 128.4906451 245.50237334 136.76595807 C245.50602957 141.7104186 245.5180796 146.6545275 245.55047607 151.5988903 C245.58052184 156.25125582 245.58688106 160.90305632 245.57509232 165.55549812 C245.57487129 167.26231173 245.58320072 168.96915128 245.60074615 170.67587471 C245.62341798 173.00838941 245.61515436 175.33885181 245.59926224 177.67137718 C245.60422746 179.6281344 245.60422746 179.6281344 245.60929298 181.62442207 C244.79748223 186.23835485 243.26858596 187.84841686 239.99126053 191.13701439 C237.72623691 192.2695262 236.49665414 192.26601437 233.98252106 192.27402878 C233.13925742 192.27910332 232.29599379 192.28417786 231.42717671 192.28940618 C230.02964008 192.29015282 230.02964008 192.29015282 228.60387039 192.29091454 C227.61817527 192.29529679 226.63248014 192.29967904 225.61691546 192.30419409 C222.29280205 192.31761712 218.96871517 192.3237688 215.64458084 192.32988548 C213.26981358 192.33778365 210.89504752 192.34605242 208.52028275 192.35466576 C201.37828315 192.37865087 194.23627823 192.39381826 187.09425175 192.40672582 C185.07738679 192.41043717 183.06052253 192.41441045 181.04365826 192.41847849 C168.52218752 192.44371466 156.00071571 192.46577021 143.47922516 192.47820663 C140.57828899 192.48113639 137.67735286 192.48409804 134.77641678 192.48711205 C134.05539287 192.4878581 133.33436896 192.48860415 132.59149584 192.4893728 C120.91058863 192.5020272 109.22983361 192.53525076 97.54899755 192.57691388 C85.55947266 192.61932783 73.5700257 192.64290104 61.58042598 192.6481272 C54.847488 192.65154198 48.11478785 192.66330462 41.38192368 192.69622993 C35.04865243 192.72623163 28.71579625 192.73265034 22.38246918 192.72084618 C20.05643927 192.72062479 17.73039054 192.72898361 15.40442657 192.74650002 C12.23130929 192.76909763 9.05970903 192.76093934 5.88658524 192.7450161 C4.96381704 192.75889819 4.04104884 192.77278027 3.09031796 192.78708303 C-1.24954818 192.73333921 -4.11738514 192.50398669 -7.56469727 189.72401428 C-11.34306515 185.72464091 -11.13936926 183.62072742 -11.16263962 178.17931175 C-11.16702187 177.45496398 -11.17140413 176.7306162 -11.17591918 175.98431849 C-11.18932854 173.54465466 -11.19549082 171.10502696 -11.20161057 168.6653347 C-11.20950986 166.92110085 -11.21777871 165.17686864 -11.22639084 163.43263817 C-11.25263135 157.69348783 -11.26792071 151.95433012 -11.28217697 146.21513939 C-11.28753586 144.24092415 -11.29291336 142.26670896 -11.29830933 140.29249382 C-11.31994122 132.08122579 -11.33867849 123.86995975 -11.34993172 115.65867043 C-11.36617406 103.88354397 -11.39935524 92.10874734 -11.45633256 80.33374524 C-11.4950122 72.05852031 -11.51456208 63.78338367 -11.51985228 55.50807071 C-11.52350851 50.56361018 -11.53555855 45.61950128 -11.56795502 40.67513847 C-11.59800078 36.02277296 -11.60436001 31.37097246 -11.59257126 26.71853065 C-11.59235023 25.01171705 -11.60067966 23.3048775 -11.6182251 21.59815407 C-11.64089692 19.26563937 -11.6326333 16.93517697 -11.61674118 14.6026516 C-11.62005133 13.29814678 -11.62336147 11.99364197 -11.62677193 10.6496067 C-10.81496118 6.03567393 -9.2860649 4.42561192 -6.00873947 1.13701439 C-3.74371585 0.00450258 -2.51413308 0.00801441 0 0 Z " fill="#A1DAF3" transform="translate(11.008739471435547,31.862985610961914)"/>
<path d="M0 0 C0.84326363 -0.00507454 1.68652727 -0.01014909 2.55534434 -0.0153774 C3.48703543 -0.01587516 4.41872652 -0.01637292 5.37865067 -0.01688576 C6.36434579 -0.02126801 7.35004092 -0.02565027 8.36560559 -0.03016531 C11.689719 -0.04358834 15.01380589 -0.04974002 18.33794022 -0.0558567 C20.71270748 -0.06375488 23.08747353 -0.07202365 25.46223831 -0.08063698 C32.60423791 -0.10462209 39.74624283 -0.11978948 46.88826931 -0.13269705 C48.90513426 -0.13640839 50.92199853 -0.14038167 52.9388628 -0.14444971 C65.46033353 -0.16968589 77.98180534 -0.19174144 90.5032959 -0.20417786 C93.40423207 -0.20710761 96.3051682 -0.21006926 99.20610428 -0.21308327 C99.92712819 -0.21382932 100.6481521 -0.21457537 101.39102522 -0.21534403 C113.07193243 -0.22799842 124.75268745 -0.26122198 136.43352351 -0.3028851 C148.4230484 -0.34529906 160.41249536 -0.36887226 172.40209508 -0.37409842 C179.13503305 -0.3775132 185.86773321 -0.38927584 192.60059738 -0.42220116 C198.93386862 -0.45220285 205.2667248 -0.45862156 211.60005188 -0.4468174 C213.92608179 -0.44659601 216.25213052 -0.45495483 218.57809448 -0.47247124 C221.75121176 -0.49506885 224.92281203 -0.48691057 228.09593582 -0.47098732 C229.01870402 -0.48486941 229.94147222 -0.49875149 230.89220309 -0.51305425 C235.23206924 -0.45931043 238.0999062 -0.22995791 241.54721832 2.5500145 C245.32558621 6.54938786 245.12189032 8.65330136 245.14516068 14.09471703 C245.14954293 14.8190648 245.15392518 15.54341258 245.15844023 16.28971028 C245.17184959 18.72937412 245.17801187 21.16900182 245.18413162 23.60869408 C245.19203092 25.35292793 245.20029976 27.09716013 245.2089119 28.84139061 C245.23515241 34.58054095 245.25044177 40.31969865 245.26469803 46.05888939 C245.27005691 48.03310463 245.27543442 50.00731982 245.28083038 51.98153496 C245.30246227 60.19280299 245.32119954 68.40406903 245.33245277 76.61535835 C245.34869512 88.39048481 245.3818763 100.16528144 245.43885362 111.94028354 C245.47753326 120.21550847 245.49708314 128.4906451 245.50237334 136.76595807 C245.50602957 141.7104186 245.5180796 146.6545275 245.55047607 151.5988903 C245.58052184 156.25125582 245.58688106 160.90305632 245.57509232 165.55549812 C245.57487129 167.26231173 245.58320072 168.96915128 245.60074615 170.67587471 C245.62341798 173.00838941 245.61515436 175.33885181 245.59926224 177.67137718 C245.60422746 179.6281344 245.60422746 179.6281344 245.60929298 181.62442207 C244.79748223 186.23835485 243.26858596 187.84841686 239.99126053 191.13701439 C237.72623691 192.2695262 236.49665414 192.26601437 233.98252106 192.27402878 C233.13925742 192.27910332 232.29599379 192.28417786 231.42717671 192.28940618 C230.02964008 192.29015282 230.02964008 192.29015282 228.60387039 192.29091454 C227.61817527 192.29529679 226.63248014 192.29967904 225.61691546 192.30419409 C222.29280205 192.31761712 218.96871517 192.3237688 215.64458084 192.32988548 C213.26981358 192.33778365 210.89504752 192.34605242 208.52028275 192.35466576 C201.37828315 192.37865087 194.23627823 192.39381826 187.09425175 192.40672582 C185.07738679 192.41043717 183.06052253 192.41441045 181.04365826 192.41847849 C168.52218752 192.44371466 156.00071571 192.46577021 143.47922516 192.47820663 C140.57828899 192.48113639 137.67735286 192.48409804 134.77641678 192.48711205 C134.05539287 192.4878581 133.33436896 192.48860415 132.59149584 192.4893728 C120.91058863 192.5020272 109.22983361 192.53525076 97.54899755 192.57691388 C85.55947266 192.61932783 73.5700257 192.64290104 61.58042598 192.6481272 C54.847488 192.65154198 48.11478785 192.66330462 41.38192368 192.69622993 C35.04865243 192.72623163 28.71579625 192.73265034 22.38246918 192.72084618 C20.05643927 192.72062479 17.73039054 192.72898361 15.40442657 192.74650002 C12.23130929 192.76909763 9.05970903 192.76093934 5.88658524 192.7450161 C4.96381704 192.75889819 4.04104884 192.77278027 3.09031796 192.78708303 C-1.24954818 192.73333921 -4.11738514 192.50398669 -7.56469727 189.72401428 C-11.34306515 185.72464091 -11.13936926 183.62072742 -11.16263962 178.17931175 C-11.16702187 177.45496398 -11.17140413 176.7306162 -11.17591918 175.98431849 C-11.18932854 173.54465466 -11.19549082 171.10502696 -11.20161057 168.6653347 C-11.20950986 166.92110085 -11.21777871 165.17686864 -11.22639084 163.43263817 C-11.25263135 157.69348783 -11.26792071 151.95433012 -11.28217697 146.21513939 C-11.28753586 144.24092415 -11.29291336 142.26670896 -11.29830933 140.29249382 C-11.31994122 132.08122579 -11.33867849 123.86995975 -11.34993172 115.65867043 C-11.36617406 103.88354397 -11.39935524 92.10874734 -11.45633256 80.33374524 C-11.4950122 72.05852031 -11.51456208 63.78338367 -11.51985228 55.50807071 C-11.52350851 50.56361018 -11.53555855 45.61950128 -11.56795502 40.67513847 C-11.59800078 36.02277296 -11.60436001 31.37097246 -11.59257126 26.71853065 C-11.59235023 25.01171705 -11.60067966 23.3048775 -11.6182251 21.59815407 C-11.64089692 19.26563937 -11.6326333 16.93517697 -11.61674118 14.6026516 C-11.62005133 13.29814678 -11.62336147 11.99364197 -11.62677193 10.6496067 C-10.81496118 6.03567393 -9.2860649 4.42561192 -6.00873947 1.13701439 C-3.74371585 0.00450258 -2.51413308 0.00801441 0 0 Z M6.99126053 16.13701439 C4.6355288 19.67061198 4.73626506 21.13706397 4.72383499 25.32402611 C4.71530502 26.61959435 4.70677505 27.91516258 4.6979866 29.24999046 C4.69868565 30.68889439 4.69960872 32.12779823 4.70073318 33.56670189 C4.69475002 35.07950231 4.68794497 36.59229967 4.68037796 38.105093 C4.66269171 42.2165722 4.65802155 46.32796818 4.65674639 50.43948174 C4.6548488 53.86911146 4.64749312 57.29872172 4.6404022 60.72834396 C4.62411159 68.8170514 4.61923396 76.90571431 4.62065506 84.99443626 C4.62185752 93.34639836 4.60073659 101.69810246 4.56916773 110.04999924 C4.54304655 117.21524017 4.53228597 124.38039661 4.53356588 131.54568481 C4.53407663 135.82766472 4.52833116 140.10941529 4.50720978 144.39134789 C4.48789647 148.41662641 4.48765501 152.44145514 4.50224304 156.46674919 C4.50434071 157.94582587 4.49957352 159.4249302 4.48752213 160.90395927 C4.47216175 162.9192509 4.48373482 164.93469475 4.49678421 166.95000267 C4.49569468 168.07898979 4.49460514 169.20797691 4.49348259 170.37117577 C4.76893328 173.16302698 4.76893328 173.16302698 6.48364449 175.00031376 C10.14282664 176.65901852 13.66661958 176.54658377 17.60759354 176.51123619 C18.48615273 176.5152106 19.36471192 176.519185 20.26989412 176.52327985 C23.21949762 176.53291917 26.16862346 176.52107478 29.11821365 176.50932884 C31.23051508 176.51175626 33.34281536 176.5154751 35.45511246 176.52039146 C41.19675774 176.52981084 46.93823287 176.52036616 52.67986488 176.50705934 C58.68246747 176.49575853 64.6850615 176.49985128 70.68767166 176.50180626 C80.76887676 176.50268967 90.85001468 176.49159902 100.93120193 176.47319603 C112.59417396 176.45202772 124.25704754 176.44851827 135.92003489 176.45475799 C147.12949457 176.46044853 158.3389195 176.45480963 169.54837418 176.44358444 C174.32341528 176.43893436 179.09843517 176.43806638 183.87347794 176.44017029 C189.49425742 176.44205103 195.11493641 176.4339657 200.73569298 176.41810989 C202.80131044 176.41385977 204.86693809 176.41302136 206.93255806 176.41580009 C209.74679228 176.41901209 212.56072437 176.4099648 215.37492752 176.3977108 C216.19710156 176.40149012 217.0192756 176.40526945 217.866364 176.4091633 C223.25323881 176.40663974 223.25323881 176.40663974 227.99126053 174.13701439 C229.36573224 171.38807096 229.12354577 169.18625978 229.13170242 166.10822105 C229.13741257 164.82244164 229.14312271 163.53666222 229.14900589 162.21191978 C229.1502513 160.77882967 229.15137638 159.34573945 229.15239334 157.91264915 C229.15702043 156.40985047 229.16204494 154.90705295 229.16743851 153.40425682 C229.18057354 149.3154617 229.1870094 145.226683 229.19144917 141.13787007 C229.19437761 138.58532059 229.19848194 136.03277563 229.20295334 133.48022842 C229.21663007 125.49948826 229.22629633 117.51875839 229.23015523 109.53800732 C229.23463907 100.31468021 229.25220128 91.09150106 229.28115582 81.86821896 C229.30274286 74.74546997 229.31285788 67.62276271 229.31419635 60.49998134 C229.31524636 56.24261317 229.32119573 51.98538406 229.33901596 47.72805023 C229.35544572 43.72501641 229.35767717 39.72222696 229.34887695 35.71917152 C229.34810388 34.24815849 229.35248476 32.7771326 229.36233521 31.30615234 C229.37497307 29.30173817 229.3674161 27.29722666 229.3587532 25.29279137 C229.36021976 24.16987977 229.36168633 23.04696817 229.36319733 21.89002895 C228.93522517 18.72224992 228.44267431 18.07087397 225.99126053 16.13701439 C223.03435026 15.84198971 220.28798686 15.73255293 217.32986832 15.75606346 C215.98669315 15.7490435 215.98669315 15.7490435 214.61638314 15.74188173 C211.60374223 15.72987701 208.59155162 15.73941031 205.57890701 15.7488308 C203.4240988 15.74476756 201.26929267 15.73942708 199.11449051 15.73290062 C193.25309885 15.71919258 187.39186512 15.72453986 181.53047061 15.73403788 C175.40680553 15.74161544 169.28315427 15.73459426 163.15948868 15.72987938 C152.87560464 15.72441668 142.59178516 15.73162737 132.30791092 15.74590111 C120.40347924 15.7622329 108.49920166 15.75693728 96.59477371 15.74042189 C86.38838358 15.72682684 76.18203995 15.72487752 65.97564369 15.7327379 C59.87338074 15.73742477 53.77119031 15.73801141 47.66893196 15.72812843 C41.93405153 15.71948969 36.19937064 15.72542392 30.46451187 15.7428112 C28.35451527 15.74679244 26.24450201 15.74561424 24.13451195 15.73902321 C21.26466764 15.7308822 18.39547157 15.74103858 15.5256691 15.75606346 C14.25930065 15.74602521 14.25930065 15.74602521 12.96734899 15.73578417 C10.42066093 15.72609175 10.42066093 15.72609175 6.99126053 16.13701439 Z " fill="#27AEE9" transform="translate(11.008739471435547,31.862985610961914)"/>
<path d="M0 0 C0 17.16 0 34.32 0 52 C17.16 52 34.32 52 52 52 C52 50.68 52 49.36 52 48 C53.28777344 47.93941406 54.57554687 47.87882812 55.90234375 47.81640625 C57.58074159 47.73201753 59.25912636 47.6473687 60.9375 47.5625 C61.78763672 47.52318359 62.63777344 47.48386719 63.51367188 47.44335938 C64.32255859 47.40146484 65.13144531 47.35957031 65.96484375 47.31640625 C66.7137085 47.27974854 67.46257324 47.24309082 68.23413086 47.20532227 C70.02461326 47.18228937 70.02461326 47.18228937 71 46 C71.08535068 43.86339421 71.10818053 41.72424564 71.10546875 39.5859375 C71.12029297 38.26722656 71.13511719 36.94851562 71.15039062 35.58984375 C71.17311898 33.48954784 71.18759514 31.39092822 71.17504883 29.29052734 C71.11734507 16.1309515 71.11734507 16.1309515 74.92578125 11.6015625 C79.05655942 7.68260289 82.62887834 7.87579915 88.125 7.9375 C88.87910156 7.94201172 89.63320312 7.94652344 90.41015625 7.95117188 C92.27347127 7.96296501 94.13674555 7.98090058 96 8 C96 10.64 96 13.28 96 16 C95.00097656 16.06058594 94.00195312 16.12117188 92.97265625 16.18359375 C91.68230469 16.26738281 90.39195312 16.35117188 89.0625 16.4375 C87.77472656 16.51871094 86.48695313 16.59992188 85.16015625 16.68359375 C82.13976043 16.64919188 82.13976043 16.64919188 81 18 C80.87797367 20.08615908 80.82021909 22.17613238 80.7890625 24.265625 C80.76070312 25.54824219 80.73234375 26.83085938 80.703125 28.15234375 C80.6619785 30.19742255 80.62509999 32.24227335 80.59863281 34.28759766 C80.5708909 36.25966477 80.52393051 38.23143167 80.4765625 40.203125 C80.45674316 41.38551758 80.43692383 42.56791016 80.41650391 43.78613281 C79.82765979 48.32982797 77.95520079 50.90940182 74.98828125 54.296875 C70.47518847 56.86904291 66.28114938 56.42788433 61.1875 56.25 C59.71893555 56.22292969 59.71893555 56.22292969 58.22070312 56.1953125 C55.81279229 56.14832887 53.40690665 56.08265694 51 56 C50.93522461 56.97839844 50.93522461 56.97839844 50.86914062 57.9765625 C49.78225766 71.49778539 42.87183976 80.76426851 33.06640625 89.77734375 C22.13378795 98.70981566 8.85196045 100.97665343 -4.90283203 100.2265625 C-18.76710506 98.72876909 -30.11670012 90.17698433 -39 80 C-47.61540445 68.30317351 -49.6964027 54.3813199 -47.5703125 40.1171875 C-44.68355339 27.89301003 -37.99700753 15.7526776 -27.24511719 8.87792969 C-18.36954494 3.59798569 -10.5604615 0 0 0 Z " fill="#1392DE" transform="translate(80,64)"/>
<path d="M0 0 C15.10548971 1.67838775 26.23782239 6.15298555 36.92578125 17.33984375 C43.8852712 26.26529132 48 36.68922918 48 48 C32.16 48 16.32 48 0 48 C0 32.16 0 16.32 0 0 Z " fill="#F08C0B" transform="translate(84,64)"/>
<path d="M0 0 C2.16201824 -0.00966697 4.32306979 -0.04067056 6.48486328 -0.07226562 C7.86897224 -0.07879992 9.25308798 -0.08404872 10.63720703 -0.08789062 C12.51907715 -0.10190918 12.51907715 -0.10190918 14.43896484 -0.11621094 C19.26627157 0.37609612 22.67867759 1.73374905 25.80908203 5.49023438 C27.71780777 10.15600839 27.44287117 13.77039908 25.80908203 18.49023438 C23.49144942 21.88942888 21.72834462 22.6996231 17.93408203 24.24023438 C14.48657227 24.62841797 14.48657227 24.62841797 10.74267578 24.63867188 C10.07494644 24.64154205 9.4072171 24.64441223 8.71925354 24.64736938 C7.31665186 24.64939898 5.91402117 24.64394683 4.51147461 24.63134766 C2.37370225 24.61525034 0.23781265 24.63124471 -1.89990234 24.65039062 C-3.26904711 24.64840849 -4.63819071 24.64456542 -6.00732422 24.63867188 C-7.24168213 24.63528809 -8.47604004 24.6319043 -9.74780273 24.62841797 C-13.34100078 24.20805266 -15.20274911 23.41118381 -18.06591797 21.24023438 C-20.93905413 16.88099331 -21.88336971 13.41742875 -21.06591797 8.24023438 C-15.39566267 -0.48190145 -9.70689062 0.02628813 0 0 Z " fill="#1894DF" transform="translate(197.06591796875,135.759765625)"/>
<path d="M0 0 C2.17300022 -0.00968252 4.34504502 -0.04069388 6.51782227 -0.07226562 C7.90518645 -0.07879831 9.29255739 -0.08404774 10.67993164 -0.08789062 C11.93974854 -0.09723633 13.19956543 -0.10658203 14.49755859 -0.11621094 C19.29627822 0.38961035 21.79292972 2.18337102 25.19165039 5.49023438 C27.37296223 9.04496478 27.39294062 11.12991257 26.87915039 15.24023438 C25.35922935 18.42483084 23.5961908 20.97603403 20.87915039 23.24023438 C15.71035156 24.96316732 10.20381817 24.58429187 4.79272461 24.64526367 C3.35725797 24.66680701 1.92192142 24.70086803 0.48706055 24.74780273 C-12.96439847 25.18317016 -12.96439847 25.18317016 -17.54272461 21.33789062 C-20.73568991 17.92760036 -21.5726792 15.17027208 -21.54663086 10.41210938 C-20.77236728 6.46265478 -18.04950337 3.85781351 -15.12084961 1.24023438 C-10.7465618 -0.94690953 -4.86124826 0.01312816 0 0 Z " fill="#1794DE" transform="translate(197.120849609375,63.759765625)"/>
<path d="M0 0 C2.17300022 -0.00968252 4.34504502 -0.04069388 6.51782227 -0.07226562 C7.90518645 -0.07879831 9.29255739 -0.08404774 10.67993164 -0.08789062 C11.93974854 -0.09723633 13.19956543 -0.10658203 14.49755859 -0.11621094 C19.29627822 0.38961035 21.79292972 2.18337102 25.19165039 5.49023438 C27.37296223 9.04496478 27.39294062 11.12991257 26.87915039 15.24023438 C25.35922935 18.42483084 23.5961908 20.97603403 20.87915039 23.24023438 C15.71035156 24.96316732 10.20381817 24.58429187 4.79272461 24.64526367 C3.35725797 24.66680701 1.92192142 24.70086803 0.48706055 24.74780273 C-12.96093504 25.18305806 -12.96093504 25.18305806 -17.54272461 21.40039062 C-20.30359669 18.51618524 -21.02349017 15.96347591 -21.55834961 11.99023438 C-20.97687231 7.00614326 -18.74803363 4.5667192 -15.12084961 1.24023438 C-10.7465618 -0.94690953 -4.86124826 0.01312816 0 0 Z " fill="#1794DF" transform="translate(197.120849609375,99.759765625)"/>
<path d="M0 0 C10.65691222 -0.0462719 21.31380068 -0.08184295 31.97079277 -0.10362434 C36.91887832 -0.11407654 41.86689532 -0.12826183 46.81494141 -0.15087891 C51.58707481 -0.17255623 56.35914213 -0.1845578 61.13132095 -0.18975449 C62.9550493 -0.19345946 64.77877389 -0.200694 66.60247421 -0.21146011 C69.15026512 -0.22590721 71.69778042 -0.22798081 74.24560547 -0.22705078 C75.00517548 -0.23424133 75.76474548 -0.24143188 76.54733276 -0.24884033 C81.77189568 -0.22810432 81.77189568 -0.22810432 84 2 C83.44444444 6.55555556 83.44444444 6.55555556 82 8 C79.44410112 8.09506052 76.91532028 8.12556761 74.35913086 8.11352539 C73.15922264 8.11374443 73.15922264 8.11374443 71.93507385 8.1139679 C69.27830335 8.11326855 66.62160207 8.10547518 63.96484375 8.09765625 C62.12781309 8.09579215 60.29078194 8.09436821 58.45375061 8.09336853 C53.60890338 8.08954275 48.76408592 8.07971196 43.91925049 8.06866455 C38.97937422 8.05845172 34.03949315 8.05387119 29.09960938 8.04882812 C19.39972647 8.03808974 9.69986571 8.0210126 0 8 C0 5.36 0 2.72 0 0 Z " fill="#0078D4" transform="translate(140,180)"/>
<path d="M0 0 C1.14474792 0.00539291 1.14474792 0.00539291 2.31262207 0.01089478 C3.51253029 0.01067574 3.51253029 0.01067574 4.73667908 0.01045227 C7.39344958 0.01115161 10.05015086 0.01894498 12.70690918 0.02676392 C14.54393984 0.02862802 16.38097099 0.03005196 18.21800232 0.03105164 C23.06284955 0.03487742 27.90766701 0.04470821 32.75250244 0.05575562 C37.69237871 0.06596845 42.63225978 0.07054898 47.57214355 0.07559204 C57.27202646 0.08633042 66.97188722 0.10340756 76.67175293 0.12442017 C76.67175293 2.76442017 76.67175293 5.40442017 76.67175293 8.12442017 C66.01484071 8.17069207 55.35795225 8.20626311 44.70096016 8.22804451 C39.75287461 8.2384967 34.80485761 8.25268199 29.85681152 8.27529907 C25.08467812 8.29697639 20.3126108 8.30897797 15.54043198 8.31417465 C13.71670363 8.31787962 11.89297904 8.32511417 10.06927872 8.33588028 C7.52148781 8.35032737 4.97397251 8.35240097 2.42614746 8.35147095 C1.66657745 8.3586615 0.90700745 8.36585205 0.12442017 8.3732605 C-5.10014275 8.35252449 -5.10014275 8.35252449 -7.32824707 6.12442017 C-6.6164529 0.28770797 -5.75651862 0.01144637 0 0 Z " fill="#F08C0A" transform="translate(39.3282470703125,179.87557983398438)"/>
<path d="M0 0 C0.75410156 0.00451172 1.50820312 0.00902344 2.28515625 0.01367188 C4.14847127 0.02546501 6.01174555 0.04340058 7.875 0.0625 C7.875 2.7025 7.875 5.3425 7.875 8.0625 C6.87597656 8.12308594 5.87695312 8.18367188 4.84765625 8.24609375 C2.91212891 8.37177734 2.91212891 8.37177734 0.9375 8.5 C-0.35027344 8.58121094 -1.63804687 8.66242188 -2.96484375 8.74609375 C-5.98523957 8.71169188 -5.98523957 8.71169188 -7.125 10.0625 C-7.24702633 12.14865908 -7.30478091 14.23863238 -7.3359375 16.328125 C-7.37847656 18.25205078 -7.37847656 18.25205078 -7.421875 20.21484375 C-7.4630215 22.25992255 -7.49990001 24.30477335 -7.52636719 26.35009766 C-7.5541091 28.32216477 -7.60106949 30.29393167 -7.6484375 32.265625 C-7.66825684 33.44801758 -7.68807617 34.63041016 -7.70849609 35.84863281 C-8.29900914 40.40520596 -10.16582474 42.98411558 -13.16796875 46.359375 C-17.54414446 48.87986722 -21.48668359 48.49443813 -26.4375 48.3125 C-27.83452148 48.28542969 -27.83452148 48.28542969 -29.25976562 48.2578125 C-31.54924197 48.21084888 -33.83658184 48.14519475 -36.125 48.0625 C-36.125 45.4225 -36.125 42.7825 -36.125 40.0625 C-34.83722656 40.00191406 -33.54945313 39.94132812 -32.22265625 39.87890625 C-30.54425841 39.79451753 -28.86587364 39.7098687 -27.1875 39.625 C-26.33736328 39.58568359 -25.48722656 39.54636719 -24.61132812 39.50585938 C-23.80244141 39.46396484 -22.99355469 39.42207031 -22.16015625 39.37890625 C-21.4112915 39.34224854 -20.66242676 39.30559082 -19.89086914 39.26782227 C-18.10038674 39.24478937 -18.10038674 39.24478937 -17.125 38.0625 C-17.03964932 35.92589421 -17.01681947 33.78674564 -17.01953125 31.6484375 C-17.00470703 30.32972656 -16.98988281 29.01101562 -16.97460938 27.65234375 C-16.95188102 25.55204784 -16.93740486 23.45342822 -16.94995117 21.35302734 C-17.00765493 8.1934515 -17.00765493 8.1934515 -13.19921875 3.6640625 C-9.06844058 -0.25489711 -5.49612166 -0.06170085 0 0 Z " fill="#0D59A3" transform="translate(168.125,71.9375)"/>
<path d="M0 0 C3.209381 1.53175002 5.70326101 3.29086312 8 6 C9.24032748 10.19199287 9.49950912 13.85112902 7.75 17.875 C4.27398015 22.09588125 2.37533371 23.68024354 -3.25 24.4375 C-8.23409112 23.8560227 -10.67351517 21.62718402 -14 18 C-15.63125565 14.7374887 -15.68851113 11.5120384 -15 8 C-11.02622012 1.59304414 -7.59384259 -0.51483679 0 0 Z " fill="#F9FBFC" transform="translate(131,172)"/>
<path d="M0 0 C1.32 0 2.64 0 4 0 C4 15.84 4 31.68 4 48 C19.84 48 35.68 48 52 48 C52 49.32 52 50.64 52 52 C34.84 52 17.68 52 0 52 C0 34.84 0 17.68 0 0 Z " fill="#FEFFFF" transform="translate(80,64)"/>
<path d="M0 0 C1.68319336 0.03383789 1.68319336 0.03383789 3.40039062 0.06835938 C6.16412536 0.12716224 8.92512554 0.20929599 11.6875 0.3125 C11.02621094 1.05242187 10.36492187 1.79234375 9.68359375 2.5546875 C7.55049062 5.04021797 7.55049062 5.04021797 7.41015625 7.4453125 C8.08942396 11.42722664 8.65273751 13.66427907 11.6875 16.3125 C7.77097368 16.39964316 3.85469689 16.45293985 -0.0625 16.5 C-1.17367187 16.52513672 -2.28484375 16.55027344 -3.4296875 16.57617188 C-4.49960938 16.58583984 -5.56953125 16.59550781 -6.671875 16.60546875 C-7.65639648 16.6211792 -8.64091797 16.63688965 -9.65527344 16.65307617 C-12.73870395 16.25787353 -14.07029204 15.42499612 -16.3125 13.3125 C-17.09765625 11.4453125 -17.09765625 11.4453125 -17.375 9.4375 C-17.48972656 8.78007813 -17.60445312 8.12265625 -17.72265625 7.4453125 C-15.98977555 -1.56566717 -7.10123893 -0.26977237 0 0 Z " fill="#FBFDFE" transform="translate(197.3125,103.6875)"/>
<path d="M0 0 C1.68319336 0.03383789 1.68319336 0.03383789 3.40039062 0.06835938 C6.16412536 0.12716224 8.92512554 0.20929599 11.6875 0.3125 C11.02621094 1.05242187 10.36492187 1.79234375 9.68359375 2.5546875 C7.55049062 5.04021797 7.55049062 5.04021797 7.41015625 7.4453125 C8.08942396 11.42722664 8.65273751 13.66427907 11.6875 16.3125 C7.77097368 16.39964316 3.85469689 16.45293985 -0.0625 16.5 C-1.17367187 16.52513672 -2.28484375 16.55027344 -3.4296875 16.57617188 C-4.49960938 16.58583984 -5.56953125 16.59550781 -6.671875 16.60546875 C-7.65639648 16.6211792 -8.64091797 16.63688965 -9.65527344 16.65307617 C-12.73870395 16.25787353 -14.07029204 15.42499612 -16.3125 13.3125 C-17.09765625 11.4453125 -17.09765625 11.4453125 -17.375 9.4375 C-17.48972656 8.78007813 -17.60445312 8.12265625 -17.72265625 7.4453125 C-15.98977555 -1.56566717 -7.10123893 -0.26977237 0 0 Z " fill="#FBFDFE" transform="translate(197.3125,67.6875)"/>
<path d="M0 0 C3.89543877 -0.14553599 7.79017651 -0.23415059 11.6875 -0.3125 C13.34168945 -0.3753418 13.34168945 -0.3753418 15.02929688 -0.43945312 C23.21671989 -0.56313021 23.21671989 -0.56313021 27.23828125 2.328125 C29.38319274 5.58116149 29.6510294 7.17520225 29 11 C27.22015595 14.1359157 26.47691793 14.84102736 23 16 C21.22686149 16.08209792 19.45079225 16.10746294 17.67578125 16.09765625 C16.64775391 16.09443359 15.61972656 16.09121094 14.56054688 16.08789062 C13.48869141 16.07951172 12.41683594 16.07113281 11.3125 16.0625 C10.22904297 16.05798828 9.14558594 16.05347656 8.02929688 16.04882812 C5.35280915 16.03703743 2.67643223 16.02058063 0 16 C0.6496875 15.236875 1.299375 14.47375 1.96875 13.6875 C4.21333691 11.14943671 4.21333691 11.14943671 4.5 8 C3.89063932 4.34383592 2.36798004 2.78143687 0 0 Z " fill="#FBFDFE" transform="translate(191,140)"/>
<path d="M0 0 C4.0743356 0.84881992 5.54405875 2.30225596 8 5.625 C8.54667869 8.97340698 8.34038506 10.83785954 7 13.9375 C3.96275614 16.5001745 0.90933118 16.79839775 -3 16.625 C-5.4375 15.6875 -5.4375 15.6875 -7 13.625 C-7.95798882 10.88704431 -8.32609912 8.51491291 -8 5.625 C-5.60540961 2.14195943 -4.14822958 0.8642145 0 0 Z " fill="#0F6FC0" transform="translate(128,175.375)"/>
<path d="M0 0 C2.60057161 2.26501399 2.94731161 3.57849291 3.375 7 C2.94305692 10.45554461 2.66753429 11.74926794 0 14 C-3.69981561 15.14686429 -6.79684512 15.46275188 -10.4375 14.0625 C-12.79367677 10.95234666 -13.21018716 7.86121593 -13 4 C-10.0640126 -1.72517543 -5.76850514 -1.33911726 0 0 Z " fill="#0A6CBF" transform="translate(193,141)"/>
<path d="M0 0 C1.6875 2.3125 1.6875 2.3125 2.25 5.25 C1.6875 8.3125 1.6875 8.3125 -0.3125 11.25 C-3.36396579 13.34788273 -3.9641613 13.66179309 -7.4375 13.4375 C-10.40342766 12.8319798 -11.19398905 12.43460219 -13.375 10.1875 C-14.57748266 6.4998865 -14.23009148 4.05344988 -13.3125 0.3125 C-9.23351575 -3.76648425 -4.5340948 -3.30866377 0 0 Z " fill="#096CBF" transform="translate(218.3125,106.6875)"/>
<path d="M0 0 C1.6875 2.3125 1.6875 2.3125 2.25 5.25 C1.6875 8.3125 1.6875 8.3125 -0.3125 11.25 C-3.36396579 13.34788273 -3.9641613 13.66179309 -7.4375 13.4375 C-10.40342766 12.8319798 -11.19398905 12.43460219 -13.375 10.1875 C-14.57748266 6.4998865 -14.23009148 4.05344988 -13.3125 0.3125 C-9.23351575 -3.76648425 -4.5340948 -3.30866377 0 0 Z " fill="#096CBF" transform="translate(218.3125,70.6875)"/>
<path d="M0 0 C0.54785156 0.36480469 1.09570312 0.72960937 1.66015625 1.10546875 C0.64824219 1.37101562 -0.36367187 1.6365625 -1.40625 1.91015625 C-14.3810357 5.63588048 -24.27834645 12.25832084 -30.83984375 24.10546875 C-31.68757532 25.76485822 -32.52629125 27.42905754 -33.33984375 29.10546875 C-34.08984375 27.54296875 -34.08984375 27.54296875 -34.33984375 25.10546875 C-31.85128999 19.76842078 -28.60199756 15.92404722 -24.40234375 11.85546875 C-23.63374023 11.08203125 -23.63374023 11.08203125 -22.84960938 10.29296875 C-18.27193658 5.77927867 -13.74600466 3.07583627 -7.77734375 0.79296875 C-6.38322266 0.24189453 -6.38322266 0.24189453 -4.9609375 -0.3203125 C-2.33984375 -0.89453125 -2.33984375 -0.89453125 0 0 Z " fill="#87C7DE" transform="translate(70.33984375,64.89453125)"/>
<path d="M0 0 C0.33 0 0.66 0 1 0 C2.2014487 7.55196326 -1.72844571 13.01053801 -6 19 C-8.84067861 22.19126869 -11.82203552 25.14631761 -15 28 C-15.66 27.67 -16.32 27.34 -17 27 C-16.49210937 26.53851563 -15.98421875 26.07703125 -15.4609375 25.6015625 C-7.69015891 18.23824046 -2.8430096 10.32461381 0 0 Z " fill="#86BED9" transform="translate(130,126)"/>
</svg>
