<?xml version="1.0" encoding="UTF-8"?>
<svg version="1.1" xmlns="http://www.w3.org/2000/svg" width="256" height="256">
    <path
        d="M0 0 C0.66043808 -0.0065712 1.32087616 -0.0131424 2.00132751 -0.01991272 C4.19212966 -0.03965783 6.38286303 -0.05131431 8.57373047 -0.0612793 C9.32315792 -0.06535482 10.07258537 -0.06943035 10.84472275 -0.07362938 C14.81558711 -0.09450077 18.78641685 -0.10879472 22.75732422 -0.11816406 C26.84614442 -0.12919769 30.93441576 -0.16355848 35.02304268 -0.20333576 C38.17677776 -0.22957639 41.33038396 -0.23786272 44.4842186 -0.24144554 C45.99041299 -0.24629666 47.49660219 -0.25786843 49.00268936 -0.27648354 C58.25023225 -0.38362654 64.94809724 -0.04460892 72.56201172 5.67700195 C73.03767578 6.17200195 73.51333984 6.66700195 74.00341797 7.17700195 C74.55740768 7.74059921 75.1113974 8.30419647 75.68217468 8.88487244 C77.56591797 11.17700195 77.56591797 11.17700195 78.95930481 14.1499176 C80.99608396 18.01270731 82.78880156 20.87997479 86.56591797 23.17700195 C94.98294934 25.47955981 104.19523801 24.58654891 112.82763672 24.3918457 C115.42354658 24.37919654 118.01949221 24.37257867 120.61543274 24.37171936 C126.73957665 24.35813822 132.86117762 24.29498041 138.9846018 24.20390373 C150.60319145 24.03233576 162.2221064 23.96090432 173.84180641 23.917696 C177.65478849 23.89216607 181.4660059 23.83118461 185.27848816 23.76585388 C187.61476802 23.74555791 189.95105651 23.72622394 192.28735352 23.70800781 C193.34567886 23.68052963 194.40400421 23.65305145 195.49440002 23.6247406 C203.51890269 23.60791307 203.51890269 23.60791307 207.20832825 26.58131409 C210.49888421 30.2041905 210.69334182 31.82661765 210.71981812 36.6161499 C210.72841858 37.77138153 210.73701904 38.92661316 210.74588013 40.11685181 C210.75227005 42.02752945 210.75227005 42.02752945 210.75878906 43.97680664 C210.7666896 45.32695731 210.77495853 46.67710587 210.78356934 48.0272522 C210.80979741 52.46777324 210.82509882 56.90830376 210.83935547 61.34887695 C210.84471503 62.87733211 210.85009254 64.40578721 210.85548782 65.93424225 C210.87711867 72.29258278 210.89585502 78.65092077 210.90711021 85.00928879 C210.92334669 94.12193448 210.95651429 103.23415358 211.01351106 112.34663844 C211.05221822 118.75351364 211.07174386 125.16027479 211.07703078 131.56726384 C211.08068355 135.39394132 211.09269575 139.2201639 211.12513351 143.04671478 C211.15522803 146.64853461 211.16152171 150.24962466 211.14974976 153.85154343 C211.14942412 155.79944441 211.17388142 157.74730044 211.1991272 159.69503784 C211.13101194 169.24692489 211.13101194 169.24692489 208.15444946 172.94683838 C203.93581489 176.58142624 200.75558777 176.32759543 195.39337158 176.3309021 C194.53835013 176.33528435 193.68332868 176.33966661 192.80239749 176.34418166 C189.92050892 176.3575989 187.03865095 176.36375507 184.15673828 176.36987305 C182.09723776 176.3777717 180.03773863 176.3860405 177.97824097 176.39465332 C171.20018847 176.42090036 164.4221297 176.43618339 157.64404297 176.45043945 C155.31321966 176.45579798 152.9823964 176.46117549 150.65157318 176.46657181 C140.95796367 176.48820424 131.26435585 176.50694199 121.5707283 176.5181942 C107.66560495 176.53443963 93.76076078 176.5676279 79.85574269 176.62459505 C70.08583799 176.66326027 60.31600807 176.68282284 50.54602885 176.68811476 C44.70732969 176.69177282 38.86892811 176.70384261 33.03031158 176.7362175 C27.5374965 176.76623782 22.04515999 176.77263136 16.55228043 176.76083374 C14.53585911 176.7606125 12.51941597 176.76895889 10.50307083 176.78648758 C7.75026807 176.80911647 4.99920985 176.80091363 2.24639893 176.78500366 C1.44814107 176.79888575 0.64988322 176.81276784 -0.17256427 176.82707059 C-5.91128852 176.74533072 -8.42322509 175.2945457 -12.43408203 171.17700195 C-13.88471313 168.27573975 -13.59099448 165.72108657 -13.62353516 162.47998047 C-13.63182846 161.79200378 -13.64012177 161.1040271 -13.64866638 160.39520264 C-13.66607682 158.89960096 -13.68124093 157.40397185 -13.69444275 155.9083271 C-13.71545267 153.54232253 -13.74247738 151.17645532 -13.77111816 148.81053162 C-13.83084756 143.78690772 -13.8829808 138.76322004 -13.93408203 133.73950195 C-13.99329771 127.92249739 -14.05560065 122.10556046 -14.1259613 116.28867912 C-14.15254573 113.95602966 -14.17335545 111.62337344 -14.19396973 109.29066467 C-14.21057373 107.86157913 -14.22744566 106.43249666 -14.24462891 105.00341797 C-14.25715698 103.75480484 -14.26968506 102.50619171 -14.28259277 101.21974182 C-14.29972458 98.13230299 -14.29972458 98.13230299 -15.43408203 95.17700195 C-14.77408203 95.17700195 -14.11408203 95.17700195 -13.43408203 95.17700195 C-14.09408203 94.18700195 -14.75408203 93.19700195 -15.43408203 92.17700195 C-15.88330078 90.02075195 -15.88330078 90.02075195 -16.12158203 87.67700195 C-16.20794922 86.90356445 -16.29431641 86.13012695 -16.38330078 85.33325195 C-16.43408203 83.17700195 -16.43408203 83.17700195 -15.43408203 80.17700195 C-15.28479003 76.3700558 -15.45624734 72.75079279 -15.99658203 68.98950195 C-16.38356677 65.61720638 -16.32903419 64.25961494 -15.43408203 61.17700195 C-15.43408203 59.96012695 -15.43408203 58.74325195 -15.43408203 57.48950195 C-15.43408203 54.17700195 -15.43408203 54.17700195 -14.43408203 53.17700195 C-14.33783273 51.76600175 -14.30892766 50.35031406 -14.30810547 48.93603516 C-14.30429871 48.03452225 -14.30049194 47.13300934 -14.29656982 46.20417786 C-14.2955426 45.22196762 -14.29451538 44.23975739 -14.29345703 43.2277832 C-14.27512327 41.16201702 -14.25555243 39.09626151 -14.23486328 37.03051758 C-14.2059219 33.76283894 -14.18408298 30.49584235 -14.18359375 27.22802734 C-14.18025475 24.08149215 -14.14566736 20.93654277 -14.10595703 17.7902832 C-14.11302673 16.81819412 -14.12009644 15.84610504 -14.12738037 14.84455872 C-14.04676894 10.34008564 -13.91580992 7.16191761 -11.01708984 3.57617188 C-7.14784923 -0.01768706 -5.20838478 0.04282671 0 0 Z "
        fill="#24A7D1" transform="translate(29.43408203125,33.822998046875)" />
    <path
        d="M0 0 C0.66043808 -0.0065712 1.32087616 -0.0131424 2.00132751 -0.01991272 C4.19212966 -0.03965783 6.38286303 -0.05131431 8.57373047 -0.0612793 C9.32315792 -0.06535482 10.07258537 -0.06943035 10.84472275 -0.07362938 C14.81558711 -0.09450077 18.78641685 -0.10879472 22.75732422 -0.11816406 C26.84614442 -0.12919769 30.93441576 -0.16355848 35.02304268 -0.20333576 C38.17677776 -0.22957639 41.33038396 -0.23786272 44.4842186 -0.24144554 C45.99041299 -0.24629666 47.49660219 -0.25786843 49.00268936 -0.27648354 C58.25023225 -0.38362654 64.94809724 -0.04460892 72.56201172 5.67700195 C73.03767578 6.17200195 73.51333984 6.66700195 74.00341797 7.17700195 C74.55740768 7.74059921 75.1113974 8.30419647 75.68217468 8.88487244 C77.56591797 11.17700195 77.56591797 11.17700195 78.95930481 14.1499176 C80.99608396 18.01270731 82.78880156 20.87997479 86.56591797 23.17700195 C94.98294934 25.47955981 104.19523801 24.58654891 112.82763672 24.3918457 C115.42354658 24.37919654 118.01949221 24.37257867 120.61543274 24.37171936 C126.73957665 24.35813822 132.86117762 24.29498041 138.9846018 24.20390373 C150.60319145 24.03233576 162.2221064 23.96090432 173.84180641 23.917696 C177.65478849 23.89216607 181.4660059 23.83118461 185.27848816 23.76585388 C187.61476802 23.74555791 189.95105651 23.72622394 192.28735352 23.70800781 C193.34567886 23.68052963 194.40400421 23.65305145 195.49440002 23.6247406 C203.52221125 23.60790614 203.52221125 23.60790614 207.21614075 26.46803284 C210.05189145 29.73726236 210.39854858 31.90908242 210.56591797 36.17700195 C209.82341797 35.39325195 209.08091797 34.60950195 208.31591797 33.80200195 C204.51846258 30.17715817 201.98906744 28.93607736 196.75511169 28.88265991 C195.30664604 28.861194 195.30664604 28.861194 193.82891846 28.83929443 C192.24938385 28.83122772 192.24938385 28.83122772 190.63793945 28.82299805 C188.96644585 28.80328445 188.96644585 28.80328445 187.26118469 28.78317261 C183.56979092 28.74372265 179.87856 28.72038265 176.18701172 28.70043945 C174.92463243 28.6922884 173.66225315 28.68413734 172.36161995 28.67573929 C166.36603963 28.63832027 160.3705576 28.60919146 154.3748917 28.59251535 C147.47678867 28.57300796 140.57997569 28.52046725 133.68232673 28.43951356 C127.69045767 28.37162997 121.69920858 28.3482022 115.70692635 28.34010696 C113.16766692 28.33038865 110.62842059 28.30719844 108.0894146 28.27003098 C91.06744075 27.44434122 91.06744075 27.44434122 76.75822449 35.22805786 C69.65892204 41.53928462 58.71607945 40.60729011 49.77719498 40.58769226 C47.52313004 40.58314999 45.26982388 40.5973866 43.01583862 40.61608887 C37.42854474 40.65873923 31.84127345 40.67013775 26.25384521 40.68231201 C21.50657528 40.69385444 16.75966035 40.71741919 12.01253891 40.75700378 C9.79833588 40.77052536 7.58461957 40.76641557 5.37039185 40.76159668 C4.01124453 40.77093698 2.65210258 40.78110572 1.29296875 40.79223633 C-0.47927567 40.79531799 -0.47927567 40.79531799 -2.287323 40.79846191 C-6.76660546 41.33729814 -9.38845017 42.91503247 -12.24658203 46.36450195 C-12.63845703 46.96262695 -13.03033203 47.56075195 -13.43408203 48.17700195 C-13.55799746 42.44791494 -13.64857021 36.71961371 -13.70874023 30.98950195 C-13.7338315 29.04177252 -13.76791264 27.09413676 -13.8112793 25.14672852 C-13.87216952 22.34148005 -13.90034534 19.53747988 -13.92236328 16.73168945 C-13.94816971 15.86583221 -13.97397614 14.99997498 -14.00056458 14.10787964 C-14.00253786 9.82121751 -13.77974332 7.04368356 -11.02856445 3.64233398 C-7.1640983 -0.02976343 -5.25093627 0.04317659 0 0 Z "
        fill="#026FC7" transform="translate(29.43408203125,33.822998046875)" />
    <path
        d="M0 0 C73.92 0 147.84 0 224 0 C224 9 224 9 221.625 12.5 C217.45092819 16.47530649 214.34603541 16.15049705 208.82745361 16.15390015 C207.97243216 16.1582824 207.11741071 16.16266465 206.23647952 16.1671797 C203.35459095 16.18059694 200.47273298 16.18675311 197.59082031 16.19287109 C195.53131979 16.20076974 193.47182066 16.20903854 191.412323 16.21765137 C184.6342705 16.2438984 177.85621173 16.25918144 171.078125 16.2734375 C168.74730169 16.27879603 166.41647843 16.28417354 164.08565521 16.28956985 C154.3920457 16.31120229 144.69843788 16.32994004 135.00481033 16.34119225 C121.09968698 16.35743768 107.19484281 16.39062595 93.28982472 16.44759309 C83.51992002 16.48625831 73.7500901 16.50582088 63.98011088 16.51111281 C58.14141172 16.51477087 52.30301014 16.52684066 46.46439362 16.55921555 C40.97157853 16.58923587 35.47924202 16.59562941 29.98636246 16.58383179 C27.96994114 16.58361055 25.953498 16.59195693 23.93715286 16.60948563 C21.1843501 16.63211451 18.43329188 16.62391167 15.68048096 16.60800171 C14.48309418 16.62882484 14.48309418 16.62882484 13.26151776 16.65006864 C7.52279351 16.56832877 5.01085694 15.11754375 1 11 C0 9 0 9 0 0 Z "
        fill="#094263" transform="translate(16,194)" />
    <path
        d="M0 0 C0.47050781 0.42152344 0.94101562 0.84304687 1.42578125 1.27734375 C2.35970703 2.09912109 2.35970703 2.09912109 3.3125 2.9375 C4.23482422 3.75541016 4.23482422 3.75541016 5.17578125 4.58984375 C9.10873882 7.63009575 13.42187411 7.14562924 18.14767456 7.14044189 C18.98792179 7.14341302 19.82816902 7.14638414 20.69387829 7.1494453 C23.51972443 7.15814231 26.34552825 7.15964138 29.17138672 7.16113281 C31.1932484 7.16576023 33.21510921 7.17078478 35.23696899 7.17617798 C40.73695133 7.18931023 46.23692145 7.1957484 51.73691702 7.20018864 C55.17109053 7.20311767 58.6052607 7.20722212 62.03943253 7.21169281 C72.77848669 7.22536911 83.51753322 7.23503546 94.25659549 7.2388947 C106.66411467 7.24337774 119.0715238 7.26093653 131.47900951 7.2898953 C141.06293524 7.31148963 150.64682996 7.32159776 160.23077977 7.32293582 C165.95812463 7.32398534 171.68536608 7.32992456 177.41268539 7.34775543 C182.79872689 7.36419751 188.18458678 7.36641042 193.57064438 7.35761642 C195.54877203 7.35684401 197.52690928 7.36121555 199.50501251 7.37107468 C202.20301238 7.38373457 204.90036326 7.37794994 207.59835815 7.36749268 C208.38328294 7.37554908 209.16820772 7.38360548 209.9769181 7.39190602 C214.50405632 7.35079569 217.39391125 6.78679576 221 4 C222.78344178 1.93045153 222.78344178 1.93045153 224 0 C223.82828331 4.37877572 223.51958387 6.44222839 220.48616028 9.69859886 C216.61246863 12.70351126 213.10881263 12.70168846 208.34643555 12.63491821 C207.05877682 12.64661814 207.05877682 12.64661814 205.74510479 12.65855443 C202.87520324 12.6784617 200.0066296 12.66271497 197.13671875 12.64697266 C195.07662177 12.65374933 193.01653086 12.66265274 190.95645142 12.67352295 C185.36552197 12.69631667 179.77505387 12.68747942 174.18411636 12.67162752 C168.33326219 12.65896904 162.48244752 12.6707085 156.6315918 12.67855835 C146.8060802 12.68765503 136.98075651 12.67566638 127.15527344 12.65185547 C115.79550588 12.62464431 104.43618701 12.63345845 93.07643032 12.6609875 C83.32339099 12.6836769 73.57048674 12.68687942 63.81742954 12.67379415 C57.99225573 12.66599878 52.16729283 12.66496061 46.34213257 12.68147659 C40.86560435 12.69591947 35.38965465 12.6859024 29.91318893 12.65700531 C27.90324235 12.6503936 25.89324708 12.65229358 23.88331985 12.66331863 C21.13941072 12.6769822 18.39735543 12.65984886 15.65356445 12.63491821 C14.85803508 12.64607182 14.0625057 12.65722543 13.24286938 12.66871703 C9.26126735 12.5985387 6.70823598 12.17656608 3.51383972 9.69859886 C0.48041613 6.44222839 0.17171669 4.37877572 0 0 Z "
        fill="#0D5298" transform="translate(16,198)" />
    <path
        d="M0 0 C1.97909398 -0.02686553 3.95828971 -0.04633375 5.9375 -0.0625 C7.03964844 -0.07410156 8.14179687 -0.08570312 9.27734375 -0.09765625 C12 0 12 0 13 1 C13.09851171 2.83115883 13.12972629 4.66619933 13.125 6.5 C13.12757812 7.5003125 13.13015625 8.500625 13.1328125 9.53125 C13 12 13 12 12 13 C10.16884117 13.09851171 8.33380067 13.12972629 6.5 13.125 C5.4996875 13.12757812 4.499375 13.13015625 3.46875 13.1328125 C1 13 1 13 0 12 C-0.07244053 9.98035801 -0.08377188 7.95832876 -0.0625 5.9375 C-0.05347656 4.83277344 -0.04445313 3.72804688 -0.03515625 2.58984375 C-0.02355469 1.73519531 -0.01195313 0.88054687 0 0 Z "
        fill="#F3F9FE" transform="translate(27,92)" />
    <path
        d="M0 0 C1.50046875 0.00386719 1.50046875 0.00386719 3.03125 0.0078125 C4.0315625 0.00523438 5.031875 0.00265625 6.0625 0 C8.53125 0.1328125 8.53125 0.1328125 9.53125 1.1328125 C9.62976171 2.96397133 9.66097629 4.79901183 9.65625 6.6328125 C9.65882812 7.633125 9.66140625 8.6334375 9.6640625 9.6640625 C9.53125 12.1328125 9.53125 12.1328125 8.53125 13.1328125 C6.70009117 13.23132421 4.86505067 13.26253879 3.03125 13.2578125 C2.0309375 13.26039062 1.030625 13.26296875 0 13.265625 C-2.46875 13.1328125 -2.46875 13.1328125 -3.46875 12.1328125 C-3.56726171 10.30165367 -3.59847629 8.46661317 -3.59375 6.6328125 C-3.59632812 5.6325 -3.59890625 4.6321875 -3.6015625 3.6015625 C-3.42265191 0.27593033 -3.32563217 0.17891059 0 0 Z "
        fill="#F4F9FE" transform="translate(30.46875,112.8671875)" />
    <path d="M0 0 C1.65 0.33 3.3 0.66 5 1 C4.67 2.65 4.34 4.3 4 6 C2.35 5.67 0.7 5.34 -1 5 C-0.67 3.35 -0.34 1.7 0 0 Z "
        fill="#DDE4E9" transform="translate(222,197)" />
    <path d="M0 0 C1.65 0.33 3.3 0.66 5 1 C4.67 2.65 4.34 4.3 4 6 C2.35 5.67 0.7 5.34 -1 5 C-0.67 3.35 -0.34 1.7 0 0 Z "
        fill="#DDE4E9" transform="translate(211,197)" />
    <path
        d="M0 0 C0.66 0.33 1.32 0.66 2 1 C1.195625 1.763125 0.39125 2.52625 -0.4375 3.3125 C-3.16799024 5.79430898 -3.16799024 5.79430898 -4 9 C-4.66 8.67 -5.32 8.34 -6 8 C-5.8125 5.6875 -5.8125 5.6875 -5 3 C-2.5625 1.125 -2.5625 1.125 0 0 Z "
        fill="#61E0E9" transform="translate(21,79)" />
    <path d="" fill="#000000" transform="translate(0,0)" />
</svg>