<?xml version="1.0" encoding="UTF-8"?>
<svg version="1.1" xmlns="http://www.w3.org/2000/svg" width="256" height="256">
<path d="M0 0 C0.66043808 -0.0065712 1.32087616 -0.0131424 2.00132751 -0.01991272 C4.19212966 -0.03965783 6.38286303 -0.05131431 8.57373047 -0.0612793 C9.32315792 -0.06535482 10.07258537 -0.06943035 10.84472275 -0.07362938 C14.81558711 -0.09450077 18.78641685 -0.10879472 22.75732422 -0.11816406 C26.84614442 -0.12919769 30.93441576 -0.16355848 35.02304268 -0.20333576 C38.17677776 -0.22957639 41.33038396 -0.23786272 44.4842186 -0.24144554 C45.99041299 -0.24629666 47.49660219 -0.25786843 49.00268936 -0.27648354 C58.25023225 -0.38362654 64.94809724 -0.04460892 72.56201172 5.67700195 C73.03767578 6.17200195 73.51333984 6.66700195 74.00341797 7.17700195 C74.55740768 7.74059921 75.1113974 8.30419647 75.68217468 8.88487244 C77.56591797 11.17700195 77.56591797 11.17700195 78.95930481 14.1499176 C80.99608396 18.01270731 82.78880156 20.87997479 86.56591797 23.17700195 C94.98294934 25.47955981 104.19523801 24.58654891 112.82763672 24.3918457 C115.42354658 24.37919654 118.01949221 24.37257867 120.61543274 24.37171936 C126.73957665 24.35813822 132.86117762 24.29498041 138.9846018 24.20390373 C150.60319145 24.03233576 162.2221064 23.96090432 173.84180641 23.917696 C177.65478849 23.89216607 181.4660059 23.83118461 185.27848816 23.76585388 C187.61476802 23.74555791 189.95105651 23.72622394 192.28735352 23.70800781 C193.34567886 23.68052963 194.40400421 23.65305145 195.49440002 23.6247406 C203.51890269 23.60791307 203.51890269 23.60791307 207.20832825 26.58131409 C210.49888421 30.2041905 210.69334182 31.82661765 210.71981812 36.6161499 C210.72841858 37.77138153 210.73701904 38.92661316 210.74588013 40.11685181 C210.75227005 42.02752945 210.75227005 42.02752945 210.75878906 43.97680664 C210.7666896 45.32695731 210.77495853 46.67710587 210.78356934 48.0272522 C210.80979741 52.46777324 210.82509882 56.90830376 210.83935547 61.34887695 C210.84471503 62.87733211 210.85009254 64.40578721 210.85548782 65.93424225 C210.87711867 72.29258278 210.89585502 78.65092077 210.90711021 85.00928879 C210.92334669 94.12193448 210.95651429 103.23415358 211.01351106 112.34663844 C211.05221822 118.75351364 211.07174386 125.16027479 211.07703078 131.56726384 C211.08068355 135.39394132 211.09269575 139.2201639 211.12513351 143.04671478 C211.15522803 146.64853461 211.16152171 150.24962466 211.14974976 153.85154343 C211.14942412 155.79944441 211.17388142 157.74730044 211.1991272 159.69503784 C211.13101194 169.24692489 211.13101194 169.24692489 208.15444946 172.94683838 C203.93581489 176.58142624 200.75558777 176.32759543 195.39337158 176.3309021 C194.53835013 176.33528435 193.68332868 176.33966661 192.80239749 176.34418166 C189.92050892 176.3575989 187.03865095 176.36375507 184.15673828 176.36987305 C182.09723776 176.3777717 180.03773863 176.3860405 177.97824097 176.39465332 C171.20018847 176.42090036 164.4221297 176.43618339 157.64404297 176.45043945 C155.31321966 176.45579798 152.9823964 176.46117549 150.65157318 176.46657181 C140.95796367 176.48820424 131.26435585 176.50694199 121.5707283 176.5181942 C107.66560495 176.53443963 93.76076078 176.5676279 79.85574269 176.62459505 C70.08583799 176.66326027 60.31600807 176.68282284 50.54602885 176.68811476 C44.70732969 176.69177282 38.86892811 176.70384261 33.03031158 176.7362175 C27.5374965 176.76623782 22.04515999 176.77263136 16.55228043 176.76083374 C14.53585911 176.7606125 12.51941597 176.76895889 10.50307083 176.78648758 C7.75026807 176.80911647 4.99920985 176.80091363 2.24639893 176.78500366 C1.44814107 176.79888575 0.64988322 176.81276784 -0.17256427 176.82707059 C-5.91128852 176.74533072 -8.42322509 175.2945457 -12.43408203 171.17700195 C-13.84609422 168.35297757 -13.57312469 165.98632009 -13.58798218 162.82672119 C-13.59455556 161.83820479 -13.59455556 161.83820479 -13.60126173 160.82971835 C-13.61466598 158.61116682 -13.62083222 156.39265502 -13.62695312 154.17407227 C-13.63485285 152.58747172 -13.64312172 151.00087297 -13.6517334 149.41427612 C-13.67796968 144.19457723 -13.69326314 138.97487025 -13.70751953 133.75512695 C-13.71287865 131.95921575 -13.71825615 130.16330459 -13.72365189 128.36739349 C-13.74528342 120.89729635 -13.76402038 113.42720139 -13.77527428 105.95708084 C-13.79151462 95.24694935 -13.82469118 84.5371806 -13.88167512 73.82718587 C-13.92036413 66.29930083 -13.93990576 58.77151285 -13.94519484 51.24353099 C-13.94884989 46.74618632 -13.96088707 42.24922841 -13.99329758 37.75199127 C-14.0233599 33.51984684 -14.02969683 29.28832353 -14.01791382 25.05609512 C-14.01769292 23.50408489 -14.02601134 21.95204599 -14.04356766 20.40013504 C-14.18466602 7.20778948 -14.18466602 7.20778948 -11.02261353 3.26947021 C-7.07635935 0.0794717 -5.04140873 0.04145372 0 0 Z " fill="#8EA7C0" transform="translate(29.43408203125,33.822998046875)"/>
<path d="M0 0 C0.66043808 -0.0065712 1.32087616 -0.0131424 2.00132751 -0.01991272 C4.19212966 -0.03965783 6.38286303 -0.05131431 8.57373047 -0.0612793 C9.32315792 -0.06535482 10.07258537 -0.06943035 10.84472275 -0.07362938 C14.81558711 -0.09450077 18.78641685 -0.10879472 22.75732422 -0.11816406 C26.84614442 -0.12919769 30.93441576 -0.16355848 35.02304268 -0.20333576 C38.17677776 -0.22957639 41.33038396 -0.23786272 44.4842186 -0.24144554 C45.99041299 -0.24629666 47.49660219 -0.25786843 49.00268936 -0.27648354 C58.25023225 -0.38362654 64.94809724 -0.04460892 72.56201172 5.67700195 C73.03767578 6.17200195 73.51333984 6.66700195 74.00341797 7.17700195 C74.55740768 7.74059921 75.1113974 8.30419647 75.68217468 8.88487244 C77.56591797 11.17700195 77.56591797 11.17700195 78.95930481 14.1499176 C80.99608396 18.01270731 82.78880156 20.87997479 86.56591797 23.17700195 C94.98294934 25.47955981 104.19523801 24.58654891 112.82763672 24.3918457 C115.42354658 24.37919654 118.01949221 24.37257867 120.61543274 24.37171936 C126.73957665 24.35813822 132.86117762 24.29498041 138.9846018 24.20390373 C150.60319145 24.03233576 162.2221064 23.96090432 173.84180641 23.917696 C177.65478849 23.89216607 181.4660059 23.83118461 185.27848816 23.76585388 C187.61476802 23.74555791 189.95105651 23.72622394 192.28735352 23.70800781 C193.34567886 23.68052963 194.40400421 23.65305145 195.49440002 23.6247406 C203.51890269 23.60791307 203.51890269 23.60791307 207.20832825 26.58131409 C210.85675818 30.59820694 210.66519152 32.81623017 210.56591797 38.17700195 C210.31841797 37.59950195 210.07091797 37.02200195 209.81591797 36.42700195 C207.74037706 32.69102832 205.63417853 30.53308881 201.56591797 29.17700195 C200.00488948 29.07143856 198.43986018 29.02058417 196.87536621 29.00291443 C195.91109711 28.98997849 194.946828 28.97704254 193.95333862 28.9637146 C192.3684111 28.95025497 192.3684111 28.95025497 190.75146484 28.93652344 C189.08019028 28.91702888 189.08019028 28.91702888 187.37515259 28.8971405 C177.08912798 28.78529075 166.80242107 28.72456033 156.51589203 28.68037319 C148.92191499 28.6471973 141.32913785 28.58776074 133.73567533 28.49286216 C127.7390379 28.42047718 121.74295622 28.39237907 115.74586487 28.37904549 C113.2037981 28.36681969 110.66175749 28.34083841 108.11997986 28.30059624 C92.60844711 27.46350668 92.60844711 27.46350668 78.73193359 33.10302734 C78.00671509 33.81495743 77.28149658 34.52688751 76.53430176 35.26039124 C71.24501542 40.41055704 63.61016141 40.29685058 56.63012695 40.3347168 C55.96428589 40.33979752 55.29844482 40.34487823 54.61242676 40.35011292 C53.17691263 40.36075386 51.74138256 40.36939824 50.30584526 40.37623215 C48.03137134 40.38809932 45.75708069 40.40756848 43.48268127 40.42935181 C37.01968482 40.49072774 30.55671313 40.54506359 24.09350586 40.57836914 C20.13123356 40.59933037 16.16930639 40.63463397 12.20723152 40.67912674 C10.70142744 40.69326316 9.19556244 40.70200386 7.68969536 40.70518112 C5.58353427 40.71009843 3.47828889 40.73327195 1.37231445 40.76049805 C-0.4225515 40.77262833 -0.4225515 40.77262833 -2.25367737 40.78500366 C-6.74833144 41.33898874 -9.37632612 42.90039999 -12.24658203 46.36450195 C-12.63845703 46.96262695 -13.03033203 47.56075195 -13.43408203 48.17700195 C-13.55799746 42.44791494 -13.64857021 36.71961371 -13.70874023 30.98950195 C-13.7338315 29.04177252 -13.76791264 27.09413676 -13.8112793 25.14672852 C-13.87216952 22.34148005 -13.90034534 19.53747988 -13.92236328 16.73168945 C-13.94816971 15.86583221 -13.97397614 14.99997498 -14.00056458 14.10787964 C-14.00253786 9.82121751 -13.77974332 7.04368356 -11.02856445 3.64233398 C-7.1640983 -0.02976343 -5.25093627 0.04317659 0 0 Z " fill="#5F7987" transform="translate(29.43408203125,33.822998046875)"/>
<path d="M0 0 C1.23234375 -0.00515625 2.4646875 -0.0103125 3.734375 -0.015625 C5.66023437 0.00757812 5.66023437 0.00757812 7.625 0.03125 C8.90890625 0.01578125 10.1928125 0.0003125 11.515625 -0.015625 C12.74796875 -0.01046875 13.9803125 -0.0053125 15.25 0 C16.93996094 0.00676758 16.93996094 0.00676758 18.6640625 0.01367188 C21.625 0.53125 21.625 0.53125 23.98803711 2.16601562 C27.27305879 6.91251675 26.23505675 12.95871753 26.1875 18.53125 C26.22327148 20.45710938 26.22327148 20.45710938 26.25976562 22.421875 C26.25783203 23.65421875 26.25589844 24.8865625 26.25390625 26.15625 C26.25463135 27.28289062 26.25535645 28.40953125 26.25610352 29.5703125 C25.625 32.53125 25.625 32.53125 23.4765625 34.89428711 C18.32962016 37.84893166 12.85923957 37.14547943 7.0625 37.09375 C5.83080078 37.11759766 4.59910156 37.14144531 3.33007812 37.16601562 C2.14736328 37.16408203 0.96464844 37.16214844 -0.25390625 37.16015625 C-1.3322876 37.16088135 -2.41066895 37.16160645 -3.52172852 37.16235352 C-6.375 36.53125 -6.375 36.53125 -8.72436523 34.3828125 C-10.64464019 31.06543172 -10.89031508 29.09005781 -10.90625 25.27734375 C-10.91140625 24.09333984 -10.9165625 22.90933594 -10.921875 21.68945312 C-10.90640625 20.46162109 -10.8909375 19.23378906 -10.875 17.96875 C-10.89046875 16.73705078 -10.9059375 15.50535156 -10.921875 14.23632812 C-10.91671875 13.05361328 -10.9115625 11.87089844 -10.90625 10.65234375 C-10.90173828 9.5739624 -10.89722656 8.49558105 -10.89257812 7.38452148 C-9.73806632 1.02000286 -5.93617944 0.02377189 0 0 Z " fill="#FEFEFE" transform="translate(156.375,93.46875)"/>
<path d="M0 0 C0.85803223 -0.00708481 1.71606445 -0.01416962 2.60009766 -0.02146912 C3.53837402 -0.0189917 4.47665039 -0.01651428 5.44335938 -0.01396179 C6.43384277 -0.01907272 7.42432617 -0.02418365 8.44482422 -0.02944946 C11.72564704 -0.0433733 15.00626048 -0.04238675 18.28710938 -0.04008484 C20.5625008 -0.04396989 22.8378915 -0.04830416 25.11328125 -0.05307007 C29.88478953 -0.06053804 34.65622383 -0.06023655 39.42773438 -0.05497742 C45.55150893 -0.04917839 51.67498146 -0.06612166 57.79870605 -0.08932209 C62.49806498 -0.10403066 67.19735065 -0.10493512 71.89672852 -0.10181236 C74.15503539 -0.1023269 76.41334622 -0.10758938 78.67163086 -0.11762428 C81.8249087 -0.12991718 84.97759154 -0.12324017 88.13085938 -0.11161804 C89.06913574 -0.11926178 90.00741211 -0.12690552 90.97412109 -0.13478088 C91.83215332 -0.12776657 92.69018555 -0.12075226 93.57421875 -0.11352539 C94.69250061 -0.113777 94.69250061 -0.113777 95.83337402 -0.1140337 C98.34968676 0.36859981 99.2662367 1.2285622 100.78710938 3.26069641 C100.54257814 6.60262333 100.1816738 7.86613199 97.78710938 10.26069641 C95.95642185 10.515172 95.95642185 10.515172 93.69447327 10.52139282 C92.8378157 10.52847763 91.98115814 10.53556244 91.09854126 10.54286194 C90.15666962 10.54038452 89.21479797 10.5379071 88.24438477 10.53535461 C86.75887871 10.54302101 86.75887871 10.54302101 85.24336243 10.55084229 C81.95710267 10.56478623 78.67105151 10.5637779 75.38476562 10.56147766 C73.10794496 10.56536197 70.83112502 10.56969608 68.55430603 10.57446289 C63.77682143 10.58193546 58.99941071 10.58162633 54.22192383 10.57637024 C48.09027354 10.57057444 41.95892521 10.58750447 35.82732487 10.61071491 C31.12367475 10.62542476 26.4200978 10.6263277 21.71642876 10.62320518 C19.4553308 10.62371979 17.1942289 10.62898341 14.93315315 10.63901711 C11.77497693 10.65131079 8.61739475 10.6446322 5.45922852 10.63301086 C4.5193811 10.6406546 3.57953369 10.64829834 2.61120605 10.65617371 C1.75172867 10.64915939 0.89225128 10.64214508 0.00672913 10.63491821 C-1.11350096 10.63516983 -1.11350096 10.63516983 -2.25636196 10.63542652 C-4.77527587 10.15298387 -5.66487417 9.27206434 -7.21289062 7.26069641 C-7.58789062 4.69819641 -7.58789062 4.69819641 -7.21289062 2.26069641 C-4.12677808 0.20328805 -3.48616818 0.00959952 0 0 Z " fill="#FEFEFE" transform="translate(81.212890625,145.7393035888672)"/>
<path d="M0 0 C0.85665756 -0.00708481 1.71331512 -0.01416962 2.59593201 -0.02146912 C3.53780365 -0.0189917 4.47967529 -0.01651428 5.4500885 -0.01396179 C6.44042587 -0.01907272 7.43076324 -0.02418365 8.45111084 -0.02944946 C11.73737059 -0.0433934 15.02342175 -0.04238508 18.30970764 -0.04008484 C20.58652831 -0.04396914 22.86334825 -0.04830326 25.14016724 -0.05307007 C29.91765184 -0.06054263 34.69506256 -0.06023351 39.47254944 -0.05497742 C45.60419972 -0.04918162 51.73554806 -0.06611164 57.8671484 -0.08932209 C62.57079852 -0.10403194 67.27437547 -0.10493487 71.97804451 -0.10181236 C74.23914246 -0.10232697 76.50024437 -0.10759059 78.76132011 -0.11762428 C81.91949633 -0.12991797 85.07707852 -0.12323938 88.23524475 -0.11161804 C89.17509216 -0.11926178 90.11493958 -0.12690552 91.08326721 -0.13478088 C91.9427446 -0.12776657 92.80222198 -0.12075226 93.68774414 -0.11352539 C94.4345642 -0.11369313 95.18138426 -0.11386087 95.95083523 -0.1140337 C98.46914156 0.36829259 99.3856635 1.22675793 100.90736389 3.26069641 C100.66283265 6.60262333 100.30192832 7.86613199 97.90736389 10.26069641 C96.07667637 10.515172 96.07667637 10.515172 93.81472778 10.52139282 C92.95807022 10.52847763 92.10141266 10.53556244 91.21879578 10.54286194 C90.27692413 10.54038452 89.33505249 10.5379071 88.36463928 10.53535461 C86.87913322 10.54302101 86.87913322 10.54302101 85.36361694 10.55084229 C82.07735719 10.56478623 78.79130603 10.5637779 75.50502014 10.56147766 C73.22819948 10.56536197 70.95137954 10.56969608 68.67456055 10.57446289 C63.89707594 10.58193546 59.11966522 10.58162633 54.34217834 10.57637024 C48.21052806 10.57057444 42.07917972 10.58750447 35.94757938 10.61071491 C31.24392926 10.62542476 26.54035232 10.6263277 21.83668327 10.62320518 C19.57558532 10.62371979 17.31448342 10.62898341 15.05340767 10.63901711 C11.89523145 10.65131079 8.73764927 10.6446322 5.57948303 10.63301086 C4.63963562 10.6406546 3.69978821 10.64829834 2.73146057 10.65617371 C1.87198318 10.64915939 1.0125058 10.64214508 0.12698364 10.63491821 C-0.99324645 10.63516983 -0.99324645 10.63516983 -2.13610744 10.63542652 C-4.65441378 10.15310023 -5.57093572 9.29463489 -7.09263611 7.26069641 C-6.71547343 2.10613977 -5.18408615 0.01425729 0 0 Z " fill="#FEFEFE" transform="translate(81.09263610839844,171.7393035888672)"/>
<path d="M0 0 C0.33 0 0.66 0 1 0 C1.66964286 7.76785714 1.66964286 7.76785714 -1.375 11.4375 C-5.53128733 15.49482811 -8.61997219 15.15047609 -14.17254639 15.15390015 C-15.02756784 15.1582824 -15.88258929 15.16266465 -16.76352048 15.1671797 C-19.64540905 15.18059694 -22.52726702 15.18675311 -25.40917969 15.19287109 C-27.46868021 15.20076974 -29.52817934 15.20903854 -31.587677 15.21765137 C-38.3657295 15.2438984 -45.14378827 15.25918144 -51.921875 15.2734375 C-54.25269831 15.27879603 -56.58352157 15.28417354 -58.91434479 15.28956985 C-68.6079543 15.31120229 -78.30156212 15.32994004 -87.99518967 15.34119225 C-101.90031302 15.35743768 -115.80515719 15.39062595 -129.71017528 15.44759309 C-139.48007998 15.48625831 -149.2499099 15.50582088 -159.01988912 15.51111281 C-164.85858828 15.51477087 -170.69698986 15.52684066 -176.53560638 15.55921555 C-182.02842147 15.58923587 -187.52075798 15.59562941 -193.01363754 15.58383179 C-195.03005886 15.58361055 -197.046502 15.59195693 -199.06284714 15.60948563 C-201.8156499 15.63211451 -204.56670812 15.62391167 -207.31951904 15.60800171 C-208.1177769 15.6218838 -208.91603475 15.63576588 -209.73848224 15.65006864 C-213.72915436 15.59322726 -216.28548976 15.18429062 -219.48784256 12.70028114 C-222.51851345 9.44265751 -222.82831323 7.37801272 -223 3 C-222.443125 3.78375 -221.88625 4.5675 -221.3125 5.375 C-217.91561027 9.23092889 -215.32874238 9.9105855 -210.21837044 10.25447559 C-208.71269624 10.2667358 -207.20690857 10.26804461 -205.70120239 10.26069641 C-204.45263563 10.26643473 -204.45263563 10.26643473 -203.17884529 10.27228898 C-200.39146401 10.28260246 -197.60428936 10.27862995 -194.81689453 10.2746582 C-192.81768605 10.27900561 -190.81847924 10.28418885 -188.8192749 10.29014587 C-183.38950332 10.30354452 -177.95980131 10.30411354 -172.53001642 10.30158257 C-167.99718091 10.30051338 -163.46435951 10.30539495 -158.93152702 10.310188 C-148.23738099 10.32128633 -137.54327009 10.32171885 -126.84912109 10.31567383 C-115.8172552 10.30963378 -104.78551685 10.32194515 -93.75367272 10.3432439 C-84.28177042 10.36085843 -74.80990872 10.36686146 -65.33799064 10.36360615 C-59.68104262 10.36179281 -54.02418555 10.36443459 -48.36725235 10.37832069 C-43.04682805 10.39089183 -37.72660256 10.38896159 -32.40618134 10.37590981 C-30.45469725 10.37354287 -28.5031992 10.37628289 -26.55173111 10.38453293 C-23.88517839 10.3949922 -21.21929372 10.3869063 -18.55276489 10.3742218 C-17.78281193 10.38159609 -17.01285897 10.38897037 -16.21957409 10.39656812 C-11.11343279 10.34556419 -7.54439285 9.37060277 -3 7 C-1.58231629 5.27213736 -1.58231629 5.27213736 -1.0625 3.3125 C-0.711875 2.219375 -0.36125 1.12625 0 0 Z " fill="#394A57" transform="translate(239,195)"/>
<path d="M0 0 C0.99112793 -0.00953201 1.98225586 -0.01906403 3.00341797 -0.02888489 C4.07221191 -0.02797348 5.14100586 -0.02706207 6.2421875 -0.02612305 C7.88985107 -0.03255074 7.88985107 -0.03255074 9.57080078 -0.03910828 C11.89419871 -0.04485364 14.21761463 -0.04535033 16.54101562 -0.04101562 C20.10317516 -0.03785423 23.66450562 -0.06131808 27.2265625 -0.08666992 C29.48176978 -0.08894267 31.7369793 -0.08964652 33.9921875 -0.08862305 C35.59537842 -0.10243767 35.59537842 -0.10243767 37.23095703 -0.11653137 C38.71764893 -0.10718819 38.71764893 -0.10718819 40.234375 -0.09765625 C41.10690918 -0.09828568 41.97944336 -0.0989151 42.87841797 -0.0995636 C45.59430338 0.35441057 46.51675288 1.0603755 48.1171875 3.2746582 C47.87265626 6.61658513 47.51175193 7.88009378 45.1171875 10.2746582 C42.95397949 10.53535461 42.95397949 10.53535461 40.24023438 10.54931641 C38.71855652 10.56361443 38.71855652 10.56361443 37.1661377 10.57820129 C36.06717163 10.57728989 34.96820557 10.57637848 33.8359375 10.57543945 C32.71151245 10.57972458 31.5870874 10.5840097 30.42858887 10.58842468 C28.0479398 10.59417539 25.66727316 10.59466282 23.28662109 10.59033203 C19.63218416 10.58717117 15.97855554 10.61062609 12.32421875 10.63598633 C10.01562603 10.63825904 7.70703111 10.63896295 5.3984375 10.63793945 C4.29947144 10.6471492 3.20050537 10.65635895 2.0682373 10.66584778 C0.54655945 10.65650459 0.54655945 10.65650459 -1.00585938 10.64697266 C-1.90139526 10.64760208 -2.79693115 10.64823151 -3.71960449 10.64888 C-4.43346313 10.52538681 -5.14732178 10.40189362 -5.8828125 10.2746582 C-8.0215386 7.06656905 -8.36012212 5.99767323 -7.8828125 2.2746582 C-4.64476576 0.11596037 -3.73920458 0.01974476 0 0 Z " fill="#FEFEFE" transform="translate(81.8828125,93.725341796875)"/>
<path d="M0 0 C0.99112793 -0.00953201 1.98225586 -0.01906403 3.00341797 -0.02888489 C4.07221191 -0.02797348 5.14100586 -0.02706207 6.2421875 -0.02612305 C7.88985107 -0.03255074 7.88985107 -0.03255074 9.57080078 -0.03910828 C11.89419871 -0.04485364 14.21761463 -0.04535033 16.54101562 -0.04101562 C20.10317516 -0.03785423 23.66450562 -0.06131808 27.2265625 -0.08666992 C29.48176978 -0.08894267 31.7369793 -0.08964652 33.9921875 -0.08862305 C35.59537842 -0.10243767 35.59537842 -0.10243767 37.23095703 -0.11653137 C38.71764893 -0.10718819 38.71764893 -0.10718819 40.234375 -0.09765625 C41.10690918 -0.09828568 41.97944336 -0.0989151 42.87841797 -0.0995636 C45.59430338 0.35441057 46.51675288 1.0603755 48.1171875 3.2746582 C47.87265626 6.61658513 47.51175193 7.88009378 45.1171875 10.2746582 C42.99867249 10.53535461 42.99867249 10.53535461 40.34790039 10.54931641 C38.8610952 10.56361443 38.8610952 10.56361443 37.34425354 10.57820129 C36.27029831 10.57728989 35.19634308 10.57637848 34.08984375 10.57543945 C32.44005775 10.58186714 32.44005775 10.58186714 30.75694275 10.58842468 C28.42756845 10.59417566 26.0981762 10.59466262 23.76879883 10.59033203 C20.19776865 10.58717419 16.62756814 10.61061518 13.05664062 10.63598633 C10.79687605 10.63825938 8.53710924 10.63896279 6.27734375 10.63793945 C5.20541275 10.6471492 4.13348175 10.65635895 3.02906799 10.66584778 C2.03471237 10.65961899 1.04035675 10.6533902 0.01586914 10.64697266 C-1.29745644 10.64791679 -1.29745644 10.64791679 -2.63731384 10.64888 C-5.36363146 10.1945277 -6.2494331 9.47109538 -7.8828125 7.2746582 C-8.2578125 4.7121582 -8.2578125 4.7121582 -7.8828125 2.2746582 C-4.64476576 0.11596037 -3.73920458 0.01974476 0 0 Z " fill="#FEFEFE" transform="translate(81.8828125,119.725341796875)"/>
<path d="M0 0 C4.29 0 8.58 0 13 0 C12.67 0.66 12.34 1.32 12 2 C8.93090555 2.66719444 6.14213983 3 3 3 C2.01 2.01 1.02 1.02 0 0 Z " fill="#758DA4" transform="translate(161,130)"/>
<path d="M0 0 C0.99 0.33 1.98 0.66 3 1 C2.38125 1.598125 1.7625 2.19625 1.125 2.8125 C-1.13676954 5.00811144 -1.13676954 5.00811144 -3 8 C-3.1875 5.125 -3.1875 5.125 -3 2 C-2.01 1.34 -1.02 0.68 0 0 Z " fill="#BBCAD8" transform="translate(19,80)"/>
</svg>
