<?xml version="1.0" encoding="UTF-8"?>
<svg version="1.1" xmlns="http://www.w3.org/2000/svg" width="256" height="256">
<path d="M0 0 C0.66043808 -0.0065712 1.32087616 -0.0131424 2.00132751 -0.01991272 C4.19212966 -0.03965783 6.38286303 -0.05131431 8.57373047 -0.0612793 C9.32315792 -0.06535482 10.07258537 -0.06943035 10.84472275 -0.07362938 C14.81558711 -0.09450077 18.78641685 -0.10879472 22.75732422 -0.11816406 C26.84614442 -0.12919769 30.93441576 -0.16355848 35.02304268 -0.20333576 C38.17677776 -0.22957639 41.33038396 -0.23786272 44.4842186 -0.24144554 C45.99041299 -0.24629666 47.49660219 -0.25786843 49.00268936 -0.27648354 C58.25023225 -0.38362654 64.94809724 -0.04460892 72.56201172 5.67700195 C73.03767578 6.17200195 73.51333984 6.66700195 74.00341797 7.17700195 C74.55740768 7.74059921 75.1113974 8.30419647 75.68217468 8.88487244 C77.56591797 11.17700195 77.56591797 11.17700195 78.95930481 14.1499176 C80.99608396 18.01270731 82.78880156 20.87997479 86.56591797 23.17700195 C94.98294934 25.47955981 104.19523801 24.58654891 112.82763672 24.3918457 C115.42354658 24.37919654 118.01949221 24.37257867 120.61543274 24.37171936 C126.73957665 24.35813822 132.86117762 24.29498041 138.9846018 24.20390373 C150.60319145 24.03233576 162.2221064 23.96090432 173.84180641 23.917696 C177.65478849 23.89216607 181.4660059 23.83118461 185.27848816 23.76585388 C187.61476802 23.74555791 189.95105651 23.72622394 192.28735352 23.70800781 C193.34567886 23.68052963 194.40400421 23.65305145 195.49440002 23.6247406 C203.51890269 23.60791307 203.51890269 23.60791307 207.20832825 26.58131409 C210.49888421 30.2041905 210.69334182 31.82661765 210.71981812 36.6161499 C210.72841858 37.77138153 210.73701904 38.92661316 210.74588013 40.11685181 C210.75227005 42.02752945 210.75227005 42.02752945 210.75878906 43.97680664 C210.7666896 45.32695731 210.77495853 46.67710587 210.78356934 48.0272522 C210.80979741 52.46777324 210.82509882 56.90830376 210.83935547 61.34887695 C210.84471503 62.87733211 210.85009254 64.40578721 210.85548782 65.93424225 C210.87711867 72.29258278 210.89585502 78.65092077 210.90711021 85.00928879 C210.92334669 94.12193448 210.95651429 103.23415358 211.01351106 112.34663844 C211.05221822 118.75351364 211.07174386 125.16027479 211.07703078 131.56726384 C211.08068355 135.39394132 211.09269575 139.2201639 211.12513351 143.04671478 C211.15522803 146.64853461 211.16152171 150.24962466 211.14974976 153.85154343 C211.14942412 155.79944441 211.17388142 157.74730044 211.1991272 159.69503784 C211.13101194 169.24692489 211.13101194 169.24692489 208.15444946 172.94683838 C203.93581489 176.58142624 200.75558777 176.32759543 195.39337158 176.3309021 C194.53835013 176.33528435 193.68332868 176.33966661 192.80239749 176.34418166 C189.92050892 176.3575989 187.03865095 176.36375507 184.15673828 176.36987305 C182.09723776 176.3777717 180.03773863 176.3860405 177.97824097 176.39465332 C171.20018847 176.42090036 164.4221297 176.43618339 157.64404297 176.45043945 C155.31321966 176.45579798 152.9823964 176.46117549 150.65157318 176.46657181 C140.95796367 176.48820424 131.26435585 176.50694199 121.5707283 176.5181942 C107.66560495 176.53443963 93.76076078 176.5676279 79.85574269 176.62459505 C70.08583799 176.66326027 60.31600807 176.68282284 50.54602885 176.68811476 C44.70732969 176.69177282 38.86892811 176.70384261 33.03031158 176.7362175 C27.5374965 176.76623782 22.04515999 176.77263136 16.55228043 176.76083374 C14.53585911 176.7606125 12.51941597 176.76895889 10.50307083 176.78648758 C7.75026807 176.80911647 4.99920985 176.80091363 2.24639893 176.78500366 C1.44814107 176.79888575 0.64988322 176.81276784 -0.17256427 176.82707059 C-5.91128852 176.74533072 -8.42322509 175.2945457 -12.43408203 171.17700195 C-13.84609422 168.35297757 -13.57312469 165.98632009 -13.58798218 162.82672119 C-13.59455556 161.83820479 -13.59455556 161.83820479 -13.60126173 160.82971835 C-13.61466598 158.61116682 -13.62083222 156.39265502 -13.62695312 154.17407227 C-13.63485285 152.58747172 -13.64312172 151.00087297 -13.6517334 149.41427612 C-13.67796968 144.19457723 -13.69326314 138.97487025 -13.70751953 133.75512695 C-13.71287865 131.95921575 -13.71825615 130.16330459 -13.72365189 128.36739349 C-13.74528342 120.89729635 -13.76402038 113.42720139 -13.77527428 105.95708084 C-13.79151462 95.24694935 -13.82469118 84.5371806 -13.88167512 73.82718587 C-13.92036413 66.29930083 -13.93990576 58.77151285 -13.94519484 51.24353099 C-13.94884989 46.74618632 -13.96088707 42.24922841 -13.99329758 37.75199127 C-14.0233599 33.51984684 -14.02969683 29.28832353 -14.01791382 25.05609512 C-14.01769292 23.50408489 -14.02601134 21.95204599 -14.04356766 20.40013504 C-14.18466602 7.20778948 -14.18466602 7.20778948 -11.02261353 3.26947021 C-7.07635935 0.0794717 -5.04140873 0.04145372 0 0 Z " fill="#17AD9B" transform="translate(29.43408203125,33.822998046875)"/>
<path d="M0 0 C0.66043808 -0.0065712 1.32087616 -0.0131424 2.00132751 -0.01991272 C4.19212966 -0.03965783 6.38286303 -0.05131431 8.57373047 -0.0612793 C9.32315792 -0.06535482 10.07258537 -0.06943035 10.84472275 -0.07362938 C14.81558711 -0.09450077 18.78641685 -0.10879472 22.75732422 -0.11816406 C26.84614442 -0.12919769 30.93441576 -0.16355848 35.02304268 -0.20333576 C38.17677776 -0.22957639 41.33038396 -0.23786272 44.4842186 -0.24144554 C45.99041299 -0.24629666 47.49660219 -0.25786843 49.00268936 -0.27648354 C58.25023225 -0.38362654 64.94809724 -0.04460892 72.56201172 5.67700195 C73.03767578 6.17200195 73.51333984 6.66700195 74.00341797 7.17700195 C74.55740768 7.74059921 75.1113974 8.30419647 75.68217468 8.88487244 C77.56591797 11.17700195 77.56591797 11.17700195 78.95930481 14.1499176 C80.99608396 18.01270731 82.78880156 20.87997479 86.56591797 23.17700195 C94.98294934 25.47955981 104.19523801 24.58654891 112.82763672 24.3918457 C115.42354658 24.37919654 118.01949221 24.37257867 120.61543274 24.37171936 C126.73957665 24.35813822 132.86117762 24.29498041 138.9846018 24.20390373 C150.60319145 24.03233576 162.2221064 23.96090432 173.84180641 23.917696 C177.65478849 23.89216607 181.4660059 23.83118461 185.27848816 23.76585388 C187.61476802 23.74555791 189.95105651 23.72622394 192.28735352 23.70800781 C193.34567886 23.68052963 194.40400421 23.65305145 195.49440002 23.6247406 C203.52221125 23.60790614 203.52221125 23.60790614 207.21614075 26.46803284 C210.05189145 29.73726236 210.39854858 31.90908242 210.56591797 36.17700195 C209.82341797 35.39325195 209.08091797 34.60950195 208.31591797 33.80200195 C204.51846258 30.17715817 201.98906744 28.93607736 196.75511169 28.88265991 C195.30664604 28.861194 195.30664604 28.861194 193.82891846 28.83929443 C192.24938385 28.83122772 192.24938385 28.83122772 190.63793945 28.82299805 C188.96644585 28.80328445 188.96644585 28.80328445 187.26118469 28.78317261 C183.56979092 28.74372265 179.87856 28.72038265 176.18701172 28.70043945 C174.92463243 28.6922884 173.66225315 28.68413734 172.36161995 28.67573929 C166.36603963 28.63832027 160.3705576 28.60919146 154.3748917 28.59251535 C147.47678867 28.57300796 140.57997569 28.52046725 133.68232673 28.43951356 C127.69045767 28.37162997 121.69920858 28.3482022 115.70692635 28.34010696 C113.16766692 28.33038865 110.62842059 28.30719844 108.0894146 28.27003098 C92.59356608 27.45891912 92.59356608 27.45891912 78.73413086 33.10522461 C78.00859512 33.81683746 77.28305939 34.52845032 76.53553772 35.2616272 C71.24252961 40.40886138 63.61165724 40.29684247 56.63012695 40.3347168 C55.96428589 40.33979752 55.29844482 40.34487823 54.61242676 40.35011292 C53.17691263 40.36075386 51.74138256 40.36939824 50.30584526 40.37623215 C48.03137134 40.38809932 45.75708069 40.40756848 43.48268127 40.42935181 C37.01968482 40.49072774 30.55671313 40.54506359 24.09350586 40.57836914 C20.13123356 40.59933037 16.16930639 40.63463397 12.20723152 40.67912674 C10.70142744 40.69326316 9.19556244 40.70200386 7.68969536 40.70518112 C5.58353427 40.71009843 3.47828889 40.73327195 1.37231445 40.76049805 C-0.4225515 40.77262833 -0.4225515 40.77262833 -2.25367737 40.78500366 C-6.74833144 41.33898874 -9.37632612 42.90039999 -12.24658203 46.36450195 C-12.63845703 46.96262695 -13.03033203 47.56075195 -13.43408203 48.17700195 C-13.55799746 42.44791494 -13.64857021 36.71961371 -13.70874023 30.98950195 C-13.7338315 29.04177252 -13.76791264 27.09413676 -13.8112793 25.14672852 C-13.87216952 22.34148005 -13.90034534 19.53747988 -13.92236328 16.73168945 C-13.94816971 15.86583221 -13.97397614 14.99997498 -14.00056458 14.10787964 C-14.00253786 9.82121751 -13.77974332 7.04368356 -11.02856445 3.64233398 C-7.1640983 -0.02976343 -5.25093627 0.04317659 0 0 Z " fill="#057B5C" transform="translate(29.43408203125,33.822998046875)"/>
<path d="M0 0 C2.4375 0.8125 2.4375 0.8125 4.4375 2.8125 C4.7159729 5.634552 4.7159729 5.634552 4.75634766 9.28173828 C4.76639328 9.94527313 4.7764389 10.60880798 4.78678894 11.29244995 C4.81771988 13.48922852 4.83468312 15.68588469 4.8515625 17.8828125 C4.87026623 19.40454163 4.88983904 20.92626031 4.9102478 22.44796753 C4.96165924 26.45593105 5.00123649 30.46392823 5.03839111 34.4720459 C5.07837448 38.56087634 5.12949259 42.64956568 5.1796875 46.73828125 C5.27655339 54.76292459 5.36092379 62.78763753 5.4375 70.8125 C6.07252441 70.14081787 6.70754883 69.46913574 7.36181641 68.77709961 C9.72963237 66.289878 12.11252038 63.81929094 14.50732422 61.3581543 C15.53983033 60.2904749 16.56596341 59.21659351 17.58544922 58.13647461 C19.0535921 56.58327379 20.54333825 55.05394312 22.0390625 53.52734375 C23.37445068 52.13696899 23.37445068 52.13696899 24.73681641 50.71850586 C27.4375 48.8125 27.4375 48.8125 30.77490234 49.01782227 C32.09288818 49.41118774 32.09288818 49.41118774 33.4375 49.8125 C34.375 52.3125 34.375 52.3125 34.4375 55.8125 C33.33642578 57.46704102 33.33642578 57.46704102 31.6953125 59.25390625 C31.05424561 59.95338379 30.41317871 60.65286133 29.75268555 61.37353516 C28.98867432 62.17839355 28.22466309 62.98325195 27.4375 63.8125 C26.53620361 64.76302246 25.63490723 65.71354492 24.70629883 66.69287109 C22.15781568 69.35882766 19.57826872 71.99252768 16.98510742 74.61499023 C15.90454262 75.71226734 14.829393 76.81490155 13.75952148 77.92260742 C12.19414956 79.54273761 10.61295287 81.14579389 9.02734375 82.74609375 C8.31927834 83.48816322 8.31927834 83.48816322 7.59690857 84.245224 C4.3901838 87.43197006 1.99340365 88.78813067 -2.5625 88.8125 C-4.46118164 87.80078125 -4.46118164 87.80078125 -6.16015625 86.125 C-6.8370752 85.4753125 -7.51399414 84.825625 -8.21142578 84.15625 C-8.98728027 83.3828125 -9.76313477 82.609375 -10.5625 81.8125 C-12.03335295 80.4194554 -13.50424585 79.02645265 -14.97592163 77.63427734 C-17.12710275 75.58285501 -19.24736118 73.50101399 -21.36499023 71.41503906 C-22.4614066 70.34039713 -23.5640524 69.27207671 -24.67260742 68.20996094 C-26.29520953 66.65436121 -27.89714255 65.07985676 -29.49609375 63.5 C-30.23816322 62.79967651 -30.23816322 62.79967651 -30.995224 62.08520508 C-34.49671293 58.56234598 -35.47434131 55.75233746 -35.5625 50.8125 C-33.5625 48.8125 -33.5625 48.8125 -31.26879883 48.38671875 C-27.40335971 48.99486722 -25.96725456 50.84035496 -23.26171875 53.625 C-22.53986137 54.35746948 -22.53986137 54.35746948 -21.80342102 55.10473633 C-20.27345495 56.66262632 -18.76181111 58.23700586 -17.25 59.8125 C-16.21405322 60.87353219 -15.17695586 61.9334423 -14.13867188 62.9921875 C-11.59981536 65.58608508 -9.07710351 68.19505942 -6.5625 70.8125 C-6.55663376 69.96725266 -6.55076752 69.12200531 -6.54472351 68.25114441 C-6.48685058 60.29045735 -6.41480526 52.33005248 -6.32678509 44.3696394 C-6.28203281 40.27696382 -6.24278768 36.1843889 -6.21606445 32.09155273 C-6.19007951 28.14266285 -6.149712 24.19415934 -6.09931374 20.24550819 C-6.08261229 18.73805861 -6.07111844 17.23054214 -6.06488609 15.72301292 C-6.0552801 13.61334989 -6.02726581 11.50468261 -5.99487305 9.39526367 C-5.98376999 8.19391281 -5.97266693 6.99256195 -5.96122742 5.75480652 C-5.5625 2.8125 -5.5625 2.8125 -4.19563293 0.88935852 C-2.5625 -0.1875 -2.5625 -0.1875 0 0 Z " fill="#F4FDFD" transform="translate(128.5625,86.1875)"/>
<path d="M0 0 C0.33 0 0.66 0 1 0 C1.59865471 5.98654709 1.59865471 5.98654709 -0.04296875 8.765625 C-1.83858185 10.93510476 -3.46143928 12.73071964 -6 14 C-8.732303 14.10668754 -11.43961216 14.15221485 -14.17254639 14.15390015 C-15.02756784 14.1582824 -15.88258929 14.16266465 -16.76352048 14.1671797 C-19.64540905 14.18059694 -22.52726702 14.18675311 -25.40917969 14.19287109 C-27.46868021 14.20076974 -29.52817934 14.20903854 -31.587677 14.21765137 C-38.3657295 14.2438984 -45.14378827 14.25918144 -51.921875 14.2734375 C-54.25269831 14.27879603 -56.58352157 14.28417354 -58.91434479 14.28956985 C-68.6079543 14.31120229 -78.30156212 14.32994004 -87.99518967 14.34119225 C-101.90031302 14.35743768 -115.80515719 14.39062595 -129.71017528 14.44759309 C-139.48007998 14.48625831 -149.2499099 14.50582088 -159.01988912 14.51111281 C-164.85858828 14.51477087 -170.69698986 14.52684066 -176.53560638 14.55921555 C-182.02842147 14.58923587 -187.52075798 14.59562941 -193.01363754 14.58383179 C-195.03005886 14.58361055 -197.046502 14.59195693 -199.06284714 14.60948563 C-201.8156499 14.63211451 -204.56670812 14.62391167 -207.31951904 14.60800171 C-208.1177769 14.6218838 -208.91603475 14.63576588 -209.73848224 14.65006864 C-215.47720649 14.56832877 -217.98914306 13.11754375 -222 9 C-223.35439668 6.29120665 -223.06501451 3.99066732 -223 1 C-222.566875 1.598125 -222.13375 2.19625 -221.6875 2.8125 C-219.67444353 5.42201765 -217.96480355 7.51759822 -215 9 C-212.29062346 9.10448241 -209.60657323 9.14779547 -206.89665222 9.14717102 C-205.62531235 9.15268605 -205.62531235 9.15268605 -204.32828885 9.1583125 C-201.47170151 9.16937684 -198.61515051 9.17319781 -195.75854492 9.17700195 C-193.7171263 9.18326447 -191.67570882 9.18991108 -189.6342926 9.19691467 C-184.0764053 9.21434285 -178.51852661 9.22488116 -172.96061873 9.2331202 C-169.49077119 9.23826597 -166.02092635 9.24434186 -162.5510807 9.25063133 C-151.70203438 9.26968755 -140.85299489 9.28391838 -130.00393504 9.2922433 C-117.46676304 9.30202158 -104.92976732 9.3283548 -92.39265746 9.36874419 C-82.71108891 9.39886755 -73.029571 9.41370854 -63.34795648 9.41702431 C-57.56131544 9.41937892 -51.77486263 9.42839273 -45.98827171 9.45348549 C-40.54557299 9.47670537 -35.10318724 9.48102394 -29.66045189 9.47072411 C-27.66135621 9.47022717 -25.66224545 9.47659386 -23.66319656 9.49028015 C-20.93651896 9.50790553 -18.210976 9.50093927 -15.48429871 9.48774719 C-14.29421551 9.50420106 -14.29421551 9.50420106 -13.08009022 9.52098733 C-9.37651622 9.47764715 -7.21425257 9.13506775 -4.05176258 7.1413908 C-1.86073584 4.85465229 -0.91967752 3.0098537 0 0 Z " fill="#0B595F" transform="translate(239,196)"/>
<path d="M0 0 C0.98807396 -0.0076664 0.98807396 -0.0076664 1.99610901 -0.01548767 C4.17856881 -0.02941374 6.36071388 -0.02842466 8.54321289 -0.02612305 C10.05774555 -0.03000846 11.57227711 -0.03434281 13.08680725 -0.03910828 C16.26363657 -0.04657705 19.44035478 -0.04627459 22.6171875 -0.04101562 C26.69073572 -0.03522139 30.76382919 -0.05214727 34.83730221 -0.0753603 C37.96597458 -0.09008419 41.09453711 -0.09097118 44.22323799 -0.08785057 C45.7251634 -0.08836451 47.22709484 -0.09361584 48.72898674 -0.10366249 C50.8287405 -0.11598353 52.9276045 -0.10926233 55.02734375 -0.09765625 C56.2226622 -0.09828568 57.41798065 -0.0989151 58.64952087 -0.0995636 C61.57836914 0.2746582 61.57836914 0.2746582 63.49952698 1.63777161 C64.57836914 3.2746582 64.57836914 3.2746582 64.39086914 5.8371582 C63.57836914 8.2746582 63.57836914 8.2746582 61.57836914 10.2746582 C58.77650452 10.53535461 58.77650452 10.53535461 55.15673828 10.54931641 C54.49802231 10.55442734 53.83930634 10.55953827 53.16062927 10.56480408 C50.97816947 10.57873015 48.7960244 10.57774106 46.61352539 10.57543945 C45.09899274 10.57932487 43.58446117 10.58365922 42.06993103 10.58842468 C38.89310171 10.59589346 35.71638351 10.595591 32.53955078 10.59033203 C28.46600256 10.5845378 24.39290909 10.60146368 20.31943607 10.6246767 C17.1907637 10.6394006 14.06220117 10.64028758 10.93350029 10.63716698 C9.43157488 10.63768091 7.92964344 10.64293225 6.42775154 10.6529789 C4.32799778 10.66529994 2.22913378 10.65857873 0.12939453 10.64697266 C-1.06592392 10.64760208 -2.26124237 10.64823151 -3.49278259 10.64888 C-6.42163086 10.2746582 -6.42163086 10.2746582 -8.3427887 8.9115448 C-9.42163086 7.2746582 -9.42163086 7.2746582 -9.23413086 4.7121582 C-7.52706195 -0.40904853 -4.90852578 0.01893266 0 0 Z " fill="#F0FDFE" transform="translate(100.421630859375,179.725341796875)"/>
<path d="M0 0 C0.66 0.33 1.32 0.66 2 1 C1.21625 1.763125 0.4325 2.52625 -0.375 3.3125 C-3.07257717 5.90891805 -3.07257717 5.90891805 -5 9 C-5.3125 6.1875 -5.3125 6.1875 -5 3 C-2.625 1.0625 -2.625 1.0625 0 0 Z " fill="#52CEA0" transform="translate(21,79)"/>
</svg>
