<?xml version="1.0" encoding="UTF-8"?>
<svg version="1.1" xmlns="http://www.w3.org/2000/svg" width="256" height="256">
<path d="M0 0 C0.70920593 -0.0065712 1.41841187 -0.0131424 2.14910889 -0.01991272 C4.50223902 -0.03966211 6.85530513 -0.05131493 9.20849609 -0.0612793 C10.01308636 -0.06535482 10.81767662 -0.06943035 11.64664841 -0.07362938 C15.90928644 -0.09450201 20.17189221 -0.10879576 24.43457031 -0.11816406 C28.82604405 -0.12920148 33.21700729 -0.1635666 37.60830116 -0.20333576 C40.99365135 -0.22956205 44.37888136 -0.23786144 47.76432419 -0.24144554 C49.38215946 -0.24629987 50.99998977 -0.25788085 52.61772537 -0.27648354 C62.43014485 -0.38225982 69.99804219 -0.45123502 77.68115234 6.5090332 C78.37853516 7.32758789 79.07591797 8.14614258 79.79443359 8.98950195 C80.49955078 9.80032227 81.20466797 10.61114258 81.93115234 11.4465332 C84.10693359 14.17700195 84.10693359 14.17700195 85.00350952 15.94441223 C86.18085375 18.09739259 87.24545783 19.56441143 89.10693359 21.17700195 C92.98044207 22.21439202 96.76900468 22.10769551 100.75927734 22.04418945 C102.45861168 22.05906906 102.45861168 22.05906906 104.192276 22.07424927 C107.81039299 22.09938124 111.42634786 22.07701232 115.04443359 22.05200195 C118.65831756 22.05873754 122.27204084 22.0750867 125.88587952 22.09402466 C128.13296534 22.10230747 130.38010691 22.10159868 132.62718201 22.09078979 C133.65166946 22.08814117 134.67615692 22.08549255 135.73168945 22.08276367 C136.62705917 22.07719452 137.52242889 22.07162537 138.44493103 22.06588745 C141.10693359 22.17700195 141.10693359 22.17700195 143.90138245 22.67501831 C147.88724238 23.29919693 151.74374668 23.31365741 155.77099609 23.30297852 C156.62054871 23.30484665 157.47010132 23.30671478 158.34539795 23.30863953 C160.18198342 23.31262904 162.01857381 23.31471703 163.85516357 23.31510162 C167.76355259 23.31853254 171.67177752 23.33990884 175.58010864 23.36033249 C182.84883919 23.39829109 190.1173893 23.42961298 197.38623047 23.42749023 C202.4508377 23.42670317 207.51483636 23.45005778 212.57928467 23.48937225 C214.50572982 23.49982841 216.43224523 23.50135912 218.35870361 23.49372101 C221.05409686 23.48409628 223.7476445 23.50528346 226.44287109 23.53344727 C227.23473816 23.52325058 228.02660522 23.51305389 228.84246826 23.50254822 C234.57594589 23.60979441 237.09698255 25.06559829 241.10693359 29.17700195 C242.5927914 32.14871757 242.25856108 35.17935312 242.26083374 38.43841553 C242.26521599 39.19543172 242.26959825 39.95244792 242.2741133 40.73240399 C242.28752488 43.282624 242.29368544 45.83280943 242.29980469 48.38305664 C242.3077038 50.20610715 242.31597263 52.02915609 242.32458496 53.85220337 C242.35082732 59.85107932 242.36611489 65.84996234 242.38037109 71.84887695 C242.38572988 73.91224421 242.39110739 75.97561142 242.39650345 78.03897858 C242.41813549 86.62083201 242.4368729 95.20268354 242.44812584 103.78455734 C242.46436905 116.09218227 242.49755224 128.39949167 242.55452669 140.70699763 C242.59320225 149.35589251 242.61275572 158.0047029 242.6180464 166.65368199 C242.62170315 171.82170143 242.63375877 176.98938451 242.66614914 182.15731049 C242.69618771 187.01978759 242.70255663 191.88172409 242.69076538 196.74427414 C242.69054429 198.52848956 242.69887851 200.31272976 242.71641922 202.09685898 C242.73907887 204.53444249 242.73083244 206.97006037 242.7149353 209.40765381 C242.72881739 210.1125289 242.74269948 210.817404 242.75700223 211.54363894 C242.66755644 217.11604885 240.90342566 219.39530865 237.10693359 223.17700195 C234.84190997 224.30951376 233.6123272 224.30600194 231.09819412 224.31401634 C230.25493049 224.31909088 229.41166686 224.32416543 228.54284978 224.32939374 C227.14531315 224.33014038 227.14531315 224.33014038 225.71954346 224.3309021 C224.73384833 224.33528435 223.7481532 224.33966661 222.73258853 224.34418166 C219.40847512 224.35760468 216.08438824 224.36375636 212.76025391 224.36987305 C210.38548664 224.37777122 208.01072059 224.38603999 205.63595581 224.39465332 C198.49395621 224.41863843 191.3519513 224.43380582 184.20992482 224.44671339 C182.19305986 224.45042473 180.17619559 224.45439801 178.15933132 224.45846605 C165.63786059 224.48370223 153.11638878 224.50575778 140.59489822 224.5181942 C137.69396206 224.52112395 134.79302593 224.52408561 131.89208984 224.52709961 C131.17106593 224.52784566 130.45004203 224.52859171 129.70716891 224.52936037 C118.02626169 224.54201476 106.34550667 224.57523832 94.66467062 224.61690144 C82.67514573 224.6593154 70.68569876 224.68288861 58.69609904 224.68811476 C51.96316107 224.69152954 45.23046091 224.70329218 38.49759674 224.7362175 C32.1643255 224.7662192 25.83146932 224.7726379 19.49814224 224.76083374 C17.17211233 224.76061235 14.8460636 224.76897118 12.52009964 224.78648758 C9.34698236 224.80908519 6.17538209 224.80092691 3.0022583 224.78500366 C2.0794901 224.79888575 1.1567219 224.81276784 0.20599103 224.82707059 C-4.13387512 224.77332677 -7.00171207 224.54397425 -10.4490242 221.76400185 C-14.37275082 217.61076737 -14.04359251 214.47591651 -14.04696655 209.00445557 C-14.05134881 208.14943412 -14.05573106 207.29441267 -14.06024611 206.41348147 C-14.07366335 203.53159291 -14.07981952 200.64973493 -14.0859375 197.76782227 C-14.09383615 195.70832174 -14.10210495 193.64882261 -14.11071777 191.58932495 C-14.13696481 184.81127245 -14.15224784 178.03321368 -14.16650391 171.25512695 C-14.17186244 168.92430365 -14.17723994 166.59348038 -14.18263626 164.26265717 C-14.2042687 154.56904766 -14.22300645 144.87543983 -14.23425865 135.18181229 C-14.25050408 121.27668894 -14.28369236 107.37184476 -14.3406595 93.46682668 C-14.37932472 83.69692198 -14.39888729 73.92709206 -14.40417922 64.15711284 C-14.40783727 58.31841368 -14.41990707 52.48001209 -14.45228195 46.64139557 C-14.48230228 41.14858048 -14.48869581 35.65624397 -14.47689819 30.16336441 C-14.47667696 28.14694309 -14.48502334 26.13049996 -14.50255203 24.11415482 C-14.52518092 21.36135205 -14.51697808 18.61029383 -14.50106812 15.85748291 C-14.5149502 15.05922506 -14.52883229 14.2609672 -14.54313505 13.43851972 C-14.46139518 7.69979546 -13.01061016 5.1878589 -8.89306641 1.17700195 C-5.94319383 -0.29793433 -3.29286488 0.02520596 0 0 Z " fill="#FCCB40" transform="translate(13.89306640625,19.822998046875)"/>
<path d="M0 0 C1.71888931 -0.01051392 1.71888931 -0.01051392 3.47250366 -0.02124023 C7.2391626 -0.03876361 11.00506267 -0.0272159 14.77172852 -0.01367188 C17.40291996 -0.01636858 20.03411042 -0.02025248 22.66529846 -0.02526855 C28.17196785 -0.03252548 33.67842197 -0.0230101 39.18505859 -0.00390625 C45.5284949 0.01784818 51.87141655 0.0108141 58.21484035 -0.01121187 C64.34501232 -0.03163603 70.47495829 -0.02936592 76.60515022 -0.01768494 C79.2009698 -0.01502517 81.7968026 -0.01826086 84.39260674 -0.02760315 C88.02771143 -0.03781506 91.66184241 -0.02220043 95.296875 0 C96.35952072 -0.00809692 97.42216644 -0.01619385 98.51701355 -0.02453613 C107.2377327 0.07362871 115.28495165 2.11592793 121.96313477 8.01757812 C139.87636504 26.98452783 132.21313477 44.42380446 132.21313477 72.51757812 C76.77313477 72.51757812 21.33313477 72.51757812 -35.78686523 72.51757812 C-35.78686523 18.77844769 -35.78686523 18.77844769 -25.47436523 8.01757812 C-17.79893367 1.35091757 -9.89371571 -0.07524272 0 0 Z " fill="#0A7AC9" transform="translate(79.786865234375,171.482421875)"/>
<path d="M0 0 C0.70920593 -0.0065712 1.41841187 -0.0131424 2.14910889 -0.01991272 C4.50223902 -0.03966211 6.85530513 -0.05131493 9.20849609 -0.0612793 C10.01308636 -0.06535482 10.81767662 -0.06943035 11.64664841 -0.07362938 C15.90928644 -0.09450201 20.17189221 -0.10879576 24.43457031 -0.11816406 C28.82604405 -0.12920148 33.21700729 -0.1635666 37.60830116 -0.20333576 C40.99365135 -0.22956205 44.37888136 -0.23786144 47.76432419 -0.24144554 C49.38215946 -0.24629987 50.99998977 -0.25788085 52.61772537 -0.27648354 C62.43014485 -0.38225982 69.99804219 -0.45123502 77.68115234 6.5090332 C78.37853516 7.32758789 79.07591797 8.14614258 79.79443359 8.98950195 C80.49955078 9.80032227 81.20466797 10.61114258 81.93115234 11.4465332 C84.10693359 14.17700195 84.10693359 14.17700195 85.00350952 15.94441223 C86.18085375 18.09739259 87.24545783 19.56441143 89.10693359 21.17700195 C92.98044207 22.21439202 96.76900468 22.10769551 100.75927734 22.04418945 C102.45861168 22.05906906 102.45861168 22.05906906 104.192276 22.07424927 C107.81039299 22.09938124 111.42634786 22.07701232 115.04443359 22.05200195 C118.65831756 22.05873754 122.27204084 22.0750867 125.88587952 22.09402466 C128.13296534 22.10230747 130.38010691 22.10159868 132.62718201 22.09078979 C133.65166946 22.08814117 134.67615692 22.08549255 135.73168945 22.08276367 C136.62705917 22.07719452 137.52242889 22.07162537 138.44493103 22.06588745 C141.10693359 22.17700195 141.10693359 22.17700195 143.90138245 22.67501831 C147.88724238 23.29919693 151.74374668 23.31365741 155.77099609 23.30297852 C156.62054871 23.30484665 157.47010132 23.30671478 158.34539795 23.30863953 C160.18198342 23.31262904 162.01857381 23.31471703 163.85516357 23.31510162 C167.76355259 23.31853254 171.67177752 23.33990884 175.58010864 23.36033249 C182.84883919 23.39829109 190.1173893 23.42961298 197.38623047 23.42749023 C202.4508377 23.42670317 207.51483636 23.45005778 212.57928467 23.48937225 C214.50572982 23.49982841 216.43224523 23.50135912 218.35870361 23.49372101 C221.05409686 23.48409628 223.7476445 23.50528346 226.44287109 23.53344727 C227.23473816 23.52325058 228.02660522 23.51305389 228.84246826 23.50254822 C232.8289697 23.57711677 235.39574528 23.99659513 238.59375 26.47894287 C241.62665633 29.73495667 241.93524004 31.79881626 242.10693359 36.17700195 C241.52943359 35.39325195 240.95193359 34.60950195 240.35693359 33.80200195 C237.52839229 30.5020371 235.71612021 29.33169375 231.37257004 28.91414642 C230.3173679 28.9081971 229.26216576 28.90224777 228.17498779 28.89611816 C226.96099808 28.88469788 225.74700836 28.87327759 224.49623108 28.86151123 C223.15390056 28.85902069 221.81156957 28.85677046 220.46923828 28.85473633 C219.05306991 28.84547575 217.63690652 28.83542586 216.2207489 28.824646 C212.37553179 28.79843255 208.53038446 28.78551472 204.68509197 28.77662468 C202.28089908 28.77075706 199.87672514 28.76254625 197.47254181 28.75361633 C189.94511052 28.72627429 182.4177227 28.70693769 174.8902452 28.69921255 C166.21069335 28.69025537 157.53177212 28.65517645 148.85241199 28.59721136 C142.13717453 28.55392587 135.42211414 28.53380124 128.70673871 28.53113031 C124.69888628 28.52903768 120.69162694 28.51729917 116.68392181 28.48149109 C112.91124404 28.4484383 109.13960215 28.44426027 105.36683083 28.4617691 C103.98658528 28.46330517 102.60628302 28.45468538 101.22617912 28.4348526 C93.76135026 28.33391929 88.41920877 28.43663444 82.77432632 33.66373444 C76.76716907 39.11562095 69.6696407 40.29588276 61.84741211 40.3347168 C61.12334167 40.33979752 60.39927124 40.34487823 59.65325928 40.35011292 C58.08456687 40.36079305 56.51585945 40.36942242 54.94714546 40.37623215 C52.46280657 40.38804901 49.97863934 40.4075079 47.49436951 40.42935181 C40.43225824 40.49088173 33.37016653 40.54503055 26.30786133 40.57836914 C21.98481374 40.59932416 17.66208279 40.63462999 13.33921623 40.67912674 C11.69385442 40.69327597 10.04843663 40.70200675 8.40301704 40.70518112 C6.10029102 40.7100949 3.79840471 40.73326239 1.49584961 40.76049805 C0.18665054 40.7685849 -1.12254852 40.77667175 -2.47142029 40.78500366 C-7.12184097 41.31777558 -9.73769812 42.78259195 -12.70556641 46.36450195 C-13.09744141 46.96262695 -13.48931641 47.56075195 -13.89306641 48.17700195 C-14.01698184 42.44791494 -14.10755459 36.71961371 -14.16772461 30.98950195 C-14.19281587 29.04177252 -14.22689702 27.09413676 -14.27026367 25.14672852 C-14.3311539 22.34148005 -14.35932972 19.53747988 -14.38134766 16.73168945 C-14.40715408 15.86583221 -14.43296051 14.99997498 -14.45954895 14.10787964 C-14.46152224 9.82121751 -14.2387277 7.04368356 -11.48754883 3.64233398 C-7.50860493 -0.1385426 -5.42439854 0.04152225 0 0 Z " fill="#D69800" transform="translate(13.89306640625,19.822998046875)"/>
<path d="M0 0 C0.92833649 0.00045319 1.85667297 0.00090637 2.81314087 0.00137329 C3.78543137 -0.00198532 4.75772186 -0.00534393 5.75947571 -0.00880432 C8.99099994 -0.01834566 12.22247254 -0.02025901 15.45401001 -0.02133179 C17.68981447 -0.0245421 19.92561872 -0.027906 22.16142273 -0.03141785 C26.85490405 -0.03741706 31.54836692 -0.03925693 36.24185181 -0.03866577 C42.26930734 -0.03856409 48.29664522 -0.05221879 54.32407284 -0.06943798 C58.943604 -0.08053187 63.56310649 -0.08258579 68.18264961 -0.08205605 C70.40549691 -0.08324002 72.62834486 -0.08768496 74.85117912 -0.09538841 C77.95447003 -0.10513596 81.05750246 -0.10233108 84.16079712 -0.09628296 C85.08710938 -0.10190247 86.01342163 -0.10752197 86.96780396 -0.11331177 C87.81052353 -0.10911728 88.6532431 -0.10492279 89.52149963 -0.1006012 C90.25579162 -0.10114596 90.9900836 -0.10169073 91.74662685 -0.10225201 C93.55166626 0.14663696 93.55166626 0.14663696 95.55166626 2.14663696 C94.9961107 6.70219252 94.9961107 6.70219252 93.55166626 8.14663696 C90.45732388 8.25264098 87.38517795 8.29341151 84.29019165 8.29190063 C82.83175591 8.29693855 82.83175591 8.29693855 81.34385681 8.30207825 C78.11233258 8.31161959 74.88085997 8.31353294 71.64932251 8.31460571 C69.41351805 8.31781603 67.1777138 8.32117992 64.94190979 8.32469177 C60.24842847 8.33069098 55.55496559 8.33253086 50.86148071 8.3319397 C44.83402518 8.33183802 38.8066873 8.34549272 32.77925968 8.36271191 C28.15972852 8.37380579 23.54022603 8.37585971 18.92068291 8.37532997 C16.69783561 8.37651394 14.47498766 8.38095889 12.2521534 8.38866234 C9.14886249 8.39840988 6.04583006 8.395605 2.9425354 8.38955688 C1.55306702 8.39798615 1.55306702 8.39798615 0.13552856 8.40658569 C-0.70719101 8.4023912 -1.54991058 8.39819672 -2.41816711 8.39387512 C-3.1524591 8.39441989 -3.88675108 8.39496466 -4.64329433 8.39552593 C-6.44833374 8.14663696 -6.44833374 8.14663696 -8.44833374 6.14663696 C-7.6647312 -0.27890388 -6.25719649 0.03177384 0 0 Z " fill="#104A8B" transform="translate(84.44833374023438,203.85336303710938)"/>
<path d="M0 0 C0.8618541 -0.00426498 1.72370819 -0.00852997 2.61167908 -0.01292419 C4.02593674 -0.01224442 4.02593674 -0.01224442 5.46876526 -0.0115509 C6.46429916 -0.01490952 7.45983307 -0.01826813 8.48553467 -0.02172852 C11.78798156 -0.03125206 15.09037774 -0.03318286 18.39283752 -0.03425598 C20.69150819 -0.03746945 22.99017864 -0.0408336 25.28884888 -0.04434204 C30.11672946 -0.05033813 34.94459215 -0.05218164 39.7724762 -0.05158997 C45.9356504 -0.05148874 52.09870837 -0.06509749 58.26185513 -0.08236217 C63.01560993 -0.09352962 67.76933714 -0.09550766 72.52310371 -0.09498024 C74.79350749 -0.09615488 77.0639121 -0.10054749 79.3343029 -0.10831261 C104.76758634 -0.18709923 104.76758634 -0.18709923 111.77174377 2.13371277 C112.26674377 3.12371277 112.26674377 3.12371277 112.77174377 4.13371277 C72.18174377 3.80371277 31.59174377 3.47371277 -10.22825623 3.13371277 C-6.64955307 0.74791067 -4.20255112 0.00940823 0 0 Z " fill="#D9AB2E" transform="translate(78.22825622558594,168.8662872314453)"/>
<path d="M0 0 C-0.56976563 0.27585938 -1.13953125 0.55171875 -1.7265625 0.8359375 C-10.87109938 5.51819178 -17.30131776 11.2298331 -21.34405518 20.82865906 C-22.65816014 25.1786742 -22.48329071 29.67325734 -22.51171875 34.18359375 C-22.52966995 35.23909927 -22.54762115 36.2946048 -22.56611633 37.38209534 C-22.62004359 40.73385698 -22.65405917 44.08547762 -22.6875 47.4375 C-22.72068853 49.7181185 -22.7551796 51.99871844 -22.79101562 54.27929688 C-22.87575988 59.85273811 -22.94418389 65.426198 -23 71 C-23.66 71 -24.32 71 -25 71 C-25.24435247 65.25733287 -25.45871321 59.51455549 -25.64697266 53.76977539 C-25.71485692 51.82123953 -25.79051468 49.87295663 -25.87451172 47.92504883 C-26.48266263 33.65548378 -26.6805018 19.64312408 -17 8 C-11.63065019 2.7017674 -7.79127743 -0.29401047 0 0 Z " fill="#D9AC2F" transform="translate(67,173)"/>
<path d="M0 0 C-0.56976563 0.27585938 -1.13953125 0.55171875 -1.7265625 0.8359375 C-9.7398093 4.93894016 -15.91281765 9.8256353 -20 18 C-20.66 18 -21.32 18 -22 18 C-20.3702068 10.75647465 -15.5386038 6.11550317 -10 1.5 C-6.43606537 -0.28196731 -3.93425174 -0.31474014 0 0 Z " fill="#D9B23D" transform="translate(67,173)"/>
<path d="M0 0 C0.66 0.33 1.32 0.66 2 1 C1.360625 1.556875 0.72125 2.11375 0.0625 2.6875 C-2.19680987 5.22066561 -2.63149047 6.68341424 -3 10 C-3.33 10 -3.66 10 -4 10 C-4 7.36 -4 4.72 -4 2 C-2.125 0.9375 -2.125 0.9375 0 0 Z " fill="#FDDC7C" transform="translate(4,66)"/>
<path d="M0 0 C-5 2.5 -5 2.5 -10 5 C-10 4.01 -10 3.02 -10 2 C-6.3558226 -0.4294516 -4.28758728 -0.16179575 0 0 Z " fill="#C4AD4C" transform="translate(67,173)"/>
</svg>
