<?xml version="1.0" encoding="UTF-8"?>
<svg version="1.1" xmlns="http://www.w3.org/2000/svg" width="256" height="256">
<path d="M0 0 C0.66043808 -0.0065712 1.32087616 -0.0131424 2.00132751 -0.01991272 C4.19212966 -0.03965783 6.38286303 -0.05131431 8.57373047 -0.0612793 C9.32315792 -0.06535482 10.07258537 -0.06943035 10.84472275 -0.07362938 C14.81558711 -0.09450077 18.78641685 -0.10879472 22.75732422 -0.11816406 C26.84614442 -0.12919769 30.93441576 -0.16355848 35.02304268 -0.20333576 C38.17677776 -0.22957639 41.33038396 -0.23786272 44.4842186 -0.24144554 C45.99041299 -0.24629666 47.49660219 -0.25786843 49.00268936 -0.27648354 C58.25023225 -0.38362654 64.94809724 -0.04460892 72.56201172 5.67700195 C73.03767578 6.17200195 73.51333984 6.66700195 74.00341797 7.17700195 C74.55740768 7.74059921 75.1113974 8.30419647 75.68217468 8.88487244 C77.56591797 11.17700195 77.56591797 11.17700195 78.95930481 14.1499176 C80.99608396 18.01270731 82.78880156 20.87997479 86.56591797 23.17700195 C94.98294934 25.47955981 104.19523801 24.58654891 112.82763672 24.3918457 C115.42354658 24.37919654 118.01949221 24.37257867 120.61543274 24.37171936 C126.73957665 24.35813822 132.86117762 24.29498041 138.9846018 24.20390373 C150.60319145 24.03233576 162.2221064 23.96090432 173.84180641 23.917696 C177.65478849 23.89216607 181.4660059 23.83118461 185.27848816 23.76585388 C187.61476802 23.74555791 189.95105651 23.72622394 192.28735352 23.70800781 C193.34567886 23.68052963 194.40400421 23.65305145 195.49440002 23.6247406 C203.51890269 23.60791307 203.51890269 23.60791307 207.20832825 26.58131409 C210.49888421 30.2041905 210.69334182 31.82661765 210.71981812 36.6161499 C210.72841858 37.77138153 210.73701904 38.92661316 210.74588013 40.11685181 C210.75227005 42.02752945 210.75227005 42.02752945 210.75878906 43.97680664 C210.7666896 45.32695731 210.77495853 46.67710587 210.78356934 48.0272522 C210.80979741 52.46777324 210.82509882 56.90830376 210.83935547 61.34887695 C210.84471503 62.87733211 210.85009254 64.40578721 210.85548782 65.93424225 C210.87711867 72.29258278 210.89585502 78.65092077 210.90711021 85.00928879 C210.92334669 94.12193448 210.95651429 103.23415358 211.01351106 112.34663844 C211.05221822 118.75351364 211.07174386 125.16027479 211.07703078 131.56726384 C211.08068355 135.39394132 211.09269575 139.2201639 211.12513351 143.04671478 C211.15522803 146.64853461 211.16152171 150.24962466 211.14974976 153.85154343 C211.14942412 155.79944441 211.17388142 157.74730044 211.1991272 159.69503784 C211.13101194 169.24692489 211.13101194 169.24692489 208.15444946 172.94683838 C204.9413605 175.71509288 203.5320693 176.30081761 199.4175415 176.32176208 C198.11381592 176.33210983 198.11381592 176.33210983 196.78375244 176.34266663 C195.82789246 176.34528 194.87203247 176.34789337 193.88720703 176.35058594 C192.37966858 176.36061646 192.37966858 176.36061646 190.8416748 176.37084961 C188.65362014 176.38492368 186.46555059 176.39681018 184.27747345 176.40679741 C180.81430177 176.42317725 177.35123999 176.44641502 173.88812256 176.47169495 C164.03956563 176.54254634 154.19096315 176.60255369 144.34228516 176.65380859 C138.3228591 176.68561709 132.30355795 176.72690107 126.28423309 176.77400398 C123.98935954 176.79001685 121.69445718 176.80234171 119.39954376 176.81091118 C116.18696941 176.82307761 112.97468801 176.84723465 109.76220703 176.87402344 C108.81444397 176.87461258 107.86668091 176.87520172 106.89019775 176.87580872 C102.0305528 176.92945025 98.1422734 177.34923967 93.56591797 179.17700195 C91.41943359 179.43579102 91.41943359 179.43579102 89.47216797 179.44262695 C88.39128906 179.44649414 88.39128906 179.44649414 87.28857422 179.45043945 C86.55509766 179.44270508 85.82162109 179.4349707 85.06591797 179.42700195 C84.33244141 179.43473633 83.59896484 179.4424707 82.84326172 179.45043945 C82.12267578 179.44786133 81.40208984 179.4452832 80.65966797 179.44262695 C80.01707031 179.44037109 79.37447266 179.43811523 78.71240234 179.43579102 C76.56591797 179.17700195 76.56591797 179.17700195 73.91015625 178.17579651 C70.16812627 177.05819697 66.77446661 176.90557146 62.91162109 176.9375 C62.16935776 176.93548584 61.42709442 176.93347168 60.66233826 176.93139648 C59.05984366 176.9278666 57.45733509 176.9285987 55.85484314 176.93317223 C53.31537939 176.93879104 50.776368 176.92956585 48.23693848 176.91596985 C41.02024223 176.87894292 33.80370278 176.86031058 26.58691406 176.87158203 C22.16420726 176.87744111 17.74214099 176.85913883 13.31956482 176.82569313 C11.63872569 176.81775445 9.95781647 176.81899534 8.2769928 176.82971764 C5.92402708 176.84408625 3.57307034 176.82773578 1.22021484 176.8046875 C0.5312059 176.81645523 -0.15780304 176.82822296 -0.86769104 176.84034729 C-6.40066057 176.73440661 -8.67311325 174.94039141 -12.43408203 171.17700195 C-13.84609422 168.35297757 -13.57312469 165.98632009 -13.58798218 162.82672119 C-13.59455556 161.83820479 -13.59455556 161.83820479 -13.60126173 160.82971835 C-13.61466598 158.61116682 -13.62083222 156.39265502 -13.62695312 154.17407227 C-13.63485285 152.58747172 -13.64312172 151.00087297 -13.6517334 149.41427612 C-13.67796968 144.19457723 -13.69326314 138.97487025 -13.70751953 133.75512695 C-13.71287865 131.95921575 -13.71825615 130.16330459 -13.72365189 128.36739349 C-13.74528342 120.89729635 -13.76402038 113.42720139 -13.77527428 105.95708084 C-13.79151462 95.24694935 -13.82469118 84.5371806 -13.88167512 73.82718587 C-13.92036413 66.29930083 -13.93990576 58.77151285 -13.94519484 51.24353099 C-13.94884989 46.74618632 -13.96088707 42.24922841 -13.99329758 37.75199127 C-14.0233599 33.51984684 -14.02969683 29.28832353 -14.01791382 25.05609512 C-14.01769292 23.50408489 -14.02601134 21.95204599 -14.04356766 20.40013504 C-14.18466602 7.20778948 -14.18466602 7.20778948 -11.02261353 3.26947021 C-7.07635935 0.0794717 -5.04140873 0.04145372 0 0 Z " fill="#D37A78" transform="translate(29.43408203125,33.822998046875)"/>
<path d="M0 0 C0.66043808 -0.0065712 1.32087616 -0.0131424 2.00132751 -0.01991272 C4.19212966 -0.03965783 6.38286303 -0.05131431 8.57373047 -0.0612793 C9.32315792 -0.06535482 10.07258537 -0.06943035 10.84472275 -0.07362938 C14.81558711 -0.09450077 18.78641685 -0.10879472 22.75732422 -0.11816406 C26.84614442 -0.12919769 30.93441576 -0.16355848 35.02304268 -0.20333576 C38.17677776 -0.22957639 41.33038396 -0.23786272 44.4842186 -0.24144554 C45.99041299 -0.24629666 47.49660219 -0.25786843 49.00268936 -0.27648354 C58.25023225 -0.38362654 64.94809724 -0.04460892 72.56201172 5.67700195 C73.03767578 6.17200195 73.51333984 6.66700195 74.00341797 7.17700195 C74.55740768 7.74059921 75.1113974 8.30419647 75.68217468 8.88487244 C77.56591797 11.17700195 77.56591797 11.17700195 78.95930481 14.1499176 C80.99608396 18.01270731 82.78880156 20.87997479 86.56591797 23.17700195 C94.98294934 25.47955981 104.19523801 24.58654891 112.82763672 24.3918457 C115.42354658 24.37919654 118.01949221 24.37257867 120.61543274 24.37171936 C126.73957665 24.35813822 132.86117762 24.29498041 138.9846018 24.20390373 C150.60319145 24.03233576 162.2221064 23.96090432 173.84180641 23.917696 C177.65478849 23.89216607 181.4660059 23.83118461 185.27848816 23.76585388 C187.61476802 23.74555791 189.95105651 23.72622394 192.28735352 23.70800781 C193.34567886 23.68052963 194.40400421 23.65305145 195.49440002 23.6247406 C203.52221125 23.60790614 203.52221125 23.60790614 207.21614075 26.46803284 C210.05189145 29.73726236 210.39854858 31.90908242 210.56591797 36.17700195 C209.82341797 35.39325195 209.08091797 34.60950195 208.31591797 33.80200195 C204.51846258 30.17715817 201.98906744 28.93607736 196.75511169 28.88265991 C195.30664604 28.861194 195.30664604 28.861194 193.82891846 28.83929443 C192.24938385 28.83122772 192.24938385 28.83122772 190.63793945 28.82299805 C188.96644585 28.80328445 188.96644585 28.80328445 187.26118469 28.78317261 C183.56979092 28.74372265 179.87856 28.72038265 176.18701172 28.70043945 C174.92463243 28.6922884 173.66225315 28.68413734 172.36161995 28.67573929 C166.36603963 28.63832027 160.3705576 28.60919146 154.3748917 28.59251535 C147.47678867 28.57300796 140.57997569 28.52046725 133.68232673 28.43951356 C127.69045767 28.37162997 121.69920858 28.3482022 115.70692635 28.34010696 C113.16766692 28.33038865 110.62842059 28.30719844 108.0894146 28.27003098 C92.59356608 27.45891912 92.59356608 27.45891912 78.73413086 33.10522461 C78.00859512 33.81683746 77.28305939 34.52845032 76.53553772 35.2616272 C71.24252961 40.40886138 63.61165724 40.29684247 56.63012695 40.3347168 C55.96428589 40.33979752 55.29844482 40.34487823 54.61242676 40.35011292 C53.17691263 40.36075386 51.74138256 40.36939824 50.30584526 40.37623215 C48.03137134 40.38809932 45.75708069 40.40756848 43.48268127 40.42935181 C37.01968482 40.49072774 30.55671313 40.54506359 24.09350586 40.57836914 C20.13123356 40.59933037 16.16930639 40.63463397 12.20723152 40.67912674 C10.70142744 40.69326316 9.19556244 40.70200386 7.68969536 40.70518112 C5.58353427 40.71009843 3.47828889 40.73327195 1.37231445 40.76049805 C-0.4225515 40.77262833 -0.4225515 40.77262833 -2.25367737 40.78500366 C-6.74833144 41.33898874 -9.37632612 42.90039999 -12.24658203 46.36450195 C-12.63845703 46.96262695 -13.03033203 47.56075195 -13.43408203 48.17700195 C-13.55799746 42.44791494 -13.64857021 36.71961371 -13.70874023 30.98950195 C-13.7338315 29.04177252 -13.76791264 27.09413676 -13.8112793 25.14672852 C-13.87216952 22.34148005 -13.90034534 19.53747988 -13.92236328 16.73168945 C-13.94816971 15.86583221 -13.97397614 14.99997498 -14.00056458 14.10787964 C-14.00253786 9.82121751 -13.77974332 7.04368356 -11.02856445 3.64233398 C-7.1640983 -0.02976343 -5.25093627 0.04317659 0 0 Z " fill="#B75F19" transform="translate(29.43408203125,33.822998046875)"/>
<path d="M0 0 C6.43359171 0.52388731 11.9901834 1.72689836 18.0625 3.875 C19.18881836 4.25978516 19.18881836 4.25978516 20.33789062 4.65234375 C22.5647972 5.41838421 24.78275367 6.20648521 27 7 C27.73790771 7.25620117 28.47581543 7.51240234 29.23608398 7.77636719 C33.93924422 9.45342147 36.79311014 11.11286077 40 15 C41.44500128 19.33500383 41.18431828 23.52219087 41.1875 28.0625 C41.19974609 28.98611328 41.21199219 29.90972656 41.22460938 30.86132812 C41.22654297 31.74369141 41.22847656 32.62605469 41.23046875 33.53515625 C41.23457764 34.343479 41.23868652 35.15180176 41.24291992 35.98461914 C41 38 41 38 39 40 C31.65714737 39.73157025 24.92489921 37.23390129 18 34.9375 C16.84371094 34.56044922 15.68742187 34.18339844 14.49609375 33.79492188 C11.6618867 32.86970552 8.83002218 31.93792289 6 31 C6.00666183 31.78625259 6.01332367 32.57250519 6.02018738 33.38258362 C6.08043462 40.81203727 6.12604327 48.24137154 6.15543652 55.6710062 C6.17105618 59.49016857 6.19222614 63.30912815 6.22631836 67.12817383 C6.2590448 70.81753963 6.27688081 74.50671104 6.28463173 78.19621086 C6.29015153 79.59995519 6.30093021 81.00368953 6.31719017 82.40735054 C6.43724218 93.20578712 5.82957714 99.98833967 -2 108 C-7.80653485 111.43652063 -13.23305132 112.86124801 -20 112 C-27.18303513 109.76707148 -31.61003841 105.01948086 -35.375 98.6875 C-36.92778077 92.01054268 -36.77652208 85.84743585 -33.3359375 79.8203125 C-30.02119822 75.30373792 -25.52592434 71.31569627 -20 70 C-13.60436534 69.32223525 -8.84553304 70.39038704 -3 73 C-2.67 73.33 -2.34 73.66 -2 74 C-1.98969254 73.10241974 -1.97938507 72.20483948 -1.96876526 71.28005981 C-1.87090898 62.83354966 -1.76841162 54.38711147 -1.66066074 45.94072151 C-1.60542582 41.59803965 -1.55200491 37.25535105 -1.50268555 32.91259766 C-1.45505039 28.72395735 -1.40270789 24.53540022 -1.34705925 20.34685898 C-1.32663185 18.74644916 -1.3079194 17.14601653 -1.29092598 15.54556656 C-1.26689045 13.30910216 -1.23683488 11.07279553 -1.20532227 8.83642578 C-1.18977798 7.56179474 -1.1742337 6.2871637 -1.15821838 4.97390747 C-1 2 -1 2 0 0 Z " fill="#F9F9F9" transform="translate(129,80)"/>
<path d="M0 0 C0.33 0 0.66 0 1 0 C1.66964286 7.76785714 1.66964286 7.76785714 -1.375 11.4375 C-4.57425287 14.56058018 -5.84773682 15.12286828 -10.14837646 15.14476013 C-11.45210205 15.15510788 -11.45210205 15.15510788 -12.78216553 15.16566467 C-13.73802551 15.16827805 -14.6938855 15.17089142 -15.67871094 15.17358398 C-17.18624939 15.1836145 -17.18624939 15.1836145 -18.72424316 15.19384766 C-20.91229783 15.20792173 -23.10036738 15.21980822 -25.28844452 15.22979546 C-28.75161619 15.2461753 -32.21467797 15.26941307 -35.67779541 15.29469299 C-45.52635234 15.36554438 -55.37495482 15.42555174 -65.22363281 15.47680664 C-71.24305887 15.50861514 -77.26236002 15.54989912 -83.28168488 15.59700203 C-85.57655843 15.61301489 -87.87146079 15.62533976 -90.16637421 15.63390923 C-93.37894856 15.64607566 -96.59122996 15.67023269 -99.80371094 15.69702148 C-100.751474 15.69761063 -101.69923706 15.69819977 -102.67572021 15.69880676 C-107.53536517 15.7524483 -111.42364457 16.17223772 -116 18 C-118.14648438 18.25878906 -118.14648438 18.25878906 -120.09375 18.265625 C-121.17462891 18.26949219 -121.17462891 18.26949219 -122.27734375 18.2734375 C-123.01082031 18.26570313 -123.74429688 18.25796875 -124.5 18.25 C-125.23347656 18.25773437 -125.96695313 18.26546875 -126.72265625 18.2734375 C-127.44324219 18.27085937 -128.16382813 18.26828125 -128.90625 18.265625 C-129.54884766 18.26336914 -130.19144531 18.26111328 -130.85351562 18.25878906 C-133 18 -133 18 -135.65576172 16.99879456 C-139.3977917 15.88119501 -142.79145136 15.7285695 -146.65429688 15.76049805 C-147.39656021 15.75848389 -148.13882355 15.75646973 -148.90357971 15.75439453 C-150.50607431 15.75086465 -152.10858287 15.75159675 -153.71107483 15.75617027 C-156.25053858 15.76178909 -158.78954997 15.75256389 -161.32897949 15.7389679 C-168.54567574 15.70194096 -175.76221519 15.68330863 -182.97900391 15.69458008 C-187.40171071 15.70043915 -191.82377698 15.68213688 -196.24635315 15.64869118 C-197.92719228 15.6407525 -199.60810149 15.64199339 -201.28892517 15.65271568 C-203.64189089 15.6670843 -205.99284763 15.65073382 -208.34570312 15.62768555 C-209.03471207 15.63945328 -209.72372101 15.65122101 -210.43360901 15.66334534 C-214.14454587 15.59229141 -216.53948054 14.93986697 -219.42370605 12.6990509 C-222.52994901 9.44479963 -222.82656385 7.42262192 -223 3 C-222.443125 3.78375 -221.88625 4.5675 -221.3125 5.375 C-217.91561027 9.23092889 -215.32874238 9.9105855 -210.21837044 10.25447559 C-208.71269624 10.2667358 -207.20690857 10.26804461 -205.70120239 10.26069641 C-204.45263563 10.26643473 -204.45263563 10.26643473 -203.17884529 10.27228898 C-200.39146401 10.28260246 -197.60428936 10.27862995 -194.81689453 10.2746582 C-192.81768605 10.27900561 -190.81847924 10.28418885 -188.8192749 10.29014587 C-183.38950332 10.30354452 -177.95980131 10.30411354 -172.53001642 10.30158257 C-167.99718091 10.30051338 -163.46435951 10.30539495 -158.93152702 10.310188 C-148.23738099 10.32128633 -137.54327009 10.32171885 -126.84912109 10.31567383 C-115.8172552 10.30963378 -104.78551685 10.32194515 -93.75367272 10.3432439 C-84.28177042 10.36085843 -74.80990872 10.36686146 -65.33799064 10.36360615 C-59.68104262 10.36179281 -54.02418555 10.36443459 -48.36725235 10.37832069 C-43.04682805 10.39089183 -37.72660256 10.38896159 -32.40618134 10.37590981 C-30.45469725 10.37354287 -28.5031992 10.37628289 -26.55173111 10.38453293 C-23.88517839 10.3949922 -21.21929372 10.3869063 -18.55276489 10.3742218 C-17.78281193 10.38159609 -17.01285897 10.38897037 -16.21957409 10.39656812 C-11.11343279 10.34556419 -7.54439285 9.37060277 -3 7 C-1.58231629 5.27213736 -1.58231629 5.27213736 -1.0625 3.3125 C-0.711875 2.219375 -0.36125 1.12625 0 0 Z " fill="#65415E" transform="translate(239,195)"/>
<path d="M0 0 C1.93719378 -0.05406122 3.87481921 -0.09282025 5.8125 -0.125 C6.89144531 -0.14820313 7.97039062 -0.17140625 9.08203125 -0.1953125 C12 0 12 0 15 2 C14 3 14 3 12.109375 3.1328125 C7.9459326 3.11902627 4.06074971 3.04793541 0 2 C0 1.34 0 0.68 0 0 Z " fill="#1E1E1E" transform="translate(101,210)"/>
<path d="M0 0 C0.66 0.33 1.32 0.66 2 1 C1.21625 1.763125 0.4325 2.52625 -0.375 3.3125 C-3.07257717 5.90891805 -3.07257717 5.90891805 -5 9 C-5.3125 6.1875 -5.3125 6.1875 -5 3 C-2.625 1.0625 -2.625 1.0625 0 0 Z " fill="#F89D62" transform="translate(21,79)"/>
</svg>
