<?xml version="1.0" encoding="UTF-8"?>
<svg version="1.1" xmlns="http://www.w3.org/2000/svg" width="256" height="256">
<path d="M0 0 C0.66043808 -0.0065712 1.32087616 -0.0131424 2.00132751 -0.01991272 C4.19212966 -0.03965783 6.38286303 -0.05131431 8.57373047 -0.0612793 C9.32315792 -0.06535482 10.07258537 -0.06943035 10.84472275 -0.07362938 C14.81558711 -0.09450077 18.78641685 -0.10879472 22.75732422 -0.11816406 C26.84614442 -0.12919769 30.93441576 -0.16355848 35.02304268 -0.20333576 C38.17677776 -0.22957639 41.33038396 -0.23786272 44.4842186 -0.24144554 C45.99041299 -0.24629666 47.49660219 -0.25786843 49.00268936 -0.27648354 C58.25023225 -0.38362654 64.94809724 -0.04460892 72.56201172 5.67700195 C73.03767578 6.17200195 73.51333984 6.66700195 74.00341797 7.17700195 C74.55740768 7.74059921 75.1113974 8.30419647 75.68217468 8.88487244 C77.56591797 11.17700195 77.56591797 11.17700195 78.95930481 14.1499176 C80.99608396 18.01270731 82.78880156 20.87997479 86.56591797 23.17700195 C94.98294934 25.47955981 104.19523801 24.58654891 112.82763672 24.3918457 C115.42354658 24.37919654 118.01949221 24.37257867 120.61543274 24.37171936 C126.73957665 24.35813822 132.86117762 24.29498041 138.9846018 24.20390373 C150.60319145 24.03233576 162.2221064 23.96090432 173.84180641 23.917696 C177.65478849 23.89216607 181.4660059 23.83118461 185.27848816 23.76585388 C187.61476802 23.74555791 189.95105651 23.72622394 192.28735352 23.70800781 C193.34567886 23.68052963 194.40400421 23.65305145 195.49440002 23.6247406 C203.51890269 23.60791307 203.51890269 23.60791307 207.20832825 26.58131409 C210.49888421 30.2041905 210.69334182 31.82661765 210.71981812 36.6161499 C210.72841858 37.77138153 210.73701904 38.92661316 210.74588013 40.11685181 C210.75227005 42.02752945 210.75227005 42.02752945 210.75878906 43.97680664 C210.7666896 45.32695731 210.77495853 46.67710587 210.78356934 48.0272522 C210.80979741 52.46777324 210.82509882 56.90830376 210.83935547 61.34887695 C210.84471503 62.87733211 210.85009254 64.40578721 210.85548782 65.93424225 C210.87711867 72.29258278 210.89585502 78.65092077 210.90711021 85.00928879 C210.92334669 94.12193448 210.95651429 103.23415358 211.01351106 112.34663844 C211.05221822 118.75351364 211.07174386 125.16027479 211.07703078 131.56726384 C211.08068355 135.39394132 211.09269575 139.2201639 211.12513351 143.04671478 C211.15522803 146.64853461 211.16152171 150.24962466 211.14974976 153.85154343 C211.14942412 155.79944441 211.17388142 157.74730044 211.1991272 159.69503784 C211.13101194 169.24692489 211.13101194 169.24692489 208.15444946 172.94683838 C203.93581489 176.58142624 200.75558777 176.32759543 195.39337158 176.3309021 C194.53835013 176.33528435 193.68332868 176.33966661 192.80239749 176.34418166 C189.92050892 176.3575989 187.03865095 176.36375507 184.15673828 176.36987305 C182.09723776 176.3777717 180.03773863 176.3860405 177.97824097 176.39465332 C171.20018847 176.42090036 164.4221297 176.43618339 157.64404297 176.45043945 C155.31321966 176.45579798 152.9823964 176.46117549 150.65157318 176.46657181 C140.95796367 176.48820424 131.26435585 176.50694199 121.5707283 176.5181942 C107.66560495 176.53443963 93.76076078 176.5676279 79.85574269 176.62459505 C70.08583799 176.66326027 60.31600807 176.68282284 50.54602885 176.68811476 C44.70732969 176.69177282 38.86892811 176.70384261 33.03031158 176.7362175 C27.5374965 176.76623782 22.04515999 176.77263136 16.55228043 176.76083374 C14.53585911 176.7606125 12.51941597 176.76895889 10.50307083 176.78648758 C7.75026807 176.80911647 4.99920985 176.80091363 2.24639893 176.78500366 C1.44814107 176.79888575 0.64988322 176.81276784 -0.17256427 176.82707059 C-5.91128852 176.74533072 -8.42322509 175.2945457 -12.43408203 171.17700195 C-13.84609422 168.35297757 -13.57312469 165.98632009 -13.58798218 162.82672119 C-13.59455556 161.83820479 -13.59455556 161.83820479 -13.60126173 160.82971835 C-13.61466598 158.61116682 -13.62083222 156.39265502 -13.62695312 154.17407227 C-13.63485285 152.58747172 -13.64312172 151.00087297 -13.6517334 149.41427612 C-13.67796968 144.19457723 -13.69326314 138.97487025 -13.70751953 133.75512695 C-13.71287865 131.95921575 -13.71825615 130.16330459 -13.72365189 128.36739349 C-13.74528342 120.89729635 -13.76402038 113.42720139 -13.77527428 105.95708084 C-13.79151462 95.24694935 -13.82469118 84.5371806 -13.88167512 73.82718587 C-13.92036413 66.29930083 -13.93990576 58.77151285 -13.94519484 51.24353099 C-13.94884989 46.74618632 -13.96088707 42.24922841 -13.99329758 37.75199127 C-14.0233599 33.51984684 -14.02969683 29.28832353 -14.01791382 25.05609512 C-14.01769292 23.50408489 -14.02601134 21.95204599 -14.04356766 20.40013504 C-14.18466602 7.20778948 -14.18466602 7.20778948 -11.02261353 3.26947021 C-7.07635935 0.0794717 -5.04140873 0.04145372 0 0 Z " fill="#1A8ED3" transform="translate(29.43408203125,33.822998046875)"/>
<path d="M0 0 C7.17820301 4.36866979 12.87182016 12.127192 18.47851562 18.32128906 C20.37722298 20.41620431 22.28889776 22.49897916 24.20166016 24.58105469 C26.92310225 27.54368666 29.63800751 30.51231534 32.35449219 33.47949219 C37.55864709 39.16322363 42.77051081 44.83955982 48 50.5 C52.78112172 55.67563169 57.55275719 60.85970983 62.30859375 66.05859375 C64.17247843 68.09561141 66.03949955 70.12938984 67.91015625 72.16015625 C68.83603161 73.16918449 69.76181628 74.17829595 70.6875 75.1875 C71.51636719 76.08855469 72.34523437 76.98960937 73.19921875 77.91796875 C75 80 75 80 75 81 C23.19 81 -28.62 81 -82 81 C-75.29927007 72.06569343 -75.29927007 72.06569343 -72.0625 69 C-68.78297791 65.88062443 -65.83905138 62.5467045 -62.87573242 59.13183594 C-59.87339819 55.71957738 -56.7482279 52.42628183 -53.625 49.125 C-48.78999363 43.99216386 -44.0063189 38.82526665 -39.3125 33.5625 C-35.80940265 29.68068942 -32.23354687 25.867154 -28.66674805 22.04394531 C-25.78572917 18.94830562 -22.9457889 15.83143194 -20.1875 12.625 C-8.34960117 -1.07736789 -8.34960117 -1.07736789 0 0 Z " fill="#E2EBFE" transform="translate(130,125)"/>
<path d="M0 0 C0.66043808 -0.0065712 1.32087616 -0.0131424 2.00132751 -0.01991272 C4.19212966 -0.03965783 6.38286303 -0.05131431 8.57373047 -0.0612793 C9.32315792 -0.06535482 10.07258537 -0.06943035 10.84472275 -0.07362938 C14.81558711 -0.09450077 18.78641685 -0.10879472 22.75732422 -0.11816406 C26.84614442 -0.12919769 30.93441576 -0.16355848 35.02304268 -0.20333576 C38.17677776 -0.22957639 41.33038396 -0.23786272 44.4842186 -0.24144554 C45.99041299 -0.24629666 47.49660219 -0.25786843 49.00268936 -0.27648354 C58.25023225 -0.38362654 64.94809724 -0.04460892 72.56201172 5.67700195 C73.03767578 6.17200195 73.51333984 6.66700195 74.00341797 7.17700195 C74.55740768 7.74059921 75.1113974 8.30419647 75.68217468 8.88487244 C77.56591797 11.17700195 77.56591797 11.17700195 78.95930481 14.1499176 C80.99608396 18.01270731 82.78880156 20.87997479 86.56591797 23.17700195 C94.98294934 25.47955981 104.19523801 24.58654891 112.82763672 24.3918457 C115.42354658 24.37919654 118.01949221 24.37257867 120.61543274 24.37171936 C126.73957665 24.35813822 132.86117762 24.29498041 138.9846018 24.20390373 C150.60319145 24.03233576 162.2221064 23.96090432 173.84180641 23.917696 C177.65478849 23.89216607 181.4660059 23.83118461 185.27848816 23.76585388 C187.61476802 23.74555791 189.95105651 23.72622394 192.28735352 23.70800781 C193.34567886 23.68052963 194.40400421 23.65305145 195.49440002 23.6247406 C203.52221125 23.60790614 203.52221125 23.60790614 207.21614075 26.46803284 C210.05189145 29.73726236 210.39854858 31.90908242 210.56591797 36.17700195 C209.82341797 35.39325195 209.08091797 34.60950195 208.31591797 33.80200195 C204.51460966 30.17348038 201.98802895 28.93466806 196.74838257 28.88938904 C195.78129364 28.87652359 194.81420471 28.86365814 193.81781006 28.85040283 C192.76321594 28.84659607 191.70862183 28.84278931 190.62207031 28.83886719 C188.94816727 28.82156303 188.94816727 28.82156303 187.240448 28.8039093 C183.54423631 28.76956768 179.84819178 28.75109145 176.15185547 28.7355957 C174.88822803 28.7286928 173.6246006 28.72178989 172.32268143 28.71467781 C166.3222926 28.68252133 160.32199866 28.65806644 154.3215431 28.64586395 C147.41506606 28.63163312 140.50961513 28.5878383 133.60347784 28.51836246 C127.60627427 28.46013037 121.6095592 28.44076051 115.6120491 28.43498421 C113.0691965 28.42710176 110.52635139 28.40749076 107.98368454 28.37576103 C104.4170299 28.33419624 100.85294817 28.33717686 97.28613281 28.35058594 C96.24368408 28.3285611 95.20123535 28.30653625 94.12719727 28.28384399 C87.1360179 28.37274615 83.17876885 30.13391463 77.71369362 34.49170017 C71.4816406 39.38182454 64.46485108 40.29290736 56.74365234 40.3347168 C56.07795731 40.33979752 55.41226227 40.34487823 54.72639465 40.35011292 C53.28813468 40.36077084 51.8498586 40.36940876 50.41157532 40.37623215 C48.13298033 40.3880782 45.85457004 40.40754327 43.5760498 40.42935181 C37.10024159 40.49079106 30.62445651 40.5450432 24.1484375 40.57836914 C20.18083447 40.59933175 16.21357598 40.63463978 12.24617004 40.67912674 C10.73757483 40.6932658 9.22891875 40.70200446 7.72026062 40.70518112 C5.60920177 40.71009883 3.49905627 40.73327447 1.38818359 40.76049805 C0.18859009 40.7685849 -1.01100342 40.77667175 -2.24694824 40.78500366 C-6.74591906 41.33835002 -9.37360454 42.89711532 -12.24658203 46.36450195 C-12.63845703 46.96262695 -13.03033203 47.56075195 -13.43408203 48.17700195 C-13.55799746 42.44791494 -13.64857021 36.71961371 -13.70874023 30.98950195 C-13.7338315 29.04177252 -13.76791264 27.09413676 -13.8112793 25.14672852 C-13.87216952 22.34148005 -13.90034534 19.53747988 -13.92236328 16.73168945 C-13.94816971 15.86583221 -13.97397614 14.99997498 -14.00056458 14.10787964 C-14.00253786 9.82121751 -13.77974332 7.04368356 -11.02856445 3.64233398 C-7.1640983 -0.02976343 -5.25093627 0.04317659 0 0 Z " fill="#026FC7" transform="translate(29.43408203125,33.822998046875)"/>
<path d="M0 0 C0.20625 0.556875 0.4125 1.11375 0.625 1.6875 C2.5209883 4.87620759 4.83276515 7.11828168 8 9 C11.01426105 9.47949219 13.45343367 9.66994945 16.45701599 9.62145996 C17.29433181 9.62784878 18.13164764 9.6342376 18.99433666 9.64082003 C21.79285713 9.65604927 24.58995714 9.63562278 27.38842773 9.61523438 C29.39763864 9.61873622 31.40684677 9.62439551 33.41604614 9.63204956 C38.86865044 9.64629888 44.32075051 9.6292337 49.77330661 9.60576439 C55.48087294 9.58565672 61.18841831 9.59153496 66.89601135 9.59387207 C76.48194696 9.59381849 86.06768549 9.57405944 95.65356445 9.54199219 C106.73261683 9.50510978 117.81141094 9.49631519 128.8905167 9.5032897 C139.55110625 9.50959773 150.21160733 9.49883414 160.87217903 9.47932434 C165.40750452 9.47115437 169.94278476 9.46844007 174.47811699 9.47001648 C179.82075139 9.47089622 185.16314083 9.45665487 190.5057106 9.43078995 C192.46524556 9.42363503 194.4248066 9.42154127 196.38435173 9.42490768 C199.06183265 9.42862969 201.73860156 9.41384986 204.41600037 9.39440918 C205.18916216 9.39973711 205.96232395 9.40506503 206.75891489 9.41055441 C211.86816644 9.34667131 215.48372637 8.45180035 220 6 C221.97806411 2.96588893 221.97806411 2.96588893 223 0 C223.33 0 223.66 0 224 0 C224.59865471 5.98654709 224.59865471 5.98654709 222.95703125 8.765625 C221.16141815 10.93510476 219.53856072 12.73071964 217 14 C214.267697 14.10668754 211.56038784 14.15221485 208.82745361 14.15390015 C207.97243216 14.1582824 207.11741071 14.16266465 206.23647952 14.1671797 C203.35459095 14.18059694 200.47273298 14.18675311 197.59082031 14.19287109 C195.53131979 14.20076974 193.47182066 14.20903854 191.412323 14.21765137 C184.6342705 14.2438984 177.85621173 14.25918144 171.078125 14.2734375 C168.74730169 14.27879603 166.41647843 14.28417354 164.08565521 14.28956985 C154.3920457 14.31120229 144.69843788 14.32994004 135.00481033 14.34119225 C121.09968698 14.35743768 107.19484281 14.39062595 93.28982472 14.44759309 C83.51992002 14.48625831 73.7500901 14.50582088 63.98011088 14.51111281 C58.14141172 14.51477087 52.30301014 14.52684066 46.46439362 14.55921555 C40.97157853 14.58923587 35.47924202 14.59562941 29.98636246 14.58383179 C27.96994114 14.58361055 25.953498 14.59195693 23.93715286 14.60948563 C21.1843501 14.63211451 18.43329188 14.62391167 15.68048096 14.60800171 C14.8822231 14.6218838 14.08396525 14.63576588 13.26151776 14.65006864 C7.52279351 14.56832877 5.01085694 13.11754375 1 9 C-0.4783226 6.04335481 -0.06032783 3.25770263 0 0 Z " fill="#0D539A" transform="translate(16,196)"/>
<path d="M0 0 C3.50252011 2.04313673 5.77361702 4.09787233 7 8 C7.480151 12.32135899 7.29173086 14.4668367 5.1875 18.3125 C2.9074753 21.11367321 1.34717449 22.80363219 -2.3046875 23.3359375 C-6.57276853 23.40080195 -9.24596584 23.43985326 -13 21.25 C-16.52101476 17.2888584 -17.50674653 14.49289925 -17.39453125 9.03515625 C-16.68647817 5.38272403 -14.62465368 3.56216192 -12 1 C-8.29778834 -0.85110583 -4.04093083 -0.46454795 0 0 Z " fill="#EEF0F1" transform="translate(163,84)"/>
<path d="M0 0 C0.66 0.33 1.32 0.66 2 1 C1.21625 1.763125 0.4325 2.52625 -0.375 3.3125 C-3.07257717 5.90891805 -3.07257717 5.90891805 -5 9 C-5.3125 6.1875 -5.3125 6.1875 -5 3 C-2.625 1.0625 -2.625 1.0625 0 0 Z " fill="#49B9EC" transform="translate(21,79)"/>
</svg>
