<?xml version="1.0" encoding="UTF-8"?>
<svg version="1.1" xmlns="http://www.w3.org/2000/svg" width="256" height="256">
<path d="M0 0 C2.76252488 1.89892918 4.40161296 3.99902795 6.38671875 6.69921875 C14.45819142 16.85837051 24.09918166 22.30900797 37.0859375 23.85546875 C48.77862726 24.25578908 59.30339697 20.35905301 68.203125 12.8125 C71.18625444 9.94534535 73.51374404 7.08229467 75.69921875 3.57421875 C78.19921875 0.51171875 78.19921875 0.51171875 81.390625 0.140625 C85.54878963 0.5457795 88.88448898 1.66155022 92.63671875 3.38671875 C93.32048584 3.69407959 94.00425293 4.00144043 94.70874023 4.31811523 C104.89467571 9.05356954 116.51125218 15.13722632 124.19921875 23.51171875 C125.35337437 28.96772715 123.34294866 33.23835498 121.171875 38.1796875 C117.58705563 46.77461587 118.09086447 57.45456082 121.16796875 66.14453125 C126.16717539 77.61998285 133.54621745 85.62108914 145.15625 90.56640625 C149.71339295 91.98210406 154.28770804 92.41878795 159.03515625 92.76171875 C163.16427535 93.74047291 164.6710968 95.12863193 167.19921875 98.51171875 C168.13990793 103.34284012 168.32763159 108.0366871 168.33203125 112.94921875 C168.33346634 113.97486938 168.33346634 113.97486938 168.33493042 115.02124023 C168.33560621 116.45654391 168.33379419 117.89185076 168.32958984 119.32714844 C168.32423298 121.50593017 168.32955533 123.68450581 168.3359375 125.86328125 C168.33527661 127.26692753 168.33399523 128.67057369 168.33203125 130.07421875 C168.33090332 131.33363281 168.32977539 132.59304687 168.32861328 133.890625 C167.99907555 143.11270722 167.99907555 143.11270722 166.140625 146.36328125 C163.0410143 148.19685378 159.6469307 148.42071112 156.13671875 148.88671875 C144.18668588 150.77349993 135.30159406 155.23589598 127.19921875 164.51171875 C121.35542871 173.68791798 117.91354158 183.56815714 119.19921875 194.51171875 C121.04140737 202.27881933 121.04140737 202.27881933 124.39453125 209.45703125 C125.70137051 212.79391207 125.12172461 215.10294708 124.19921875 218.51171875 C115.92046147 227.68663017 103.15674011 233.23019345 92.19921875 238.51171875 C91.35359375 238.93453125 90.50796875 239.35734375 89.63671875 239.79296875 C86.0707041 240.84448589 82.86321617 241.35540844 79.19921875 240.51171875 C76.99826295 238.47038597 75.56907156 236.84931447 73.88671875 234.44921875 C66.63723714 225.08022833 58.09062286 219.33989861 46.19921875 217.51171875 C33.97736402 216.38476851 24.1331186 219.370683 14.19921875 226.51171875 C10.34278783 229.77542974 7.3658859 233.16874333 4.69921875 237.44921875 C2.19921875 240.51171875 2.19921875 240.51171875 -0.9921875 240.8828125 C-5.15035213 240.477658 -8.48605148 239.36188728 -12.23828125 237.63671875 C-12.92204834 237.32935791 -13.60581543 237.02199707 -14.31030273 236.70532227 C-24.49623821 231.96986796 -36.11281468 225.88621118 -43.80078125 217.51171875 C-44.95493687 212.05571035 -42.94451116 207.78508252 -40.7734375 202.84375 C-37.18861813 194.24882163 -37.69242697 183.56887668 -40.76953125 174.87890625 C-45.76873789 163.40345465 -53.14777995 155.40234836 -64.7578125 150.45703125 C-69.31495545 149.04133344 -73.88927054 148.60464955 -78.63671875 148.26171875 C-82.76583785 147.28296459 -84.2726593 145.89480557 -86.80078125 142.51171875 C-88.16966393 135.48675213 -87.98686109 128.39506001 -87.98608398 121.26904297 C-87.98827542 119.01771264 -88.00648705 116.76686927 -88.02539062 114.515625 C-88.02832455 113.0664079 -88.03030935 111.61718851 -88.03125 110.16796875 C-88.03535889 108.86666016 -88.03946777 107.56535156 -88.04370117 106.22460938 C-87.72904932 101.41533768 -87.30058909 97.01152659 -83.80078125 93.51171875 C-81.12980364 93.00505304 -78.48918205 92.58200524 -75.80078125 92.19921875 C-63.84191226 90.25210642 -54.91738618 85.80383198 -46.80078125 76.51171875 C-40.95699121 67.33551952 -37.51510408 57.45528036 -38.80078125 46.51171875 C-40.64296987 38.74461817 -40.64296987 38.74461817 -43.99609375 31.56640625 C-45.30293301 28.22952543 -44.72328711 25.92049042 -43.80078125 22.51171875 C-35.63359749 13.4604584 -12.68258623 -2.2110506 0 0 Z " fill="#768089" transform="translate(87.80078125,7.48828125)"/>
<path d="M0 0 C3.60544291 2.76939818 6.8442496 5.73133198 10 9 C10.57105469 9.58523437 11.14210938 10.17046875 11.73046875 10.7734375 C24.55473839 24.81749628 28.01940861 41.92938027 27.2265625 60.35644531 C25.86205757 76.27762998 17.97886039 88.83282296 7 100 C6.36191406 100.65097656 5.72382813 101.30195313 5.06640625 101.97265625 C-7.10252042 113.4838031 -23.42475713 117.63299871 -39.74267578 117.40014648 C-59.54750544 116.72055044 -73.85697614 107.82092645 -87.0546875 93.8203125 C-90.7719975 89.44214739 -93.34736754 84.6516342 -95.8125 79.5 C-96.24816284 78.59266113 -96.24816284 78.59266113 -96.69262695 77.66699219 C-100.30065996 69.71163626 -101.3713914 61.86977546 -101.3125 53.1875 C-101.30686035 52.3109375 -101.3012207 51.434375 -101.29541016 50.53125 C-101.00406288 34.90811307 -95.28200473 21.73464999 -85 10 C-84.46761719 9.38511719 -83.93523437 8.77023438 -83.38671875 8.13671875 C-77.03425439 1.29910198 -68.74938777 -3.83211822 -60 -7 C-58.70642578 -7.5259375 -58.70642578 -7.5259375 -57.38671875 -8.0625 C-37.84572638 -15.21346036 -17.07865996 -11.20379418 0 0 Z " fill="#DEE1E4" transform="translate(165,75)"/>
<path d="M0 0 C7.86139348 6.11052633 13.64325013 15.89172545 15.69140625 25.55078125 C17.01243256 38.91085149 14.63579853 50.53696468 6.69140625 61.55078125 C6.11390625 62.41703125 5.53640625 63.28328125 4.94140625 64.17578125 C-2.35128937 71.87362663 -12.89832373 77.07506021 -23.47265625 77.75390625 C-35.73399686 77.91997407 -44.49169145 75.99808644 -54.30859375 68.55078125 C-55.19546875 67.95265625 -56.08234375 67.35453125 -56.99609375 66.73828125 C-64.57494899 59.56909386 -69.78315572 48.71741143 -70.546875 38.30078125 C-70.81926666 24.53783427 -67.76993275 13.90259922 -58.30859375 3.55078125 C-40.79100416 -12.45991891 -19.30464402 -12.11848212 0 0 Z " fill="#0C5AA4" transform="translate(155.30859375,93.44921875)"/>
</svg>
