<?xml version="1.0" encoding="UTF-8"?>
<svg version="1.1" xmlns="http://www.w3.org/2000/svg" width="256" height="256">
<path d="M0 0 C0.66043808 -0.0065712 1.32087616 -0.0131424 2.00132751 -0.01991272 C4.19212966 -0.03965783 6.38286303 -0.05131431 8.57373047 -0.0612793 C9.32315792 -0.06535482 10.07258537 -0.06943035 10.84472275 -0.07362938 C14.81558711 -0.09450077 18.78641685 -0.10879472 22.75732422 -0.11816406 C26.84614442 -0.12919769 30.93441576 -0.16355848 35.02304268 -0.20333576 C38.17677776 -0.22957639 41.33038396 -0.23786272 44.4842186 -0.24144554 C45.99041299 -0.24629666 47.49660219 -0.25786843 49.00268936 -0.27648354 C58.25023225 -0.38362654 64.94809724 -0.04460892 72.56201172 5.67700195 C73.03767578 6.17200195 73.51333984 6.66700195 74.00341797 7.17700195 C74.55740768 7.74059921 75.1113974 8.30419647 75.68217468 8.88487244 C77.56591797 11.17700195 77.56591797 11.17700195 78.95930481 14.1499176 C80.99608396 18.01270731 82.78880156 20.87997479 86.56591797 23.17700195 C94.98294934 25.47955981 104.19523801 24.58654891 112.82763672 24.3918457 C115.42354658 24.37919654 118.01949221 24.37257867 120.61543274 24.37171936 C126.73957665 24.35813822 132.86117762 24.29498041 138.9846018 24.20390373 C150.60319145 24.03233576 162.2221064 23.96090432 173.84180641 23.917696 C177.65478849 23.89216607 181.4660059 23.83118461 185.27848816 23.76585388 C187.61476802 23.74555791 189.95105651 23.72622394 192.28735352 23.70800781 C193.34567886 23.68052963 194.40400421 23.65305145 195.49440002 23.6247406 C203.51890269 23.60791307 203.51890269 23.60791307 207.20832825 26.58131409 C210.49888421 30.2041905 210.69334182 31.82661765 210.71981812 36.6161499 C210.72841858 37.77138153 210.73701904 38.92661316 210.74588013 40.11685181 C210.75227005 42.02752945 210.75227005 42.02752945 210.75878906 43.97680664 C210.7666896 45.32695731 210.77495853 46.67710587 210.78356934 48.0272522 C210.80979741 52.46777324 210.82509882 56.90830376 210.83935547 61.34887695 C210.84471503 62.87733211 210.85009254 64.40578721 210.85548782 65.93424225 C210.87711867 72.29258278 210.89585502 78.65092077 210.90711021 85.00928879 C210.92334669 94.12193448 210.95651429 103.23415358 211.01351106 112.34663844 C211.05221822 118.75351364 211.07174386 125.16027479 211.07703078 131.56726384 C211.08068355 135.39394132 211.09269575 139.2201639 211.12513351 143.04671478 C211.15522803 146.64853461 211.16152171 150.24962466 211.14974976 153.85154343 C211.14942412 155.79944441 211.17388142 157.74730044 211.1991272 159.69503784 C211.13101194 169.24692489 211.13101194 169.24692489 208.15444946 172.94683838 C203.93581489 176.58142624 200.75558777 176.32759543 195.39337158 176.3309021 C194.53835013 176.33528435 193.68332868 176.33966661 192.80239749 176.34418166 C189.92050892 176.3575989 187.03865095 176.36375507 184.15673828 176.36987305 C182.09723776 176.3777717 180.03773863 176.3860405 177.97824097 176.39465332 C171.20018847 176.42090036 164.4221297 176.43618339 157.64404297 176.45043945 C155.31321966 176.45579798 152.9823964 176.46117549 150.65157318 176.46657181 C140.95796367 176.48820424 131.26435585 176.50694199 121.5707283 176.5181942 C107.66560495 176.53443963 93.76076078 176.5676279 79.85574269 176.62459505 C70.08583799 176.66326027 60.31600807 176.68282284 50.54602885 176.68811476 C44.70732969 176.69177282 38.86892811 176.70384261 33.03031158 176.7362175 C27.5374965 176.76623782 22.04515999 176.77263136 16.55228043 176.76083374 C14.53585911 176.7606125 12.51941597 176.76895889 10.50307083 176.78648758 C7.75026807 176.80911647 4.99920985 176.80091363 2.24639893 176.78500366 C1.44814107 176.79888575 0.64988322 176.81276784 -0.17256427 176.82707059 C-5.91128852 176.74533072 -8.42322509 175.2945457 -12.43408203 171.17700195 C-13.84609422 168.35297757 -13.57312469 165.98632009 -13.58798218 162.82672119 C-13.59455556 161.83820479 -13.59455556 161.83820479 -13.60126173 160.82971835 C-13.61466598 158.61116682 -13.62083222 156.39265502 -13.62695312 154.17407227 C-13.63485285 152.58747172 -13.64312172 151.00087297 -13.6517334 149.41427612 C-13.67796968 144.19457723 -13.69326314 138.97487025 -13.70751953 133.75512695 C-13.71287865 131.95921575 -13.71825615 130.16330459 -13.72365189 128.36739349 C-13.74528342 120.89729635 -13.76402038 113.42720139 -13.77527428 105.95708084 C-13.79151462 95.24694935 -13.82469118 84.5371806 -13.88167512 73.82718587 C-13.92036413 66.29930083 -13.93990576 58.77151285 -13.94519484 51.24353099 C-13.94884989 46.74618632 -13.96088707 42.24922841 -13.99329758 37.75199127 C-14.0233599 33.51984684 -14.02969683 29.28832353 -14.01791382 25.05609512 C-14.01769292 23.50408489 -14.02601134 21.95204599 -14.04356766 20.40013504 C-14.18466602 7.20778948 -14.18466602 7.20778948 -11.02261353 3.26947021 C-7.07635935 0.0794717 -5.04140873 0.04145372 0 0 Z " fill="#FED96F" transform="translate(29.43408203125,33.822998046875)"/>
<path d="M0 0 C0.66043808 -0.0065712 1.32087616 -0.0131424 2.00132751 -0.01991272 C4.19212966 -0.03965783 6.38286303 -0.05131431 8.57373047 -0.0612793 C9.32315792 -0.06535482 10.07258537 -0.06943035 10.84472275 -0.07362938 C14.81558711 -0.09450077 18.78641685 -0.10879472 22.75732422 -0.11816406 C26.84614442 -0.12919769 30.93441576 -0.16355848 35.02304268 -0.20333576 C38.17677776 -0.22957639 41.33038396 -0.23786272 44.4842186 -0.24144554 C45.99041299 -0.24629666 47.49660219 -0.25786843 49.00268936 -0.27648354 C58.25023225 -0.38362654 64.94809724 -0.04460892 72.56201172 5.67700195 C73.03767578 6.17200195 73.51333984 6.66700195 74.00341797 7.17700195 C74.55740768 7.74059921 75.1113974 8.30419647 75.68217468 8.88487244 C77.56591797 11.17700195 77.56591797 11.17700195 78.95930481 14.1499176 C80.99608396 18.01270731 82.78880156 20.87997479 86.56591797 23.17700195 C94.98294934 25.47955981 104.19523801 24.58654891 112.82763672 24.3918457 C115.42354658 24.37919654 118.01949221 24.37257867 120.61543274 24.37171936 C126.73957665 24.35813822 132.86117762 24.29498041 138.9846018 24.20390373 C150.60319145 24.03233576 162.2221064 23.96090432 173.84180641 23.917696 C177.65478849 23.89216607 181.4660059 23.83118461 185.27848816 23.76585388 C187.61476802 23.74555791 189.95105651 23.72622394 192.28735352 23.70800781 C193.34567886 23.68052963 194.40400421 23.65305145 195.49440002 23.6247406 C203.52221125 23.60790614 203.52221125 23.60790614 207.21614075 26.46803284 C210.05189145 29.73726236 210.39854858 31.90908242 210.56591797 36.17700195 C209.82341797 35.39325195 209.08091797 34.60950195 208.31591797 33.80200195 C204.51846258 30.17715817 201.98906744 28.93607736 196.75511169 28.88265991 C195.30664604 28.861194 195.30664604 28.861194 193.82891846 28.83929443 C192.24938385 28.83122772 192.24938385 28.83122772 190.63793945 28.82299805 C188.96644585 28.80328445 188.96644585 28.80328445 187.26118469 28.78317261 C183.56979092 28.74372265 179.87856 28.72038265 176.18701172 28.70043945 C174.92463243 28.6922884 173.66225315 28.68413734 172.36161995 28.67573929 C166.36603963 28.63832027 160.3705576 28.60919146 154.3748917 28.59251535 C147.47678867 28.57300796 140.57997569 28.52046725 133.68232673 28.43951356 C127.69045767 28.37162997 121.69920858 28.3482022 115.70692635 28.34010696 C113.16766692 28.33038865 110.62842059 28.30719844 108.0894146 28.27003098 C92.59356608 27.45891912 92.59356608 27.45891912 78.73413086 33.10522461 C78.00859512 33.81683746 77.28305939 34.52845032 76.53553772 35.2616272 C71.24252961 40.40886138 63.61165724 40.29684247 56.63012695 40.3347168 C55.96428589 40.33979752 55.29844482 40.34487823 54.61242676 40.35011292 C53.17691263 40.36075386 51.74138256 40.36939824 50.30584526 40.37623215 C48.03137134 40.38809932 45.75708069 40.40756848 43.48268127 40.42935181 C37.01968482 40.49072774 30.55671313 40.54506359 24.09350586 40.57836914 C20.13123356 40.59933037 16.16930639 40.63463397 12.20723152 40.67912674 C10.70142744 40.69326316 9.19556244 40.70200386 7.68969536 40.70518112 C5.58353427 40.71009843 3.47828889 40.73327195 1.37231445 40.76049805 C-0.4225515 40.77262833 -0.4225515 40.77262833 -2.25367737 40.78500366 C-6.74833144 41.33898874 -9.37632612 42.90039999 -12.24658203 46.36450195 C-12.63845703 46.96262695 -13.03033203 47.56075195 -13.43408203 48.17700195 C-13.55799746 42.44791494 -13.64857021 36.71961371 -13.70874023 30.98950195 C-13.7338315 29.04177252 -13.76791264 27.09413676 -13.8112793 25.14672852 C-13.87216952 22.34148005 -13.90034534 19.53747988 -13.92236328 16.73168945 C-13.94816971 15.86583221 -13.97397614 14.99997498 -14.00056458 14.10787964 C-14.00253786 9.82121751 -13.77974332 7.04368356 -11.02856445 3.64233398 C-7.1640983 -0.02976343 -5.25093627 0.04317659 0 0 Z " fill="#F9BA1A" transform="translate(29.43408203125,33.822998046875)"/>
<path d="M0 0 C1.07887733 -0.01007584 1.07887733 -0.01007584 2.17955017 -0.02035522 C4.55434101 -0.03933167 6.92884901 -0.04325962 9.30371094 -0.04541016 C10.96034866 -0.05183985 12.61698525 -0.05856834 14.27362061 -0.06558228 C17.74705638 -0.07755523 21.22039271 -0.08126324 24.69384766 -0.08007812 C29.13013899 -0.07987528 33.56578722 -0.10714106 38.00192642 -0.14162254 C41.42503751 -0.16393895 44.84799521 -0.16791417 48.27117157 -0.16685867 C49.90574096 -0.1692089 51.54031495 -0.17799969 53.17481232 -0.19352341 C69.11896011 -0.33073757 69.11896011 -0.33073757 75.78808594 4.29052734 C79.58324296 8.8372006 79.27902105 13.23120805 79.14355469 18.92724609 C78.41380002 25.83184797 75.8128012 32.4016152 70.78808594 37.29052734 C54.33744527 49.92700738 34.95588922 51.20683072 14.86621094 48.82568359 C3.16069891 46.45937793 -6.8249055 40.92554966 -13.74707031 31.11474609 C-17.79846576 24.21947417 -18.57297242 17.14278712 -17.21191406 9.29052734 C-13.44063583 1.90561273 -7.94736669 0.04662892 0 0 Z " fill="#AE7801" transform="translate(97.2119140625,140.70947265625)"/>
<path d="M0 0 C8.08484206 4.40236263 12.23219054 10.54751971 15.28125 19.2421875 C16.7650215 27.56716498 14.56297178 34.91668881 10.18359375 42.0234375 C6.40646209 47.04254127 0.52451693 51.15928456 -5.71875 52.2421875 C-15.42315275 52.92417894 -22.82356081 52.94372268 -30.609375 46.734375 C-35.24906686 42.54305673 -37.52808979 38.02505934 -39.71875 32.2421875 C-40.04875 31.5821875 -40.37875 30.9221875 -40.71875 30.2421875 C-41.75848858 21.37884221 -39.53559722 13.64948183 -34.21875 6.4921875 C-24.87818249 -3.41304908 -12.12202746 -5.56232273 0 0 Z " fill="#BE8701" transform="translate(140.71875,81.7578125)"/>
<path d="M0 0 C0.33 0 0.66 0 1 0 C1.59865471 5.98654709 1.59865471 5.98654709 -0.04296875 8.765625 C-1.83858185 10.93510476 -3.46143928 12.73071964 -6 14 C-8.732303 14.10668754 -11.43961216 14.15221485 -14.17254639 14.15390015 C-15.02756784 14.1582824 -15.88258929 14.16266465 -16.76352048 14.1671797 C-19.64540905 14.18059694 -22.52726702 14.18675311 -25.40917969 14.19287109 C-27.46868021 14.20076974 -29.52817934 14.20903854 -31.587677 14.21765137 C-38.3657295 14.2438984 -45.14378827 14.25918144 -51.921875 14.2734375 C-54.25269831 14.27879603 -56.58352157 14.28417354 -58.91434479 14.28956985 C-68.6079543 14.31120229 -78.30156212 14.32994004 -87.99518967 14.34119225 C-101.90031302 14.35743768 -115.80515719 14.39062595 -129.71017528 14.44759309 C-139.48007998 14.48625831 -149.2499099 14.50582088 -159.01988912 14.51111281 C-164.85858828 14.51477087 -170.69698986 14.52684066 -176.53560638 14.55921555 C-182.02842147 14.58923587 -187.52075798 14.59562941 -193.01363754 14.58383179 C-195.03005886 14.58361055 -197.046502 14.59195693 -199.06284714 14.60948563 C-201.8156499 14.63211451 -204.56670812 14.62391167 -207.31951904 14.60800171 C-208.1177769 14.6218838 -208.91603475 14.63576588 -209.73848224 14.65006864 C-215.47720649 14.56832877 -217.98914306 13.11754375 -222 9 C-223.35439668 6.29120665 -223.06501451 3.99066732 -223 1 C-222.566875 1.598125 -222.13375 2.19625 -221.6875 2.8125 C-219.67444353 5.42201765 -217.96480355 7.51759822 -215 9 C-212.31801852 9.10227343 -209.6617466 9.14337802 -206.97930908 9.14044189 C-206.14062184 9.14341302 -205.3019346 9.14638414 -204.43783259 9.1494453 C-201.61121439 9.15815702 -198.78463841 9.15964263 -195.95800781 9.16113281 C-193.93791615 9.16575928 -191.91782536 9.1707837 -189.8977356 9.17617798 C-184.39762691 9.18932145 -178.89753043 9.19575085 -173.39740849 9.20018864 C-169.96306505 9.20311653 -166.52872498 9.20722081 -163.09438324 9.21169281 C-152.35478965 9.22537352 -141.61520371 9.23503709 -130.87560201 9.2388947 C-118.46808278 9.24337553 -106.06067371 9.26092224 -93.65318799 9.2898953 C-84.07011604 9.31149793 -74.48707511 9.32159824 -64.90397906 9.32293582 C-59.17714633 9.32398496 -53.45041707 9.32991588 -47.72360992 9.34775543 C-42.33593705 9.36421131 -36.9484457 9.36640365 -31.56075668 9.35761642 C-29.58304992 9.35684469 -27.60533351 9.36120666 -25.62765121 9.37107468 C-22.92775891 9.38375628 -20.22851313 9.37793796 -17.52862549 9.36749268 C-16.74593143 9.37554908 -15.96323737 9.38360548 -15.1568253 9.39190602 C-10.36834482 9.34857818 -7.03227347 8.61560065 -3 6 C-1.09793151 2.94960779 -1.09793151 2.94960779 0 0 Z " fill="#E6A928" transform="translate(239,196)"/>
<path d="M0 0 C0.99 0.33 1.98 0.66 3 1 C2.38125 1.598125 1.7625 2.19625 1.125 2.8125 C-1.13676954 5.00811144 -1.13676954 5.00811144 -3 8 C-3.1875 5.125 -3.1875 5.125 -3 2 C-2.01 1.34 -1.02 0.68 0 0 Z " fill="#FEE8A7" transform="translate(19,80)"/>
</svg>
