<?xml version="1.0" encoding="UTF-8"?>
<svg version="1.1" xmlns="http://www.w3.org/2000/svg" width="256" height="256">
    <path
        d="M0 0 C0.66043808 -0.0065712 1.32087616 -0.0131424 2.00132751 -0.01991272 C4.19212966 -0.03965783 6.38286303 -0.05131431 8.57373047 -0.0612793 C9.32315792 -0.06535482 10.07258537 -0.06943035 10.84472275 -0.07362938 C14.81558711 -0.09450077 18.78641685 -0.10879472 22.75732422 -0.11816406 C26.84614442 -0.12919769 30.93441576 -0.16355848 35.02304268 -0.20333576 C38.17677776 -0.22957639 41.33038396 -0.23786272 44.4842186 -0.24144554 C45.99041299 -0.24629666 47.49660219 -0.25786843 49.00268936 -0.27648354 C58.25023225 -0.38362654 64.94809724 -0.04460892 72.56201172 5.67700195 C73.03767578 6.17200195 73.51333984 6.66700195 74.00341797 7.17700195 C74.55740768 7.74059921 75.1113974 8.30419647 75.68217468 8.88487244 C77.56591797 11.17700195 77.56591797 11.17700195 78.95930481 14.1499176 C80.99608396 18.01270731 82.78880156 20.87997479 86.56591797 23.17700195 C94.98294934 25.47955981 104.19523801 24.58654891 112.82763672 24.3918457 C115.42354658 24.37919654 118.01949221 24.37257867 120.61543274 24.37171936 C126.73957665 24.35813822 132.86117762 24.29498041 138.9846018 24.20390373 C150.60319145 24.03233576 162.2221064 23.96090432 173.84180641 23.917696 C177.65478849 23.89216607 181.4660059 23.83118461 185.27848816 23.76585388 C187.61476802 23.74555791 189.95105651 23.72622394 192.28735352 23.70800781 C193.34567886 23.68052963 194.40400421 23.65305145 195.49440002 23.6247406 C203.51890269 23.60791307 203.51890269 23.60791307 207.20832825 26.58131409 C210.49888421 30.2041905 210.69334182 31.82661765 210.71981812 36.6161499 C210.72841858 37.77138153 210.73701904 38.92661316 210.74588013 40.11685181 C210.75227005 42.02752945 210.75227005 42.02752945 210.75878906 43.97680664 C210.7666896 45.32695731 210.77495853 46.67710587 210.78356934 48.0272522 C210.80979741 52.46777324 210.82509882 56.90830376 210.83935547 61.34887695 C210.84471503 62.87733211 210.85009254 64.40578721 210.85548782 65.93424225 C210.87711867 72.29258278 210.89585502 78.65092077 210.90711021 85.00928879 C210.92334669 94.12193448 210.95651429 103.23415358 211.01351106 112.34663844 C211.05221822 118.75351364 211.07174386 125.16027479 211.07703078 131.56726384 C211.08068355 135.39394132 211.09269575 139.2201639 211.12513351 143.04671478 C211.15522803 146.64853461 211.16152171 150.24962466 211.14974976 153.85154343 C211.14942412 155.79944441 211.17388142 157.74730044 211.1991272 159.69503784 C211.13101194 169.24692489 211.13101194 169.24692489 208.15444946 172.94683838 C203.93581489 176.58142624 200.75558777 176.32759543 195.39337158 176.3309021 C194.53835013 176.33528435 193.68332868 176.33966661 192.80239749 176.34418166 C189.92050892 176.3575989 187.03865095 176.36375507 184.15673828 176.36987305 C182.09723776 176.3777717 180.03773863 176.3860405 177.97824097 176.39465332 C171.20018847 176.42090036 164.4221297 176.43618339 157.64404297 176.45043945 C155.31321966 176.45579798 152.9823964 176.46117549 150.65157318 176.46657181 C140.95796367 176.48820424 131.26435585 176.50694199 121.5707283 176.5181942 C107.66560495 176.53443963 93.76076078 176.5676279 79.85574269 176.62459505 C70.08583799 176.66326027 60.31600807 176.68282284 50.54602885 176.68811476 C44.70732969 176.69177282 38.86892811 176.70384261 33.03031158 176.7362175 C27.5374965 176.76623782 22.04515999 176.77263136 16.55228043 176.76083374 C14.53585911 176.7606125 12.51941597 176.76895889 10.50307083 176.78648758 C7.75026807 176.80911647 4.99920985 176.80091363 2.24639893 176.78500366 C1.44814107 176.79888575 0.64988322 176.81276784 -0.17256427 176.82707059 C-5.91128852 176.74533072 -8.42322509 175.2945457 -12.43408203 171.17700195 C-13.84609422 168.35297757 -13.57312469 165.98632009 -13.58798218 162.82672119 C-13.59455556 161.83820479 -13.59455556 161.83820479 -13.60126173 160.82971835 C-13.61466598 158.61116682 -13.62083222 156.39265502 -13.62695312 154.17407227 C-13.63485285 152.58747172 -13.64312172 151.00087297 -13.6517334 149.41427612 C-13.67796968 144.19457723 -13.69326314 138.97487025 -13.70751953 133.75512695 C-13.71287865 131.95921575 -13.71825615 130.16330459 -13.72365189 128.36739349 C-13.74528342 120.89729635 -13.76402038 113.42720139 -13.77527428 105.95708084 C-13.79151462 95.24694935 -13.82469118 84.5371806 -13.88167512 73.82718587 C-13.92036413 66.29930083 -13.93990576 58.77151285 -13.94519484 51.24353099 C-13.94884989 46.74618632 -13.96088707 42.24922841 -13.99329758 37.75199127 C-14.0233599 33.51984684 -14.02969683 29.28832353 -14.01791382 25.05609512 C-14.01769292 23.50408489 -14.02601134 21.95204599 -14.04356766 20.40013504 C-14.18466602 7.20778948 -14.18466602 7.20778948 -11.02261353 3.26947021 C-7.07635935 0.0794717 -5.04140873 0.04145372 0 0 Z "
        fill="#A162EF" transform="translate(29.43408203125,33.822998046875)" />
    <path
        d="M0 0 C0.66043808 -0.0065712 1.32087616 -0.0131424 2.00132751 -0.01991272 C4.19212966 -0.03965783 6.38286303 -0.05131431 8.57373047 -0.0612793 C9.32315792 -0.06535482 10.07258537 -0.06943035 10.84472275 -0.07362938 C14.81558711 -0.09450077 18.78641685 -0.10879472 22.75732422 -0.11816406 C26.84614442 -0.12919769 30.93441576 -0.16355848 35.02304268 -0.20333576 C38.17677776 -0.22957639 41.33038396 -0.23786272 44.4842186 -0.24144554 C45.99041299 -0.24629666 47.49660219 -0.25786843 49.00268936 -0.27648354 C58.25023225 -0.38362654 64.94809724 -0.04460892 72.56201172 5.67700195 C73.03767578 6.17200195 73.51333984 6.66700195 74.00341797 7.17700195 C74.55740768 7.74059921 75.1113974 8.30419647 75.68217468 8.88487244 C77.56591797 11.17700195 77.56591797 11.17700195 78.95930481 14.1499176 C80.99608396 18.01270731 82.78880156 20.87997479 86.56591797 23.17700195 C94.98294934 25.47955981 104.19523801 24.58654891 112.82763672 24.3918457 C115.42354658 24.37919654 118.01949221 24.37257867 120.61543274 24.37171936 C126.73957665 24.35813822 132.86117762 24.29498041 138.9846018 24.20390373 C150.60319145 24.03233576 162.2221064 23.96090432 173.84180641 23.917696 C177.65478849 23.89216607 181.4660059 23.83118461 185.27848816 23.76585388 C187.61476802 23.74555791 189.95105651 23.72622394 192.28735352 23.70800781 C193.34567886 23.68052963 194.40400421 23.65305145 195.49440002 23.6247406 C203.52221125 23.60790614 203.52221125 23.60790614 207.21614075 26.46803284 C210.05189145 29.73726236 210.39854858 31.90908242 210.56591797 36.17700195 C209.82341797 35.39325195 209.08091797 34.60950195 208.31591797 33.80200195 C204.51846258 30.17715817 201.98906744 28.93607736 196.75511169 28.88265991 C195.30664604 28.861194 195.30664604 28.861194 193.82891846 28.83929443 C192.24938385 28.83122772 192.24938385 28.83122772 190.63793945 28.82299805 C188.96644585 28.80328445 188.96644585 28.80328445 187.26118469 28.78317261 C183.56979092 28.74372265 179.87856 28.72038265 176.18701172 28.70043945 C174.92463243 28.6922884 173.66225315 28.68413734 172.36161995 28.67573929 C166.36603963 28.63832027 160.3705576 28.60919146 154.3748917 28.59251535 C147.47678867 28.57300796 140.57997569 28.52046725 133.68232673 28.43951356 C127.69045767 28.37162997 121.69920858 28.3482022 115.70692635 28.34010696 C113.16766692 28.33038865 110.62842059 28.30719844 108.0894146 28.27003098 C92.59356608 27.45891912 92.59356608 27.45891912 78.73413086 33.10522461 C78.00859512 33.81683746 77.28305939 34.52845032 76.53553772 35.2616272 C71.24252961 40.40886138 63.61165724 40.29684247 56.63012695 40.3347168 C55.96428589 40.33979752 55.29844482 40.34487823 54.61242676 40.35011292 C53.17691263 40.36075386 51.74138256 40.36939824 50.30584526 40.37623215 C48.03137134 40.38809932 45.75708069 40.40756848 43.48268127 40.42935181 C37.01968482 40.49072774 30.55671313 40.54506359 24.09350586 40.57836914 C20.13123356 40.59933037 16.16930639 40.63463397 12.20723152 40.67912674 C10.70142744 40.69326316 9.19556244 40.70200386 7.68969536 40.70518112 C5.58353427 40.71009843 3.47828889 40.73327195 1.37231445 40.76049805 C-0.4225515 40.77262833 -0.4225515 40.77262833 -2.25367737 40.78500366 C-6.74833144 41.33898874 -9.37632612 42.90039999 -12.24658203 46.36450195 C-12.63845703 46.96262695 -13.03033203 47.56075195 -13.43408203 48.17700195 C-13.55799746 42.44791494 -13.64857021 36.71961371 -13.70874023 30.98950195 C-13.7338315 29.04177252 -13.76791264 27.09413676 -13.8112793 25.14672852 C-13.87216952 22.34148005 -13.90034534 19.53747988 -13.92236328 16.73168945 C-13.94816971 15.86583221 -13.97397614 14.99997498 -14.00056458 14.10787964 C-14.00253786 9.82121751 -13.77974332 7.04368356 -11.02856445 3.64233398 C-7.1640983 -0.02976343 -5.25093627 0.04317659 0 0 Z "
        fill="#7F5BBB" transform="translate(29.43408203125,33.822998046875)" />
    <path
        d="M0 0 C5.81071584 0.0862124 9.41176059 3.04417054 13.875 6.375 C15.39122537 7.47622722 16.90816923 8.57646577 18.42578125 9.67578125 C19.57167725 10.51230225 19.57167725 10.51230225 20.74072266 11.36572266 C24.14038651 13.82491326 27.59746379 16.19673148 31.0625 18.5625 C32.37375702 19.46085124 33.68495476 20.35928901 34.99609375 21.2578125 C35.64819824 21.70415039 36.30030273 22.15048828 36.97216797 22.61035156 C39.09933247 24.06807132 41.22383338 25.52960389 43.34765625 26.9921875 C44.0636499 27.48517334 44.77964355 27.97815918 45.51733398 28.48608398 C46.87767971 29.42286787 48.23787923 30.35986412 49.59790039 31.29711914 C50.52783813 31.93701782 50.52783813 31.93701782 51.4765625 32.58984375 C52.36287354 33.20255127 52.36287354 33.20255127 53.26708984 33.82763672 C54.4155217 34.60458371 55.57750802 35.36188786 56.75244141 36.09814453 C60.88748297 38.69995459 60.88748297 38.69995459 62.125 42 C62 45 62 45 60.5234375 46.8203125 C57.04973137 49.82082027 53.3111466 52.32406533 49.5 54.875 C47.78575644 56.03411888 46.07223832 57.19431122 44.359375 58.35546875 C43.03389648 59.25338135 43.03389648 59.25338135 41.68164062 60.16943359 C37.34089499 63.13255366 33.04773652 66.16252115 28.75 69.1875 C26.28283445 70.91238344 23.81425831 72.63522789 21.34521484 74.35742188 C19.80793917 75.43412297 18.27426118 76.51598317 16.74462891 77.60351562 C14.69303259 79.06172858 12.62962378 80.50142289 10.5625 81.9375 C9.96598633 82.36893311 9.36947266 82.80036621 8.75488281 83.24487305 C6.03477883 85.10953658 4.49712075 86.03205031 1.15234375 85.81640625 C-1 85 -1 85 -2 84 C-2.10569379 81.45486996 -2.14678172 78.93673674 -2.14526367 76.39086914 C-2.14862228 75.59414291 -2.1519809 74.79741669 -2.15544128 73.97654724 C-2.16497998 71.32940127 -2.16689585 68.68231836 -2.16796875 66.03515625 C-2.17117929 64.20291619 -2.17454321 62.3706764 -2.17805481 60.53843689 C-2.18405338 56.69236659 -2.18589396 52.84631879 -2.18530273 49.00024414 C-2.18520107 44.06239276 -2.19885467 39.12468502 -2.21607494 34.18686771 C-2.22717204 30.40115186 -2.22922265 26.61547098 -2.22869301 22.82974052 C-2.22987654 21.00880882 -2.23431905 19.18787631 -2.24202538 17.36696053 C-2.25177928 14.82404533 -2.2489656 12.28144523 -2.24291992 9.73852539 C-2.24853943 8.98052643 -2.25415894 8.22252747 -2.25994873 7.44155884 C-2.22831557 2.22831557 -2.22831557 2.22831557 0 0 Z "
        fill="#FBF8FE" transform="translate(104,96)" />
    <path
        d="M0 0 C0.33 0 0.66 0 1 0 C1.59865471 5.98654709 1.59865471 5.98654709 -0.04296875 8.765625 C-1.83858185 10.93510476 -3.46143928 12.73071964 -6 14 C-8.732303 14.10668754 -11.43961216 14.15221485 -14.17254639 14.15390015 C-15.02756784 14.1582824 -15.88258929 14.16266465 -16.76352048 14.1671797 C-19.64540905 14.18059694 -22.52726702 14.18675311 -25.40917969 14.19287109 C-27.46868021 14.20076974 -29.52817934 14.20903854 -31.587677 14.21765137 C-38.3657295 14.2438984 -45.14378827 14.25918144 -51.921875 14.2734375 C-54.25269831 14.27879603 -56.58352157 14.28417354 -58.91434479 14.28956985 C-68.6079543 14.31120229 -78.30156212 14.32994004 -87.99518967 14.34119225 C-101.90031302 14.35743768 -115.80515719 14.39062595 -129.71017528 14.44759309 C-139.48007998 14.48625831 -149.2499099 14.50582088 -159.01988912 14.51111281 C-164.85858828 14.51477087 -170.69698986 14.52684066 -176.53560638 14.55921555 C-182.02842147 14.58923587 -187.52075798 14.59562941 -193.01363754 14.58383179 C-195.03005886 14.58361055 -197.046502 14.59195693 -199.06284714 14.60948563 C-201.8156499 14.63211451 -204.56670812 14.62391167 -207.31951904 14.60800171 C-208.1177769 14.6218838 -208.91603475 14.63576588 -209.73848224 14.65006864 C-213.72915436 14.59322726 -216.28548976 14.18429062 -219.48784256 11.70028114 C-222.51851345 8.44265751 -222.82831323 6.37801272 -223 2 C-222.2575 2.78375 -221.515 3.5675 -220.75 4.375 C-215.93356223 8.97250878 -212.34172379 9.29139591 -205.81472778 9.25396729 C-204.9824988 9.25708727 -204.15026981 9.26020725 -203.29282176 9.26342177 C-200.49999304 9.27140851 -197.70738118 9.26507544 -194.91455078 9.25878906 C-192.91386792 9.26149866 -190.91318607 9.26505942 -188.9125061 9.26940918 C-183.4744722 9.27854027 -178.03651405 9.27498563 -172.59847879 9.26865101 C-166.9104482 9.26359336 -161.22242416 9.26828194 -155.53439331 9.27142334 C-145.97945998 9.27506426 -136.42455755 9.2702612 -126.86962891 9.26074219 C-115.82245153 9.24986363 -104.775348 9.25337837 -93.72817242 9.264395 C-84.24696601 9.27347171 -74.76578183 9.27475108 -65.28457248 9.26951766 C-59.62039853 9.26639928 -53.95625928 9.2659849 -48.29208755 9.27259064 C-42.96514557 9.2783688 -37.63829874 9.27435849 -32.31136703 9.26280212 C-30.35624093 9.2601578 -28.40110681 9.26091674 -26.44598389 9.26532745 C-23.77696103 9.27079342 -21.10824295 9.26393586 -18.4392395 9.25396729 C-17.66569158 9.25842873 -16.89214365 9.26289017 -16.09515488 9.26748681 C-11.69051725 9.23558483 -8.06134084 8.73587609 -4 7 C-1.81155285 4.66062546 -1.02031118 3.06093353 0 0 Z "
        fill="#66499B" transform="translate(239,196)" />
    <path
        d="M0 0 C0.84175781 -0.00257813 1.68351563 -0.00515625 2.55078125 -0.0078125 C3.87142578 0.00378906 3.87142578 0.00378906 5.21875 0.015625 C6.09917969 0.00789062 6.97960937 0.00015625 7.88671875 -0.0078125 C8.72847656 -0.00523437 9.57023438 -0.00265625 10.4375 0 C11.59668945 0.00338379 11.59668945 0.00338379 12.77929688 0.00683594 C14.71875 0.265625 14.71875 0.265625 16.71875 2.265625 C16.97753906 4.09741211 16.97753906 4.09741211 16.984375 6.29296875 C16.98824219 7.48116211 16.98824219 7.48116211 16.9921875 8.69335938 C16.98445313 9.52158203 16.97671875 10.34980469 16.96875 11.203125 C16.97648437 12.02748047 16.98421875 12.85183594 16.9921875 13.70117188 C16.98960937 14.49458984 16.98703125 15.28800781 16.984375 16.10546875 C16.98211914 16.83113037 16.97986328 17.55679199 16.97753906 18.30444336 C16.71875 20.265625 16.71875 20.265625 14.71875 23.265625 C12.77929688 23.63793945 12.77929688 23.63793945 10.4375 23.62890625 C9.59574219 23.62826172 8.75398437 23.62761719 7.88671875 23.62695312 C7.00628906 23.61083984 6.12585938 23.59472656 5.21875 23.578125 C3.89810547 23.58295898 3.89810547 23.58295898 2.55078125 23.58789062 C-4.01427968 23.53259532 -4.01427968 23.53259532 -6.28125 21.265625 C-6.54003906 19.32617188 -6.54003906 19.32617188 -6.546875 16.984375 C-6.54945313 16.14261719 -6.55203125 15.30085937 -6.5546875 14.43359375 C-6.54308594 13.11294922 -6.54308594 13.11294922 -6.53125 11.765625 C-6.53898438 10.88519531 -6.54671875 10.00476563 -6.5546875 9.09765625 C-6.55210937 8.25589844 -6.54953125 7.41414062 -6.546875 6.546875 C-6.54461914 5.77408203 -6.54236328 5.00128906 -6.54003906 4.20507812 C-5.99493728 0.11990023 -3.52809625 0.01029886 0 0 Z "
        fill="#36255B" transform="translate(211.28125,172.734375)" />
    <path
        d="M0 0 C0.84175781 -0.00257813 1.68351562 -0.00515625 2.55078125 -0.0078125 C3.87142578 0.00378906 3.87142578 0.00378906 5.21875 0.015625 C6.09917969 0.00789062 6.97960938 0.00015625 7.88671875 -0.0078125 C8.72847656 -0.00523437 9.57023437 -0.00265625 10.4375 0 C11.59668945 0.00338379 11.59668945 0.00338379 12.77929688 0.00683594 C14.71875 0.265625 14.71875 0.265625 16.71875 2.265625 C17.16235072 5.22414609 17.04287652 8.21510951 17.03125 11.203125 C17.04736328 12.02748047 17.06347656 12.85183594 17.08007812 13.70117188 C17.08072266 14.49458984 17.08136719 15.28800781 17.08203125 16.10546875 C17.08501221 16.83113037 17.08799316 17.55679199 17.09106445 18.30444336 C16.60371976 20.87155148 15.82007526 21.73835487 13.71875 23.265625 C11.75756836 23.63793945 11.75756836 23.63793945 9.55859375 23.62890625 C8.76517578 23.62826172 7.97175781 23.62761719 7.15429688 23.62695312 C6.32994141 23.61083984 5.50558594 23.59472656 4.65625 23.578125 C3.82802734 23.58134766 2.99980469 23.58457031 2.14648438 23.58789062 C-4.01412408 23.53275092 -4.01412408 23.53275092 -6.28125 21.265625 C-6.54003906 19.32617188 -6.54003906 19.32617188 -6.546875 16.984375 C-6.54945312 16.14261719 -6.55203125 15.30085937 -6.5546875 14.43359375 C-6.54308594 13.11294922 -6.54308594 13.11294922 -6.53125 11.765625 C-6.53898437 10.88519531 -6.54671875 10.00476563 -6.5546875 9.09765625 C-6.55210938 8.25589844 -6.54953125 7.41414062 -6.546875 6.546875 C-6.54461914 5.77408203 -6.54236328 5.00128906 -6.54003906 4.20507812 C-5.99493728 0.11990023 -3.52809625 0.01029886 0 0 Z "
        fill="#3E2B65" transform="translate(33.28125,172.734375)" />
    <path
        d="M0 0 C0.84175781 -0.00257813 1.68351563 -0.00515625 2.55078125 -0.0078125 C3.87142578 0.00378906 3.87142578 0.00378906 5.21875 0.015625 C6.09917969 0.00789062 6.97960937 0.00015625 7.88671875 -0.0078125 C8.72847656 -0.00523437 9.57023438 -0.00265625 10.4375 0 C11.59668945 0.00338379 11.59668945 0.00338379 12.77929688 0.00683594 C14.71875 0.265625 14.71875 0.265625 16.71875 2.265625 C17.16235072 5.22414609 17.04287652 8.21510951 17.03125 11.203125 C17.04736328 12.02748047 17.06347656 12.85183594 17.08007812 13.70117188 C17.08072266 14.49458984 17.08136719 15.28800781 17.08203125 16.10546875 C17.08501221 16.83113037 17.08799316 17.55679199 17.09106445 18.30444336 C16.60372423 20.87152797 15.81867974 21.73671325 13.71875 23.265625 C11.75756836 23.65380859 11.75756836 23.65380859 9.55859375 23.6640625 C8.76517578 23.66792969 7.97175781 23.67179687 7.15429688 23.67578125 C5.91776367 23.65837891 5.91776367 23.65837891 4.65625 23.640625 C3.41391602 23.65802734 3.41391602 23.65802734 2.14648438 23.67578125 C1.35435547 23.67191406 0.56222656 23.66804688 -0.25390625 23.6640625 C-1.34070679 23.65898682 -1.34070679 23.65898682 -2.44946289 23.65380859 C-4.28125 23.265625 -4.28125 23.265625 -6.28125 20.265625 C-6.54003906 18.30444336 -6.54003906 18.30444336 -6.546875 16.10546875 C-6.54945313 15.31205078 -6.55203125 14.51863281 -6.5546875 13.70117188 C-6.54695312 12.87681641 -6.53921875 12.05246094 -6.53125 11.203125 C-6.53898438 10.37490234 -6.54671875 9.54667969 -6.5546875 8.69335938 C-6.55210937 7.90123047 -6.54953125 7.10910156 -6.546875 6.29296875 C-6.54461914 5.56843506 -6.54236328 4.84390137 -6.54003906 4.09741211 C-5.97258975 0.08083454 -3.44585027 0.01005878 0 0 Z "
        fill="#432F6C" transform="translate(211.28125,129.734375)" />
    <path
        d="M0 0 C0.79341797 -0.00257813 1.58683594 -0.00515625 2.40429688 -0.0078125 C3.64083008 0.00378906 3.64083008 0.00378906 4.90234375 0.015625 C5.73056641 0.00789062 6.55878906 0.00015625 7.41210938 -0.0078125 C8.20423828 -0.00523437 8.99636719 -0.00265625 9.8125 0 C10.53703369 0.00225586 11.26156738 0.00451172 12.00805664 0.00683594 C13.83984375 0.265625 13.83984375 0.265625 15.83984375 2.265625 C16.28344447 5.22414609 16.16397027 8.21510951 16.15234375 11.203125 C16.16845703 12.02748047 16.18457031 12.85183594 16.20117188 13.70117188 C16.20181641 14.49458984 16.20246094 15.28800781 16.203125 16.10546875 C16.20610596 16.83113037 16.20908691 17.55679199 16.2121582 18.30444336 C15.72624395 20.8640166 14.92531874 21.7332401 12.83984375 23.265625 C9.91726732 23.5637278 7.25638592 23.68444617 4.33984375 23.640625 C3.18162109 23.65802734 3.18162109 23.65802734 2 23.67578125 C-3.6425483 23.64644391 -3.6425483 23.64644391 -5.87939453 22.00073242 C-7.44909186 19.87419051 -7.54636022 18.7289779 -7.55859375 16.10546875 C-7.56246094 15.31205078 -7.56632812 14.51863281 -7.5703125 13.70117188 C-7.55871094 12.87681641 -7.54710938 12.05246094 -7.53515625 11.203125 C-7.54675781 10.37490234 -7.55835937 9.54667969 -7.5703125 8.69335938 C-7.56644531 7.90123047 -7.56257813 7.10910156 -7.55859375 6.29296875 C-7.55520996 5.56843506 -7.55182617 4.84390137 -7.54833984 4.09741211 C-6.7156952 0.16827201 -3.38305987 0.0105169 0 0 Z "
        fill="#4E377B" transform="translate(34.16015625,129.734375)" />
    <path
        d="M0 0 C0.79341797 -0.00257812 1.58683594 -0.00515625 2.40429688 -0.0078125 C3.64083008 0.00378906 3.64083008 0.00378906 4.90234375 0.015625 C5.73056641 0.00789063 6.55878906 0.00015625 7.41210938 -0.0078125 C8.20423828 -0.00523438 8.99636719 -0.00265625 9.8125 0 C10.53703369 0.00225586 11.26156738 0.00451172 12.00805664 0.00683594 C13.83984375 0.265625 13.83984375 0.265625 15.83984375 2.265625 C16.28344447 5.22414609 16.16397027 8.21510951 16.15234375 11.203125 C16.16845703 12.02748047 16.18457031 12.85183594 16.20117188 13.70117188 C16.20181641 14.49458984 16.20246094 15.28800781 16.203125 16.10546875 C16.20610596 16.83113037 16.20908691 17.55679199 16.2121582 18.30444336 C15.72624395 20.8640166 14.92531874 21.7332401 12.83984375 23.265625 C9.91726732 23.5637278 7.25638592 23.68444617 4.33984375 23.640625 C3.18162109 23.65802734 3.18162109 23.65802734 2 23.67578125 C-3.6425483 23.64644391 -3.6425483 23.64644391 -5.87939453 22.00073242 C-7.44909186 19.87419051 -7.54636022 18.7289779 -7.55859375 16.10546875 C-7.56246094 15.31205078 -7.56632813 14.51863281 -7.5703125 13.70117188 C-7.55871094 12.87681641 -7.54710937 12.05246094 -7.53515625 11.203125 C-7.54675781 10.37490234 -7.55835938 9.54667969 -7.5703125 8.69335938 C-7.56644531 7.90123047 -7.56257812 7.10910156 -7.55859375 6.29296875 C-7.55520996 5.56843506 -7.55182617 4.84390137 -7.54833984 4.09741211 C-6.7156952 0.16827201 -3.38305987 0.0105169 0 0 Z "
        fill="#543B81" transform="translate(212.16015625,86.734375)" />
    <path
        d="M0 0 C1.24233398 -0.02416992 1.24233398 -0.02416992 2.50976562 -0.04882812 C3.69795898 -0.04979492 3.69795898 -0.04979492 4.91015625 -0.05078125 C5.63468994 -0.05376221 6.35922363 -0.05674316 7.10571289 -0.05981445 C8.9375 0.3125 8.9375 0.3125 10.9375 3.3125 C11.15901632 6.18933527 11.26199942 8.9374382 11.25 11.8125 C11.26611328 12.58464844 11.28222656 13.35679688 11.29882812 14.15234375 C11.30373947 19.82003135 11.30373947 19.82003135 9.65893555 22.03173828 C6.65715579 24.26508626 3.03030319 23.74148202 -0.5625 23.6875 C-1.72072266 23.70490234 -1.72072266 23.70490234 -2.90234375 23.72265625 C-8.54489205 23.69331891 -8.54489205 23.69331891 -10.78173828 22.04760742 C-12.35143561 19.92106551 -12.44870397 18.7758529 -12.4609375 16.15234375 C-12.46480469 15.35892578 -12.46867187 14.56550781 -12.47265625 13.74804688 C-12.46105469 12.92369141 -12.44945313 12.09933594 -12.4375 11.25 C-12.44910156 10.42177734 -12.46070312 9.59355469 -12.47265625 8.74023438 C-12.46878906 7.94810547 -12.46492188 7.15597656 -12.4609375 6.33984375 C-12.45755371 5.61531006 -12.45416992 4.89077637 -12.45068359 4.14428711 C-11.29615493 -1.30378116 -4.24088287 -0.0165789 0 0 Z "
        fill="#5E428E" transform="translate(39.0625,86.6875)" />
    <path
        d="M0 0 C0.66 0.33 1.32 0.66 2 1 C0.8803014 2.00593243 -0.2459412 3.0045849 -1.375 4 C-2.00148438 4.556875 -2.62796875 5.11375 -3.2734375 5.6875 C-5 7 -5 7 -7 7 C-5.66667905 3.00003714 -3.5042173 2.16217663 0 0 Z "
        fill="#8C55D4" transform="translate(130,166)" />
    <path
        d="M0 0 C0.66 0.33 1.32 0.66 2 1 C1.21625 1.763125 0.4325 2.52625 -0.375 3.3125 C-3.07257717 5.90891805 -3.07257717 5.90891805 -5 9 C-5.3125 6.1875 -5.3125 6.1875 -5 3 C-2.625 1.0625 -2.625 1.0625 0 0 Z "
        fill="#C18FF5" transform="translate(21,79)" />
</svg>